<svg width="15" height="12" viewBox="0 0 15 12" fill="none" xmlns="http://www.w3.org/2000/svg">
    <path d="M13.2812 11.2185H1.71879C0.770645 11.2185 0 10.45 0 9.50451V1.71397C0 0.768486 0.770645 0 1.71879 0H13.2812C14.2294 0 15 0.768486 15 1.71397V9.50451C15 10.45 14.2294 11.2185 13.2812 11.2185ZM1.71879 0.934874C1.28815 0.934874 0.9375 1.28454 0.9375 1.71397V9.50451C0.9375 9.93395 1.28815 10.2836 1.71879 10.2836H13.2812C13.7119 10.2836 14.0625 9.93395 14.0625 9.50451V1.71397C14.0625 1.28454 13.7119 0.934874 13.2812 0.934874H1.71879Z" fill="#639EB5"/>
    <path d="M4.72688 5.54622C3.85833 5.54622 3.15125 4.86733 3.15125 4.03367C3.15125 3.1999 3.85833 2.52101 4.72688 2.52101C5.59542 2.52101 6.30251 3.1999 6.30251 4.03367C6.30251 4.86733 5.59542 5.54622 4.72688 5.54622ZM4.72688 3.42856C4.37962 3.42856 4.09665 3.70021 4.09665 4.03367C4.09665 4.36702 4.37962 4.63867 4.72688 4.63867C5.07413 4.63867 5.3571 4.36702 5.3571 4.03367C5.3571 3.70021 5.07413 3.42856 4.72688 3.42856Z" fill="#639EB5"/>
    <path d="M7.09033 8.69748C6.8294 8.69748 6.61764 8.48572 6.61764 8.2248V7.90965C6.61764 7.4754 6.26404 7.12182 5.82978 7.12182H3.62398C3.18972 7.12182 2.83613 7.4754 2.83613 7.90965V8.2248C2.83613 8.48572 2.62436 8.69748 2.36344 8.69748C2.10251 8.69748 1.89075 8.48572 1.89075 8.2248V7.90965C1.89075 6.95357 2.66787 6.17647 3.62398 6.17647H5.82978C6.78589 6.17647 7.56302 6.95357 7.56302 7.90965V8.2248C7.56302 8.48572 7.35125 8.69748 7.09033 8.69748Z" fill="#639EB5"/>
    <path d="M12.6501 3.78151H9.28274C9.02926 3.78151 8.82355 3.55563 8.82355 3.27731C8.82355 2.99899 9.02926 2.77311 9.28274 2.77311H12.6501C12.9035 2.77311 13.1093 2.99899 13.1093 3.27731C13.1093 3.55563 12.9035 3.78151 12.6501 3.78151Z" fill="#639EB5"/>
    <path d="M12.6501 6.17647H9.28274C9.02926 6.17647 8.82355 5.97883 8.82355 5.7353C8.82355 5.49177 9.02926 5.29412 9.28274 5.29412H12.6501C12.9035 5.29412 13.1093 5.49177 13.1093 5.7353C13.1093 5.97883 12.9035 6.17647 12.6501 6.17647Z" fill="#639EB5"/>
    <path d="M12.6501 8.69748H9.28274C9.02926 8.69748 8.82355 8.49983 8.82355 8.2563C8.82355 8.01277 9.02926 7.81512 9.28274 7.81512H12.6501C12.9035 7.81512 13.1093 8.01277 13.1093 8.2563C13.1093 8.49983 12.9035 8.69748 12.6501 8.69748Z" fill="#639EB5"/>
</svg>
