<svg width="15" height="15" viewBox="0 0 15 15" fill="none" xmlns="http://www.w3.org/2000/svg">
  <path d="M7.93945 3.98438C7.93945 1.78737 6.16521 0 3.98438 0C1.79763 0 0 1.79821 0 3.98438C0 6.01778 1.55396 7.69743 3.54492 7.91528V10.5762H2.22656C1.98387 10.5762 1.78711 10.7729 1.78711 11.0156C1.78711 11.2583 1.98387 11.4551 2.22656 11.4551H3.54492V12.7734C3.54492 13.0161 3.74168 13.2129 3.98438 13.2129C4.22707 13.2129 4.42383 13.0161 4.42383 12.7734V11.4551H5.74219C5.98488 11.4551 6.18164 11.2583 6.18164 11.0156C6.18164 10.7729 5.98488 10.5762 5.74219 10.5762H4.42383V7.9149C6.39861 7.69559 7.93945 6.01667 7.93945 3.98438ZM0.878906 3.98438C0.878906 2.272 2.27203 0.878906 3.98438 0.878906C5.68058 0.878906 7.06055 2.272 7.06055 3.98438C7.06055 5.68058 5.68058 7.06055 3.98438 7.06055C2.27203 7.06055 0.878906 5.68058 0.878906 3.98438Z" fill="#639EB5"/>
  <path d="M11.4551 7.08472V3.28749L12.4627 4.2951C12.6343 4.46672 12.9126 4.46675 13.0842 4.2951C13.2558 4.12348 13.2558 3.84524 13.0842 3.67362L11.3264 1.91581C11.1548 1.74419 10.8765 1.74419 10.7049 1.91581L8.94709 3.67362C8.77547 3.84524 8.77547 4.12348 8.94709 4.2951C9.11868 4.46672 9.39694 4.46672 9.56856 4.2951L10.5762 3.28749V7.0851C8.60139 7.30441 7.06055 8.98333 7.06055 11.0156C7.06055 13.2126 8.83479 15 11.0156 15C13.2024 15 15 13.2018 15 11.0156C15 8.98222 13.446 7.30257 11.4551 7.08472ZM11.0156 14.1211C9.31942 14.1211 7.93945 12.728 7.93945 11.0156C7.93945 9.31942 9.31942 7.93945 11.0156 7.93945C12.728 7.93945 14.1211 9.31942 14.1211 11.0156C14.1211 12.728 12.728 14.1211 11.0156 14.1211Z" fill="#639EB5"/>
</svg>
