<svg width="13" height="7" viewBox="0 0 13 7" fill="none" xmlns="http://www.w3.org/2000/svg">
  <path d="M3.924 7L2.484 4.498H1.701V7H0.675V0.745H2.835C3.315 0.745 3.72 0.829 4.05 0.997C4.386 1.165 4.635 1.39 4.797 1.672C4.965 1.954 5.049 2.269 5.049 2.617C5.049 3.025 4.929 3.397 4.689 3.733C4.455 4.063 4.092 4.288 3.6 4.408L5.148 7H3.924ZM1.701 3.679H2.835C3.219 3.679 3.507 3.583 3.699 3.391C3.897 3.199 3.996 2.941 3.996 2.617C3.996 2.293 3.9 2.041 3.708 1.861C3.516 1.675 3.225 1.582 2.835 1.582H1.701V3.679ZM12.9495 0.745V7H11.9235V2.716L10.0155 7H9.30452L7.38752 2.716V7H6.36152V0.745H7.46852L9.66452 5.65L11.8515 0.745H12.9495Z" fill="#639EB5"/>
</svg>
