<svg width="15" height="15" viewBox="0 0 15 15" fill="none" xmlns="http://www.w3.org/2000/svg">
  <path d="M9.54713 4.63032L9.53442 4.62824C9.37469 4.60243 9.22437 4.71132 9.19874 4.87111C9.17316 5.03083 9.28188 5.18113 9.44163 5.20676L9.45189 5.20843C9.46803 5.2111 9.48405 5.21239 9.49988 5.21239C9.6407 5.21239 9.76492 5.11052 9.78856 4.96703C9.81487 4.80739 9.70677 4.65663 9.54713 4.63032Z" fill="#639EB5"/>
  <path d="M14.7011 8.33846C14.36 7.99733 13.8049 7.99733 13.4638 8.33846C13.3494 8.45287 13.3494 8.63838 13.4638 8.75281C13.5782 8.86721 13.7637 8.86721 13.8781 8.75281C13.9908 8.6401 14.1742 8.64013 14.2868 8.75281C14.4563 8.9222 14.4563 9.19783 14.2868 9.36725C14.1704 9.48368 14.0157 9.54778 13.851 9.54778C13.6864 9.54778 13.5316 9.48368 13.4152 9.36725C13.415 9.36708 13.4148 9.3669 13.4146 9.36673C13.4167 9.31042 13.418 9.25402 13.418 9.19739C13.418 7.38347 12.35 5.72761 10.6973 4.9789C10.5499 4.91217 10.3763 4.9775 10.3095 5.12486C10.2427 5.27225 10.3081 5.44587 10.4555 5.5126C11.8992 6.1666 12.8321 7.61296 12.8321 9.19736C12.8321 10.5788 12.1376 11.8506 10.9743 12.5994C10.8905 12.6534 10.8399 12.7462 10.8399 12.8458V14.2383C10.8399 14.3352 10.761 14.4141 10.6641 14.4141H9.25784C9.1609 14.4141 9.08206 14.3352 9.08206 14.2383V13.6612C9.08206 13.4291 8.89327 13.2403 8.66124 13.2403H5.6357C5.40363 13.2403 5.21485 13.4291 5.21485 13.6612V14.2383C5.21485 14.3352 5.13601 14.4141 5.03906 14.4141H3.63281C3.53587 14.4141 3.45703 14.3352 3.45703 14.2383V12.8458C3.45703 12.7462 3.40641 12.6534 3.32265 12.5995C2.48438 12.0598 1.87673 11.2358 1.61168 10.2792C1.57257 10.138 1.43514 10.0473 1.28988 10.0671C1.27512 10.0691 1.26073 10.0722 1.24679 10.0763H0.965889C0.756387 10.0763 0.585938 9.90582 0.585938 9.69632V8.69838C0.585938 8.48887 0.756387 8.31843 0.965889 8.31843H1.25051C1.26328 8.322 1.27641 8.3247 1.28985 8.32654C1.43511 8.34643 1.57251 8.25573 1.61165 8.11452C2.06722 6.47155 3.51545 5.28614 5.21543 5.16476C5.37683 5.15325 5.49832 5.01306 5.48681 4.85167C5.4753 4.69027 5.33493 4.56907 5.17371 4.58029C4.89425 4.60024 4.62091 4.6458 4.35583 4.71394C4.18635 3.92407 3.48302 3.33002 2.64328 3.33002H2.53187C2.37006 3.33002 2.2389 3.46118 2.2389 3.62299V5.92133C1.73745 6.4211 1.34742 7.03704 1.1158 7.73255H0.965889C0.433301 7.73255 0 8.16585 0 8.69844V9.69637C0 10.229 0.433301 10.6623 0.965889 10.6623H1.11609C1.43177 11.6102 2.04618 12.4301 2.87109 13.0024V14.2383C2.87109 14.6583 3.21281 15 3.63281 15H5.03906C5.45906 15 5.80078 14.6583 5.80078 14.2383V13.8263H8.4961V14.2383C8.4961 14.6583 8.83782 15 9.25782 15H10.6641C11.0841 15 11.4258 14.6583 11.4258 14.2383V13.0023C12.4473 12.2942 13.129 11.2234 13.3445 10.0223C13.5011 10.0952 13.6731 10.1337 13.851 10.1337C14.1721 10.1337 14.474 10.0086 14.7011 9.78154C15.099 9.38369 15.099 8.73634 14.7011 8.33846ZM2.82483 3.9301C3.32162 4.00815 3.71502 4.40114 3.79421 4.89752C3.44965 5.03512 3.12437 5.21302 2.82483 5.4263V3.9301Z" fill="#639EB5"/>
  <path d="M3.52415 7.29666C3.46965 7.24187 3.39407 7.21082 3.31702 7.21082C3.23967 7.21082 3.16438 7.24187 3.10989 7.29666C3.0554 7.35115 3.02405 7.42644 3.02405 7.50378C3.02405 7.58083 3.0554 7.65642 3.10989 7.71091C3.16438 7.76541 3.23997 7.79675 3.31702 7.79675C3.39407 7.79675 3.46965 7.76541 3.52415 7.71091C3.57864 7.65613 3.60999 7.58083 3.60999 7.50378C3.60999 7.42673 3.57864 7.35115 3.52415 7.29666Z" fill="#639EB5"/>
  <path d="M8.91448 6.24023H5.58752C5.42572 6.24023 5.29456 6.3714 5.29456 6.5332C5.29456 6.69501 5.42572 6.82617 5.58752 6.82617H8.91448C9.07628 6.82617 9.20745 6.69501 9.20745 6.5332C9.20745 6.3714 9.07628 6.24023 8.91448 6.24023Z" fill="#639EB5"/>
  <path d="M7.25098 2.53693C6.3948 2.53693 5.69824 3.23349 5.69824 4.08966C5.69824 4.94583 6.3948 5.6424 7.25098 5.6424C8.10715 5.6424 8.80371 4.94583 8.80371 4.08966C8.80371 3.23349 8.10715 2.53693 7.25098 2.53693ZM7.25098 5.05646C6.71789 5.05646 6.28418 4.62275 6.28418 4.08966C6.28418 3.55657 6.71789 3.12286 7.25098 3.12286C7.78406 3.12286 8.21777 3.55657 8.21777 4.08966C8.21777 4.62275 7.78406 5.05646 7.25098 5.05646Z" fill="#639EB5"/>
  <path d="M7.25046 0C7.08865 0 6.95749 0.131162 6.95749 0.292969V1.55681C6.95749 1.71861 7.08868 1.84978 7.25046 1.84978C7.41226 1.84978 7.54343 1.71861 7.54343 1.55681V0.292969C7.54343 0.131162 7.41226 0 7.25046 0Z" fill="#639EB5"/>
  <path d="M9.89316 1.13317C9.77875 1.01876 9.59324 1.01876 9.47881 1.13317L8.70726 1.9047C8.59286 2.0191 8.59286 2.20461 8.70726 2.31905C8.76448 2.37626 8.83948 2.40486 8.91445 2.40486C8.98943 2.40486 9.06443 2.37626 9.12161 2.31905L9.89316 1.54751C10.0076 1.43311 10.0076 1.2476 9.89316 1.13317Z" fill="#639EB5"/>
  <path d="M5.79463 1.90323L5.0231 1.1317C4.90869 1.0173 4.72319 1.0173 4.60875 1.1317C4.49435 1.24611 4.49435 1.43161 4.60875 1.54605L5.38031 2.31758C5.43753 2.3748 5.5125 2.40339 5.58747 2.40339C5.66244 2.40339 5.73744 2.3748 5.79463 2.31758C5.90904 2.20318 5.90904 2.01767 5.79463 1.90323Z" fill="#639EB5"/>
  <path d="M5.09101 9.01538H4.07159C3.90979 9.01538 3.77863 9.14654 3.77863 9.30835C3.77863 9.47016 3.90979 9.60132 4.07159 9.60132H4.28833V11.182C4.28833 11.3438 4.41949 11.475 4.5813 11.475C4.74311 11.475 4.87427 11.3438 4.87427 11.182V9.60132H5.09101C5.25282 9.60132 5.38398 9.47016 5.38398 9.30835C5.38398 9.14654 5.25282 9.01538 5.09101 9.01538Z" fill="#639EB5"/>
  <path d="M7.85079 11.0695L7.07589 9.20989C7.03042 9.10071 6.92375 9.0296 6.80547 9.0296C6.6872 9.0296 6.58053 9.10071 6.53506 9.20989L5.76016 11.0695C5.69793 11.2189 5.76857 11.3904 5.91792 11.4526C6.06725 11.5149 6.23881 11.4443 6.30104 11.2949L6.34586 11.1873H7.26508L7.30991 11.2949C7.35681 11.4074 7.46571 11.4753 7.58047 11.4752C7.61803 11.4752 7.6562 11.468 7.69303 11.4526C7.84238 11.3904 7.91302 11.2189 7.85079 11.0695ZM6.59002 10.6014L6.80547 10.0843L7.02092 10.6014H6.59002Z" fill="#639EB5"/>
  <path d="M9.8177 10.2456L10.3235 9.46787C10.4117 9.33223 10.3732 9.15076 10.2376 9.06255C10.1019 8.97431 9.92044 9.0128 9.83226 9.14845L9.46821 9.70825L9.10417 9.14845C9.01596 9.0128 8.83449 8.97433 8.69885 9.06255C8.5632 9.15076 8.52477 9.33223 8.61295 9.46787L9.11873 10.2456L8.61295 11.0234C8.52474 11.1591 8.5632 11.3405 8.69885 11.4287C8.74818 11.4608 8.80356 11.4761 8.85828 11.4761C8.95411 11.4761 9.04804 11.4292 9.10417 11.3429L9.46821 10.7831L9.83226 11.3429C9.88842 11.4292 9.98232 11.4761 10.0781 11.4761C10.1329 11.4761 10.1883 11.4608 10.2376 11.4287C10.3732 11.3405 10.4117 11.1591 10.3235 11.0234L9.8177 10.2456Z" fill="#639EB5"/>
</svg>
