<svg width="15" height="14" viewBox="0 0 15 14" fill="none" xmlns="http://www.w3.org/2000/svg">
    <path d="M14.7942 11.5549L8.50914 0.668794C8.26367 0.243759 7.89585 0 7.5 0C7.10403 0 6.73622 0.243759 6.49086 0.668794L0.205754 11.5549C-0.0396073 11.9798 -0.0668443 12.4203 0.131139 12.7632C0.329007 13.106 0.724058 13.3026 1.21478 13.3026H13.7851C14.2759 13.3026 14.6709 13.106 14.8689 12.7632C15.0668 12.4202 15.0396 11.9798 14.7942 11.5549ZM14.1077 12.3236C14.0789 12.3734 13.968 12.4236 13.7851 12.4236H1.2149C1.0319 12.4236 0.921126 12.3735 0.892401 12.3236C0.863562 12.2738 0.875578 12.1527 0.967017 11.9943L7.25212 1.10825C7.34356 0.949861 7.44244 0.879022 7.49989 0.879022C7.55745 0.879022 7.65644 0.949861 7.74788 1.10825L14.033 11.9943C14.1244 12.1527 14.1364 12.2738 14.1077 12.3236Z" fill="#639EB5"/>
    <path d="M7.49998 9.5992C6.86826 9.5992 6.35431 10.1132 6.35431 10.7449C6.35431 11.3765 6.86826 11.8904 7.49998 11.8904C8.13169 11.8904 8.64565 11.3765 8.64565 10.7449C8.64565 10.1132 8.13169 9.5992 7.49998 9.5992ZM7.49998 11.0114C7.35292 11.0114 7.23333 10.8918 7.23333 10.7448C7.23333 10.5978 7.35292 10.4782 7.49998 10.4782C7.64704 10.4782 7.76663 10.5978 7.76663 10.7448C7.76663 10.8918 7.64704 11.0114 7.49998 11.0114Z" fill="#639EB5"/>
    <path d="M7.49998 2.91458C6.86826 2.91458 6.35431 3.42854 6.35431 4.06025V7.92035C6.35431 8.55206 6.86826 9.0659 7.49998 9.0659C8.13169 9.0659 8.64565 8.55206 8.64565 7.92035V4.06025C8.64565 3.42854 8.13169 2.91458 7.49998 2.91458ZM7.76663 7.92035C7.76663 8.06741 7.64704 8.187 7.49998 8.187C7.35292 8.187 7.23333 8.06741 7.23333 7.92035V4.06025C7.23333 3.91319 7.35292 3.7936 7.49998 3.7936C7.64704 3.7936 7.76663 3.91319 7.76663 4.06025V7.92035Z" fill="#639EB5"/>
</svg>
