<svg width="15" height="12" viewBox="0 0 15 12" fill="none" xmlns="http://www.w3.org/2000/svg">
  <path d="M13.5937 0H1.40626C0.6308 0 0 0.6308 0 1.40626V9.84376C0 10.6192 0.6308 11.25 1.40626 11.25H13.5937C14.3692 11.25 15 10.6192 15 9.84376V1.40626C15 0.6308 14.3692 0 13.5937 0ZM13.5937 0.937496C13.6574 0.937496 13.718 0.95071 13.7734 0.973786L7.5 6.41099L1.22656 0.973786C1.28195 0.950741 1.34254 0.937496 1.40623 0.937496H13.5937ZM13.5937 10.3125H1.40626C1.14763 10.3125 0.937496 10.1024 0.937496 9.84373V1.96426L7.19283 7.38556C7.2812 7.46199 7.3906 7.5 7.5 7.5C7.6094 7.5 7.7188 7.46202 7.80717 7.38556L14.0625 1.96426V9.84376C14.0625 10.1024 13.8524 10.3125 13.5937 10.3125Z" fill="#639EB5"/>
</svg>
