<svg width="15" height="14" viewBox="0 0 15 14" fill="none" xmlns="http://www.w3.org/2000/svg">
  <path d="M14.5605 2.64771H10.5872V1.77442C10.5872 0.795996 9.79113 0 8.81273 0H6.18729C5.2089 0 4.41287 0.795996 4.41287 1.77442V2.64771H0.439453C0.196758 2.64771 0 2.84446 0 3.08716V11.0706C0 12.264 0.970928 13.2349 2.16431 13.2349H12.8357C14.0291 13.2349 15 12.264 15 11.0706V3.08716C15 2.84446 14.8032 2.64771 14.5605 2.64771ZM8.49712 8.38257C8.49712 8.93238 8.04979 9.37969 7.5 9.37969C6.95021 9.37969 6.50288 8.93238 6.50288 8.38257V7.38545H8.49712V8.38257ZM8.93657 6.50654H6.06343C5.82073 6.50654 5.62397 6.7033 5.62397 6.946V7.74425C3.06847 7.1896 1.15277 5.53204 0.906299 3.52661H14.0937C13.8472 5.53204 11.9315 7.1896 9.37603 7.74428V6.94603C9.37603 6.7033 9.17927 6.50654 8.93657 6.50654ZM5.29175 1.77442C5.29175 1.28063 5.6935 0.878906 6.18727 0.878906H8.81271C9.30647 0.878906 9.70822 1.28063 9.70822 1.77442V2.64771H5.29172V1.77442H5.29175ZM14.1211 11.0706C14.1211 11.7793 13.5444 12.356 12.8357 12.356H2.16431C1.45556 12.356 0.878906 11.7793 0.878906 11.0706V5.79284C1.23369 6.30018 1.69113 6.76866 2.24376 7.18312C3.20139 7.90134 4.37048 8.39997 5.64284 8.64598C5.77134 9.55608 6.55497 10.2586 7.5 10.2586C8.44503 10.2586 9.22866 9.55608 9.35716 8.64598C10.6295 8.39997 11.7986 7.90134 12.7562 7.18312C13.3089 6.76866 13.7663 6.30015 14.1211 5.79284V11.0706Z" fill="#639EB5"/>
</svg>
