<svg width="15" height="15" viewBox="0 0 15 15" fill="none" xmlns="http://www.w3.org/2000/svg">
  <path d="M10.7805 15C10.2963 15 9.81619 14.9144 9.34673 14.7438C7.2785 13.9925 5.35875 12.7688 3.79494 11.2051C2.23113 9.64129 1.00744 7.72152 0.25615 5.6533C0.014723 4.98864 -0.0565244 4.30254 0.0444582 3.61397C0.139054 2.969 0.388889 2.34286 0.766981 1.80324C1.14674 1.26124 1.65303 0.810435 2.2311 0.499579C2.84754 0.168099 3.52038 0 4.23098 0C4.45198 0 4.64299 0.154417 4.68931 0.370502L5.42504 3.80393C5.45835 3.9594 5.41057 4.12117 5.29816 4.23361L4.04099 5.49074C5.22695 7.84863 7.15133 9.77301 9.50923 10.959L10.7664 9.70179C10.8788 9.58938 11.0406 9.54166 11.1961 9.57491L14.6295 10.3106C14.8456 10.357 15 10.548 15 10.769C15 11.4796 14.8319 12.1524 14.5004 12.7689C14.1895 13.3469 13.7387 13.8532 13.1967 14.233C12.6571 14.6111 12.031 14.8609 11.386 14.9555C11.1839 14.9852 10.9818 15 10.7805 15ZM3.85646 0.957969C2.91914 1.06144 2.0872 1.55273 1.53474 2.34122C0.913489 3.22786 0.768621 4.31839 1.13728 5.33325C2.58168 9.30943 5.69058 12.4183 9.66679 13.8627C10.6816 14.2314 11.7722 14.0865 12.6588 13.4653C13.4473 12.9128 13.9386 12.0809 14.0421 11.1435L11.249 10.545L9.93607 11.858C9.79636 11.9977 9.58408 12.0348 9.40532 11.9508C6.61665 10.6407 4.35935 8.38337 3.04924 5.59471C2.96525 5.41592 3.00234 5.20364 3.14205 5.06396L4.45497 3.75105L3.85646 0.957969Z" fill="#639EB5"/>
</svg>
