<svg width="14" height="9" viewBox="0 0 14 9" fill="none" xmlns="http://www.w3.org/2000/svg">
    <path d="M4.36 8L2.76 5.22H1.89V8H0.75V1.05H3.15C3.68333 1.05 4.13333 1.14333 4.5 1.33C4.87333 1.51667 5.15 1.76667 5.33 2.08C5.51667 2.39333 5.61 2.74333 5.61 3.13C5.61 3.58333 5.47667 3.99667 5.21 4.37C4.95 4.73667 4.54667 4.98667 4 5.12L5.72 8H4.36ZM1.89 4.31H3.15C3.57667 4.31 3.89667 4.20333 4.11 3.99C4.33 3.77667 4.44 3.49 4.44 3.13C4.44 2.77 4.33333 2.49 4.12 2.29C3.90667 2.08333 3.58333 1.98 3.15 1.98H1.89V4.31ZM6.68836 4.51C6.68836 3.83 6.84503 3.22 7.15836 2.68C7.47836 2.14 7.90836 1.72 8.44836 1.42C8.99503 1.11333 9.59169 0.959999 10.2384 0.959999C10.9784 0.959999 11.635 1.14333 12.2084 1.51C12.7884 1.87 13.2084 2.38333 13.4684 3.05H12.0984C11.9184 2.68333 11.6684 2.41 11.3484 2.23C11.0284 2.05 10.6584 1.96 10.2384 1.96C9.77836 1.96 9.36836 2.06333 9.00836 2.27C8.64836 2.47667 8.36503 2.77333 8.15836 3.16C7.95836 3.54667 7.85836 3.99667 7.85836 4.51C7.85836 5.02333 7.95836 5.47333 8.15836 5.86C8.36503 6.24667 8.64836 6.54667 9.00836 6.76C9.36836 6.96667 9.77836 7.07 10.2384 7.07C10.6584 7.07 11.0284 6.98 11.3484 6.8C11.6684 6.62 11.9184 6.34667 12.0984 5.98H13.4684C13.2084 6.64667 12.7884 7.16 12.2084 7.52C11.635 7.88 10.9784 8.06 10.2384 8.06C9.58503 8.06 8.98836 7.91 8.44836 7.61C7.90836 7.30333 7.47836 6.88 7.15836 6.34C6.84503 5.8 6.68836 5.19 6.68836 4.51Z" fill="#639EB5"/>
</svg>
