<svg width="50" height="50" viewBox="0 0 50 50" fill="none" xmlns="http://www.w3.org/2000/svg">
  <rect width="50" height="50" rx="25" fill="#00ADEF"/>
  <path d="M32.7685 25.2904L27.7095 20.2315C27.4009 19.9228 26.9003 19.9228 26.5917 20.2315C26.2829 20.5402 26.2829 21.0407 26.5917 21.3494L30.3012 25.0589H16.7905C16.3539 25.0589 16 25.4128 16 25.8494C16 26.2858 16.3539 26.6398 16.7905 26.6398H30.3012L26.5918 30.3493C26.2831 30.658 26.2831 31.1585 26.5918 31.4672C26.7461 31.6214 26.9484 31.6987 27.1507 31.6987C27.353 31.6987 27.5553 31.6214 27.7097 31.4672L32.7685 26.4083C33.0772 26.0996 33.0772 25.5991 32.7685 25.2904Z" fill="white"/>
</svg>
