<svg width="25" height="25" viewBox="0 0 25 25" fill="none" xmlns="http://www.w3.org/2000/svg">
  <circle cx="12.5" cy="12.5" r="12.5" fill="#F0FBFF"/>
  <path d="M11.6802 12.2573L14.8641 9.07321C14.9518 8.98575 15 8.86881 15 8.74412C15 8.61936 14.9518 8.50249 14.8641 8.41489L14.5851 8.13604C14.4976 8.0483 14.3806 8 14.2559 8C14.1312 8 14.0143 8.0483 13.9267 8.13604L10.1358 11.9269C10.0478 12.0148 9.99966 12.1322 10 12.2571C9.99966 12.3824 10.0477 12.4997 10.1358 12.5877L13.9232 16.3749C14.0108 16.4626 14.1277 16.5109 14.2524 16.5109C14.3771 16.5109 14.494 16.4626 14.5816 16.3749L14.8606 16.096C15.0421 15.9145 15.0421 15.6191 14.8606 15.4377L11.6802 12.2573Z" fill="#059FD5"/>
</svg>
