<svg width="25" height="25" viewBox="0 0 25 25" fill="none" xmlns="http://www.w3.org/2000/svg">
<circle cx="12.5" cy="12.5" r="12.5" transform="rotate(-180 12.5 12.5)" fill="#F0FBFF"/>
<path d="M13.3198 12.7427L10.1359 15.9268C10.0482 16.0143 10 16.1312 10 16.2559C10 16.3806 10.0482 16.4975 10.1359 16.5851L10.4149 16.864C10.5024 16.9517 10.6194 17 10.7441 17C10.8688 17 10.9857 16.9517 11.0733 16.864L14.8642 13.0731C14.9522 12.9852 15.0003 12.8678 15 12.7429C15.0003 12.6176 14.9523 12.5003 14.8642 12.4123L11.0768 8.62511C10.9892 8.53737 10.8723 8.48907 10.7476 8.48907C10.6229 8.48907 10.506 8.53737 10.4184 8.62511L10.1394 8.90396C9.95793 9.08546 9.95793 9.38092 10.1394 9.56235L13.3198 12.7427Z" fill="#059FD5"/>
</svg>
