<svg width="10" height="18" viewBox="0 0 10 18" fill="none" xmlns="http://www.w3.org/2000/svg">
  <path d="M6.63963 8.50745L0.271796 14.8756C0.0964575 15.0505 9.53674e-07 15.2844 9.53674e-07 15.5337C9.53674e-07 15.7833 0.0964575 16.017 0.271796 16.1922L0.829781 16.7499C1.00484 16.9254 1.23886 17.022 1.48824 17.022C1.73761 17.022 1.97135 16.9254 2.14655 16.7499L9.72848 9.16812C9.90437 8.99236 10.0007 8.75751 10 8.50786C10.0007 8.2571 9.90451 8.02253 9.72848 7.84664L2.15361 0.272188C1.97841 0.0967121 1.74467 0.000116348 1.49516 0.000116348C1.24578 0.000116348 1.01204 0.0967121 0.8367 0.272188L0.278854 0.829897C-0.0841398 1.19289 -0.0841398 1.78381 0.278854 2.14667L6.63963 8.50745Z" fill="#00ADEF"/>
</svg>
