<svg width="10" height="18" viewBox="0 0 10 18" fill="none" xmlns="http://www.w3.org/2000/svg">
<path d="M3.36037 8.51453L9.7282 2.14641C9.90354 1.97149 10 1.73761 10 1.48824C10 1.23872 9.90354 1.00498 9.7282 0.829781L9.17022 0.272073C8.99516 0.0965956 8.76114 0 8.51176 0C8.26239 0 8.02865 0.0965956 7.85345 0.272073L0.271523 7.85386C0.0956306 8.02961 -0.000688238 8.26446 3.70763e-06 8.51411C-0.000688238 8.76487 0.0954922 8.99944 0.271523 9.17533L7.84639 16.7498C8.02159 16.9253 8.25533 17.0219 8.50484 17.0219C8.75422 17.0219 8.98796 16.9253 9.1633 16.7498L9.72115 16.1921C10.0841 15.8291 10.0841 15.2382 9.72115 14.8753L3.36037 8.51453Z" fill="#00ADEF"/>
</svg>
