<svg width="17" height="17" viewBox="0 0 17 17" fill="none" xmlns="http://www.w3.org/2000/svg">
  <path d="M6.21908 8.39097C6.4862 8.77752 6.40634 8.45541 6.40634 16.1604C6.40634 16.8499 7.19299 17.2445 7.74742 16.8321C10.1166 15.0459 10.5899 14.8912 10.5899 14.0557C10.5899 8.4409 10.5245 8.75667 10.7772 8.39097L14.6244 3.15424H2.3719L6.21908 8.39097Z" fill="#059FD5"/>
  <path d="M16.0776 0.426992C15.9402 0.163691 15.6706 0 15.3738 0H1.6225C0.981515 0 0.604361 0.723064 0.972052 1.24844C0.975074 1.25348 0.930316 1.19222 1.6401 2.1582H15.3561C15.961 1.335 16.3653 0.979326 16.0776 0.426992Z" fill="#059FD5"/>
</svg>
