<svg width="66" height="26" viewBox="0 0 66 26" fill="none" xmlns="http://www.w3.org/2000/svg">
 <path d="M8.15856 18.0587C7.93413 18.6804 7.75438 19.2033 7.72681 19.2649C7.65679 19.4209 7.14067 19.3943 6.96532 19.4666C6.65472 19.8975 6.46568 20.4077 6.41888 20.9413C6.77928 21.0124 7.15254 20.9573 7.47868 20.7847C7.8296 20.5696 8.16071 20.3221 8.46789 20.0454C9.0405 19.1134 9.55454 18.145 10.0069 17.1459C9.41372 17.4971 8.79571 17.8023 8.15801 18.0587" fill="white"/>
 <path d="M7.6606 11.6955C7.85499 11.1093 8.16212 10.5691 8.56379 10.1067C8.09529 10.4098 7.57792 10.6251 7.03586 10.7426C5.75496 10.9946 4.32958 10.4334 2.21661 11.5463C0.156574 12.6326 -0.154412 15.0619 0.0567748 15.1976C0.248111 15.3197 0.100883 14.1152 2.76801 13.4991C4.47339 13.1373 6.12035 12.5303 7.66005 11.6961" fill="white"/>
 <path d="M29.2463 1.14627C29.4161 0.788545 29.5424 0.410784 29.6224 0.0214844C29.1767 0.0351699 28.7344 0.105413 28.3056 0.230612C28.1374 0.258873 21.509 -1.23895 17.529 5.73696C19.4369 5.36505 20.1206 5.48827 19.4468 5.6714C19.1237 5.75901 15.1977 6.80184 13.903 7.1517C10.9111 7.96166 8.06147 9.51827 8.06147 12.874C8.06147 14.4424 8.47887 15.0704 7.60215 15.7944C7.03089 16.2658 5.22671 16.6909 5.14124 16.939C5.05577 17.1871 3.66735 20.9724 3.58133 21.1623C3.49531 21.3522 2.90862 21.2799 2.69468 21.368C2.48073 21.4562 1.88301 23.0569 2.02693 23.1734C2.46805 23.2612 2.92519 23.1932 3.32382 22.9806C3.74042 22.7245 4.12755 22.4212 4.4779 22.0763C4.7911 21.7699 5.58456 19.5927 6.32896 18.5651C6.7461 18.0613 7.33049 17.7337 7.96938 17.6455C11.2486 16.7237 13.4354 14.2474 13.7266 11.865C13.8115 11.1681 13.9637 10.6577 14.0056 11.4993C14.0327 12.003 14.0073 12.5081 13.93 13.0062C14.9623 12.6801 17.1282 12.7349 18.8336 12.3918C19.8118 12.2427 20.7581 11.9247 21.6326 11.4513C23.4687 11.2495 23.4136 11.2529 22.9824 11.9521C22.699 12.4099 22.1608 13.2397 22.034 13.4997C21.8559 13.8648 22.0014 13.8552 21.9855 14.0027C21.9684 14.1643 21.6745 14.4826 21.4374 14.3283C21.411 14.3082 21.3809 14.2939 21.349 14.2862C21.317 14.2785 21.2838 14.2776 21.2515 14.2836C21.0282 14.3116 20.8193 14.4115 20.6549 14.569C20.4586 14.9947 20.779 16.1822 20.9764 16.0867C21.2482 15.9567 21.9722 15.5373 22.41 15.2507C22.5914 15.132 24.609 11.2987 24.5809 10.9777C24.5484 10.6255 24.2622 9.96026 23.7235 9.88679C22.9598 9.78618 20.6577 9.51827 20.6577 9.47192C20.6577 9.34531 22.1911 9.35888 23.7577 9.51318C25.2652 7.65701 25.5988 4.71844 26.3492 4.63648C26.652 4.60144 27.4134 5.44362 28.2036 6.36718C28.2355 6.57737 28.2872 6.78388 28.358 6.98383C28.623 7.16135 28.9305 7.26086 29.2469 7.27153C29.4189 7.24439 30.0944 6.66562 30.1208 6.44857C30.1396 6.30783 29.248 1.144 29.248 1.144" fill="white"/>
 <path d="M27.2916 8.67272C27.022 8.63711 25.7659 8.47432 24.8737 8.36298C24.6711 8.81001 24.4382 9.24194 24.1768 9.65562C24.3904 9.75783 24.5756 9.9133 24.7155 10.1078L24.8759 10.0937C26.4982 9.9569 26.8445 9.9015 26.7049 10.1858C26.6675 10.2666 26.6007 10.3712 26.518 10.5057C26.2649 10.9144 25.7852 11.6542 25.6722 11.8871C25.5128 12.2121 25.6429 12.2042 25.6292 12.3353C25.6132 12.4778 25.3535 12.7626 25.1401 12.6253C25.1164 12.6078 25.0896 12.5953 25.0612 12.5885C25.0328 12.5817 25.0034 12.5808 24.9746 12.5857C24.7754 12.611 24.589 12.7 24.442 12.8401C24.2666 13.2199 24.5523 14.2808 24.7298 14.1966C24.9719 14.0802 25.6181 13.7054 26.008 13.4505C26.6902 12.3449 27.2982 11.193 27.8276 10.0027C27.8885 9.88524 27.9299 9.7582 27.95 9.6268C27.9315 9.42226 27.8605 9.22639 27.7443 9.05903C27.6281 8.89167 27.4708 8.75877 27.2883 8.67384" fill="white"/>
 <path d="M21.5515 21.1058C21.55 21.0253 21.5641 20.9454 21.5932 20.8706C21.6222 20.7958 21.6656 20.7278 21.7206 20.6704C21.7757 20.6131 21.8414 20.5676 21.9139 20.5367C21.9864 20.5057 22.0641 20.4899 22.1426 20.4903C22.2216 20.4898 22.2998 20.5054 22.3729 20.5362C22.4459 20.567 22.5122 20.6123 22.568 20.6696C22.6238 20.7268 22.668 20.7949 22.6979 20.8697C22.7279 20.9446 22.7431 21.0249 22.7425 21.1058V21.368C22.9117 21.0825 23.1503 20.8468 23.4349 20.684C23.7195 20.5212 24.0405 20.4369 24.3664 20.4394C25.5387 20.4394 26.2175 21.2465 26.2175 22.4781V25.3229C26.2189 25.4027 26.2046 25.4821 26.1755 25.5562C26.1463 25.6303 26.103 25.6976 26.0479 25.7541C25.9928 25.8107 25.9273 25.8553 25.855 25.8853C25.7828 25.9153 25.7054 25.9301 25.6275 25.9288C25.549 25.9303 25.4711 25.9157 25.3982 25.8859C25.3254 25.8561 25.259 25.8117 25.2031 25.7552C25.1472 25.6988 25.1029 25.6315 25.0728 25.5572C25.0426 25.483 25.0273 25.4033 25.0276 25.3229V22.8506C25.0276 22.0226 24.6234 21.5506 23.9148 21.5506C23.7498 21.5474 23.586 21.5804 23.4345 21.6474C23.2829 21.7144 23.1471 21.8138 23.0361 21.939C22.9251 22.0642 22.8414 22.2123 22.7908 22.3733C22.7402 22.5343 22.7237 22.7046 22.7425 22.8727V25.3246C22.7425 25.4865 22.6798 25.6419 22.568 25.7564C22.4563 25.8709 22.3048 25.9353 22.1468 25.9353C21.9887 25.9353 21.8372 25.8709 21.7255 25.7564C21.6137 25.6419 21.551 25.4865 21.551 25.3246L21.5515 21.1058Z" fill="white"/>
 <path d="M19.9668 25.3144C19.9684 25.3948 19.9543 25.4748 19.9253 25.5496C19.8963 25.6244 19.8531 25.6925 19.798 25.7499C19.743 25.8073 19.6774 25.8528 19.6049 25.8839C19.5325 25.9149 19.4547 25.9307 19.3762 25.9305C19.2972 25.9309 19.219 25.9152 19.146 25.8843C19.0729 25.8535 19.0066 25.8081 18.9508 25.7508C18.895 25.6935 18.8509 25.6254 18.8209 25.5505C18.7909 25.4756 18.7758 25.3953 18.7763 25.3144V25.0516C18.6072 25.3375 18.3685 25.5734 18.0836 25.7362C17.7987 25.899 17.4775 25.9831 17.1513 25.9802C15.9801 25.9802 15.3008 25.1737 15.3008 23.9454V21.099C15.2994 21.0191 15.3137 20.9397 15.3429 20.8656C15.372 20.7915 15.4155 20.7242 15.4706 20.6677C15.5257 20.6112 15.5914 20.5667 15.6637 20.5368C15.736 20.5069 15.8134 20.4922 15.8914 20.4936C15.9698 20.4919 16.0479 20.5063 16.1208 20.536C16.1938 20.5657 16.2602 20.61 16.3162 20.6664C16.3722 20.7229 16.4165 20.7902 16.4467 20.8645C16.4769 20.9388 16.4922 21.0185 16.4918 21.099V23.5701C16.4918 24.3965 16.896 24.8701 17.6046 24.8701C17.7696 24.8733 17.9335 24.8402 18.085 24.7731C18.2366 24.706 18.3724 24.6065 18.4834 24.4812C18.5944 24.3558 18.6779 24.2077 18.7284 24.0465C18.779 23.8854 18.7953 23.7151 18.7763 23.5469V21.0956C18.7763 20.9337 18.839 20.7784 18.9507 20.664C19.0624 20.5495 19.2139 20.4852 19.3718 20.4852C19.5297 20.4852 19.6812 20.5495 19.7929 20.664C19.9046 20.7784 19.9673 20.9337 19.9673 21.0956L19.9668 25.3144Z" fill="white"/>
 <path d="M27.8226 21.1063C27.8211 21.0258 27.8352 20.9458 27.8643 20.871C27.8934 20.7962 27.9368 20.7281 27.9919 20.6708C28.047 20.6134 28.1128 20.5679 28.1854 20.537C28.2579 20.5061 28.3357 20.4904 28.4143 20.4908C28.4933 20.4903 28.5715 20.506 28.6446 20.5367C28.7176 20.5675 28.784 20.6128 28.8398 20.6701C28.8957 20.7273 28.9399 20.7953 28.97 20.8702C29 20.9451 29.0152 21.0254 29.0147 21.1063V25.3223C29.01 25.481 28.9452 25.6317 28.834 25.7422C28.7228 25.8528 28.5739 25.9147 28.419 25.9147C28.264 25.9147 28.1151 25.8528 28.0039 25.7422C27.8927 25.6317 27.8279 25.481 27.8232 25.3223L27.8226 21.1063Z" fill="white"/>
 <path d="M30.3822 23.2446V23.2225C30.3998 22.4828 30.6982 21.7793 31.2139 21.2615C31.7296 20.7438 32.4221 20.4526 33.1439 20.45C33.8658 20.4473 34.5602 20.7334 35.0795 21.2473C35.5988 21.7613 35.9021 22.4626 35.9249 23.2022V23.2225C35.9237 23.5934 35.8502 23.9603 35.7088 24.3017C35.5674 24.643 35.3609 24.952 35.1014 25.2105C34.8419 25.4689 34.5347 25.6717 34.1978 25.8068C33.8608 25.9419 33.5009 26.0066 33.1392 25.9972C32.7805 26.0065 32.4235 25.9422 32.0894 25.8079C31.7553 25.6736 31.4509 25.4722 31.1939 25.2154C30.937 24.9586 30.7328 24.6517 30.5934 24.3127C30.454 23.9737 30.3822 23.6096 30.3822 23.2417V23.2446ZM34.7344 23.2417V23.2225C34.7435 23.0016 34.709 22.781 34.633 22.5739C34.5571 22.3669 34.4413 22.1777 34.2925 22.0175C34.1436 21.8574 33.9649 21.7296 33.7668 21.6418C33.5688 21.554 33.3555 21.508 33.1398 21.5065C32.9263 21.5054 32.7148 21.5491 32.5184 21.6351C32.3221 21.7211 32.145 21.8475 31.9982 22.0064C31.8514 22.1654 31.738 22.3535 31.665 22.5592C31.592 22.7649 31.561 22.9837 31.5738 23.2022V23.2225C31.5655 23.442 31.6003 23.661 31.676 23.8665C31.7518 24.072 31.867 24.2598 32.0148 24.4188C32.1626 24.5779 32.34 24.7049 32.5366 24.7924C32.7331 24.88 32.9448 24.9262 33.1591 24.9284C33.3723 24.9308 33.5839 24.8884 33.7805 24.8038C33.9772 24.7191 34.1548 24.594 34.3024 24.4362C34.45 24.2784 34.5644 24.0912 34.6386 23.8863C34.7129 23.6813 34.7453 23.4629 34.7339 23.2446L34.7344 23.2417Z" fill="white"/>
 <path d="M37.2339 21.1058C37.2324 21.0254 37.2466 20.9455 37.2756 20.8707C37.3046 20.796 37.3478 20.728 37.4029 20.6706C37.4579 20.6133 37.5235 20.5678 37.5959 20.5368C37.6683 20.5059 37.7461 20.49 37.8245 20.4903C37.9035 20.4897 37.9818 20.5053 38.0549 20.536C38.128 20.5668 38.1944 20.6121 38.2502 20.6694C38.3061 20.7266 38.3503 20.7947 38.3803 20.8696C38.4103 20.9445 38.4255 21.0248 38.425 21.1058V21.368C38.5941 21.0824 38.8327 20.8467 39.1173 20.6839C39.4019 20.5211 39.7229 20.4369 40.0489 20.4394C41.2217 20.4394 41.9005 21.2465 41.9005 22.4781V25.3229C41.9018 25.4028 41.8874 25.4822 41.8582 25.5564C41.829 25.6305 41.7855 25.6978 41.7303 25.7544C41.6752 25.8109 41.6095 25.8555 41.5371 25.8855C41.4648 25.9154 41.3873 25.9302 41.3093 25.9288C41.2308 25.9304 41.1528 25.9158 41.0799 25.8861C41.007 25.8563 40.9406 25.8119 40.8846 25.7554C40.8287 25.699 40.7843 25.6316 40.7541 25.5574C40.7239 25.4831 40.7086 25.4033 40.7089 25.3229V22.8506C40.7089 22.0226 40.3058 21.5506 39.5972 21.5506C39.4322 21.5474 39.2685 21.5804 39.1169 21.6474C38.9653 21.7144 38.8295 21.8138 38.7185 21.939C38.6075 22.0642 38.5239 22.2123 38.4732 22.3733C38.4226 22.5343 38.4062 22.7046 38.425 22.8727V25.3246C38.425 25.4865 38.3622 25.6419 38.2505 25.7564C38.1388 25.8709 37.9872 25.9353 37.8292 25.9353C37.6712 25.9353 37.5196 25.8709 37.4079 25.7564C37.2962 25.6419 37.2334 25.4865 37.2334 25.3246L37.2339 21.1058Z" fill="white"/>
 <path d="M43.7344 19.3982C43.7322 19.3654 43.7368 19.3324 43.7478 19.3014C43.7588 19.2705 43.776 19.2422 43.7983 19.2185C43.8205 19.1948 43.8474 19.1761 43.8771 19.1636C43.9069 19.1511 43.9389 19.1452 43.971 19.1461C44.0036 19.145 44.036 19.1508 44.0663 19.1631C44.0966 19.1753 44.1242 19.1939 44.1473 19.2175C44.1703 19.2412 44.1884 19.2694 44.2004 19.3005C44.2123 19.3315 44.218 19.3648 44.2169 19.3982V21.8117C44.4234 21.4334 44.7229 21.1171 45.0855 20.894C45.4481 20.6709 45.8613 20.5489 46.2841 20.54C46.617 20.5468 46.9453 20.622 47.2494 20.761C47.5535 20.9 47.8274 21.1001 48.0549 21.3494C48.2824 21.5987 48.4588 21.8922 48.5738 22.2125C48.6889 22.5329 48.7401 22.8736 48.7246 23.2146V23.2355C48.7403 23.5775 48.6894 23.9193 48.5747 24.2408C48.4599 24.5624 48.2838 24.8573 48.0565 25.1082C47.8292 25.3591 47.5554 25.561 47.2511 25.7021C46.9467 25.8432 46.618 25.9206 46.2841 25.9299C45.8649 25.9263 45.4538 25.8109 45.0914 25.5951C44.7289 25.3792 44.4275 25.0703 44.2169 24.6988V25.5987C44.2183 25.6313 44.2132 25.6639 44.202 25.6944C44.1908 25.725 44.1736 25.7529 44.1516 25.7765C44.1295 25.8001 44.103 25.8188 44.0737 25.8316C44.0443 25.8443 44.0128 25.8508 43.9809 25.8507C43.9485 25.8511 43.9163 25.8449 43.8863 25.8323C43.8562 25.8198 43.8289 25.8013 43.806 25.7778C43.783 25.7543 43.7649 25.7264 43.7526 25.6956C43.7403 25.6649 43.7341 25.6319 43.7344 25.5987V19.3982ZM48.2035 23.2553V23.236C48.2233 22.9563 48.1874 22.6753 48.0981 22.4101C48.0088 22.145 47.8678 21.9012 47.6838 21.6936C47.4997 21.486 47.2765 21.3189 47.0275 21.2024C46.7786 21.0859 46.5092 21.0224 46.2356 21.0159C45.9595 21.0231 45.6875 21.0859 45.4351 21.2009C45.1827 21.3158 44.9549 21.4806 44.7647 21.6859C44.5745 21.8911 44.4255 22.1327 44.3264 22.397C44.2273 22.6612 44.18 22.9429 44.1871 23.2259V23.2451C44.179 23.5284 44.2256 23.8105 44.3243 24.0753C44.423 24.34 44.5719 24.5821 44.7623 24.7876C44.9527 24.993 45.181 25.1579 45.4338 25.2725C45.6867 25.3872 45.9592 25.4494 46.2356 25.4556C46.5101 25.4578 46.782 25.401 47.0338 25.2887C47.2856 25.1764 47.5115 25.0113 47.6972 24.8039C47.8828 24.5966 48.0239 24.3516 48.1114 24.0848C48.1989 23.8181 48.2308 23.5355 48.2052 23.2553H48.2035Z" fill="white"/>
 <path d="M49.759 24.3156V24.2959C49.759 23.2259 50.655 22.62 51.9546 22.62C52.5167 22.6146 53.0768 22.6894 53.6188 22.8421V22.62C53.6188 21.5806 52.9979 21.0459 51.9646 21.0459C51.4691 21.0469 50.9804 21.164 50.5359 21.3884C50.5028 21.4068 50.466 21.417 50.4284 21.4183C50.3689 21.4164 50.3122 21.3913 50.2701 21.3481C50.2279 21.305 50.2033 21.2471 50.2012 21.186C50.2018 21.1396 50.215 21.0943 50.2393 21.0551C50.2637 21.016 50.2982 20.9846 50.339 20.9645C50.8561 20.7131 51.421 20.582 51.9933 20.5807C52.2808 20.5624 52.569 20.603 52.8411 20.7C53.1131 20.7971 53.3636 20.9486 53.578 21.1459C53.7553 21.3399 53.8921 21.5689 53.9801 21.819C54.068 22.0691 54.1053 22.3349 54.0897 22.6002V25.5959C54.0912 25.6287 54.0863 25.6614 54.0751 25.6922C54.0639 25.7229 54.0467 25.7511 54.0247 25.7748C54.0026 25.7986 53.976 25.8175 53.9466 25.8305C53.9171 25.8434 53.8854 25.85 53.8534 25.85C53.8214 25.85 53.7897 25.8434 53.7603 25.8305C53.7308 25.8175 53.7042 25.7986 53.6822 25.7748C53.6601 25.7511 53.6429 25.7229 53.6317 25.6922C53.6206 25.6614 53.6156 25.6287 53.6171 25.5959V24.9493C53.3998 25.2611 53.1112 25.5135 52.7765 25.6843C52.4419 25.855 52.0714 25.939 51.6977 25.9288C50.7603 25.9288 49.7573 25.3839 49.7573 24.314L49.759 24.3156ZM53.6271 23.8787V23.2943C53.0714 23.1423 52.4989 23.0644 51.9238 23.0626C50.8601 23.0626 50.2696 23.5458 50.2696 24.2631V24.2829C50.2696 25.0301 50.9583 25.4642 51.7258 25.4642C52.7525 25.4642 53.6287 24.8198 53.6287 23.8816L53.6271 23.8787Z" fill="white"/>
 <path d="M55.782 20.8735C55.7805 20.84 55.7855 20.8066 55.797 20.7752C55.8084 20.7438 55.8259 20.7151 55.8484 20.6908C55.871 20.6666 55.8981 20.6473 55.9282 20.6341C55.9582 20.6209 55.9906 20.6141 56.0233 20.6141C56.0559 20.6141 56.0883 20.6209 56.1183 20.6341C56.1484 20.6473 56.1755 20.6666 56.1981 20.6908C56.2206 20.7151 56.2381 20.7438 56.2495 20.7752C56.261 20.8066 56.2661 20.84 56.2645 20.8735V21.6207C56.4363 21.2839 56.6975 21.0037 57.0181 20.8126C57.3386 20.6215 57.7053 20.5272 58.0758 20.5406C58.3486 20.5255 58.6213 20.5705 58.8756 20.6725C59.13 20.7745 59.3601 20.9311 59.5505 21.1318C59.7408 21.3326 59.887 21.5728 59.9793 21.8363C60.0715 22.0998 60.1076 22.3806 60.0852 22.6596V25.5987C60.0873 25.6316 60.0826 25.6645 60.0715 25.6954C60.0605 25.7263 60.0432 25.7546 60.0209 25.7782C59.9986 25.8019 59.9717 25.8206 59.9419 25.833C59.9121 25.8453 59.8801 25.8512 59.848 25.8502C59.8155 25.8515 59.783 25.8458 59.7526 25.8337C59.7223 25.8215 59.6947 25.803 59.6716 25.7794C59.6485 25.7558 59.6304 25.7276 59.6185 25.6965C59.6065 25.6654 59.601 25.6321 59.6021 25.5987V22.7528C59.6284 22.5261 59.6062 22.2962 59.537 22.0791C59.4678 21.8621 59.3533 21.6631 59.2015 21.496C59.0497 21.329 58.8642 21.1978 58.6579 21.1116C58.4516 21.0255 58.2294 20.9865 58.0069 20.9973C57.7731 20.9941 57.5412 21.0397 57.3252 21.1315C57.1092 21.2232 56.9138 21.3591 56.7507 21.5308C56.5877 21.7026 56.4605 21.9066 56.3769 22.1304C56.2933 22.3542 56.255 22.5931 56.2645 22.8325V25.5987C56.2667 25.6315 56.2622 25.6644 56.2513 25.6954C56.2404 25.7263 56.2232 25.7545 56.201 25.7782C56.1787 25.8019 56.1519 25.8206 56.1222 25.833C56.0925 25.8454 56.0605 25.8513 56.0285 25.8502C55.9959 25.8514 55.9634 25.8457 55.9331 25.8335C55.9027 25.8213 55.8752 25.8028 55.852 25.7792C55.8289 25.7557 55.8108 25.7275 55.7987 25.6964C55.7867 25.6654 55.781 25.6321 55.782 25.5987V20.8735Z" fill="white"/>
 <path d="M61.9246 19.3982C61.9231 19.3655 61.9282 19.3329 61.9395 19.3023C61.9507 19.2717 61.968 19.2437 61.9901 19.2202C62.0122 19.1966 62.0388 19.1779 62.0682 19.1651C62.0976 19.1524 62.1292 19.1459 62.1611 19.1461C62.1935 19.1458 62.2257 19.152 62.2557 19.1645C62.2858 19.1771 62.3131 19.1956 62.336 19.2191C62.359 19.2426 62.3771 19.2705 62.3894 19.3013C62.4017 19.332 62.4079 19.365 62.4076 19.3982V23.9595L65.4888 20.6909C65.5098 20.6675 65.5354 20.6491 65.564 20.6369C65.5925 20.6247 65.6233 20.619 65.6542 20.6202C65.6843 20.6194 65.7141 20.6248 65.7421 20.6362C65.77 20.6476 65.7953 20.6647 65.8165 20.6865C65.8378 20.7084 65.8544 20.7344 65.8655 20.763C65.8765 20.7916 65.8818 20.8223 65.8808 20.8531C65.8808 20.8857 65.8736 20.9179 65.8597 20.9472C65.8459 20.9766 65.8258 21.0024 65.8009 21.0227L63.9631 22.9421L65.9305 25.4336C65.9531 25.4578 65.9708 25.4863 65.9827 25.5176C65.9945 25.5488 66.0002 25.5821 65.9994 25.6156C66.0002 25.6471 65.9945 25.6783 65.9828 25.7074C65.9711 25.7365 65.9537 25.7627 65.9315 25.7845C65.9093 25.8062 65.883 25.823 65.8541 25.8337C65.8253 25.8445 65.7946 25.8489 65.764 25.8468C65.723 25.8474 65.6825 25.8373 65.6464 25.8176C65.6102 25.7978 65.5795 25.7689 65.5572 25.7337L63.6273 23.2914L62.407 24.553V25.5987C62.4092 25.6315 62.4046 25.6645 62.3936 25.6954C62.3826 25.7264 62.3655 25.7546 62.3432 25.7784C62.3209 25.8021 62.294 25.8208 62.2643 25.8333C62.2346 25.8457 62.2026 25.8517 62.1705 25.8507C62.1379 25.8518 62.1054 25.8461 62.0751 25.8338C62.0448 25.8215 62.0172 25.803 61.9942 25.7794C61.9711 25.7557 61.9531 25.7275 61.9411 25.6964C61.9291 25.6653 61.9235 25.6321 61.9246 25.5987V19.3982Z" fill="white"/>
</svg>
