<svg width="20" height="20" viewBox="0 0 20 20" fill="none" xmlns="http://www.w3.org/2000/svg">
    <path d="M0 7C0 3.13401 3.13401 0 7 0H13C16.866 0 20 3.13401 20 7V13C20 16.866 16.866 20 13 20H7C3.13401 20 0 16.866 0 13V7Z" fill="#E6F8FF"/>
    <path d="M9.76959 14.8638L12.7454 11.888C12.927 11.7064 12.927 11.4119 12.7454 11.2304C12.5638 11.0488 12.2694 11.0488 12.0878 11.2304L9.90577 13.4125L9.90577 5.46497C9.90577 5.2082 9.69757 5 9.4408 5C9.18406 5 8.97582 5.2082 8.97582 5.46497L8.97582 13.4125L6.79376 11.2305C6.61216 11.0489 6.31777 11.0489 6.13617 11.2305C6.04545 11.3212 5.99999 11.4403 5.99999 11.5593C5.99999 11.6782 6.04545 11.7972 6.13617 11.888L9.112 14.8638C9.2936 15.0454 9.58799 15.0454 9.76959 14.8638Z" fill="#059FD5"/>
</svg>
