<svg width="250" height="250" viewBox="0 0 250 250" fill="none" xmlns="http://www.w3.org/2000/svg">
  <path fill-rule="evenodd" clip-rule="evenodd" d="M30 43.756C11.2967 65.6056 0 93.9835 0 125C0 156.016 11.2967 184.394 30 206.244V43.756ZM43 219.348C63.0691 236.805 88.7618 247.965 117 249.748V186.993C86.2603 183.065 62.5 156.807 62.5 125C62.5 93.1926 86.2603 66.9347 117 63.0072V0.251847C88.7618 2.03541 63.0691 13.1949 43 30.6524V219.348ZM130 187.303C162.18 184.756 187.5 157.835 187.5 125C187.5 92.1652 162.18 65.2442 130 62.6971V0.0981445C160.854 1.31185 188.834 13.7087 210 33.3477V216.652C188.834 236.291 160.854 248.688 130 249.902V187.303ZM250 125C250 154.321 239.905 181.284 223 202.603V47.3968C239.905 68.7158 250 95.6789 250 125Z" fill="#BBBBBB"/>
</svg>
