<svg width="14" height="8" viewBox="0 0 14 8" fill="none" xmlns="http://www.w3.org/2000/svg">
    <path d="M6.81162 5.31171L1.71713 0.217436C1.57719 0.0771651 1.39009 0 1.19059 0C0.990976 0 0.803985 0.0771651 0.663825 0.217436L0.217658 0.663824C0.0772765 0.803874 0 0.991087 0 1.19059C0 1.39009 0.0772765 1.57708 0.217658 1.71724L6.28309 7.78278C6.42369 7.9235 6.61157 8.00055 6.81129 8C7.0119 8.00055 7.19955 7.92361 7.34027 7.78278L13.3998 1.72289C13.5402 1.58273 13.6175 1.39574 13.6175 1.19612C13.6175 0.996623 13.5402 0.809631 13.3998 0.66936L12.9537 0.223083C12.6633 -0.0673122 12.1905 -0.0673122 11.9002 0.223083L6.81162 5.31171Z" fill="#00ADEF"/>
</svg>
