<svg width="20" height="20" viewBox="0 0 20 20" fill="none" xmlns="http://www.w3.org/2000/svg">
    <path d="M0 7C0 3.13401 3.13401 0 7 0H13C16.866 0 20 3.13401 20 7V13C20 16.866 16.866 20 13 20H7C3.13401 20 0 16.866 0 13V7Z" fill="#FFF4F4"/>
    <path d="M9.112 5.1362L6.13617 8.11203C5.95461 8.29359 5.95461 8.58805 6.13617 8.76961C6.31777 8.95121 6.61216 8.95121 6.79376 8.76961L8.97582 6.58755L8.97582 14.535C8.97582 14.7918 9.18402 15 9.4408 15C9.69754 15 9.90577 14.7918 9.90577 14.535L9.90577 6.58755L12.0878 8.76954C12.2694 8.95114 12.5638 8.95114 12.7454 8.76954C12.8361 8.67878 12.8816 8.55974 12.8816 8.44075C12.8816 8.32175 12.8361 8.20276 12.7454 8.11196L9.76959 5.1362C9.58799 4.9546 9.2936 4.9546 9.112 5.1362Z" fill="#E2574C"/>
</svg>
