<svg width="30" height="30" viewBox="0 0 30 30" fill="none" xmlns="http://www.w3.org/2000/svg">
  <rect width="30" height="30" rx="5" fill="#EEFAFF"/>
  <path d="M15.5235 19.8366L19.0945 16.2656C19.3124 16.0477 19.3124 15.6943 19.0945 15.4765C18.8766 15.2585 18.5233 15.2585 18.3054 15.4765L15.6869 18.0949L15.6869 8.55797C15.6869 8.24984 15.4371 8 15.129 8C14.8209 8 14.571 8.24984 14.571 8.55797L14.571 18.0949L11.9525 15.4766C11.7346 15.2586 11.3814 15.2586 11.1634 15.4766C11.0546 15.5855 11 15.7283 11 15.8711C11 16.0139 11.0546 16.1567 11.1634 16.2657L14.7344 19.8366C14.9523 20.0545 15.3056 20.0545 15.5235 19.8366Z" fill="#00ADEF"/>
</svg>
