<svg width="60" height="60" viewBox="0 0 60 60" fill="none" xmlns="http://www.w3.org/2000/svg">
  <path d="M6.21094 35.7447C5.56406 35.7447 5.03906 36.3166 5.03906 37.0213C5.03906 37.7259 5.56406 38.2979 6.21094 38.2979C6.85781 38.2979 7.38281 37.7259 7.38281 37.0213C7.38281 36.3166 6.85781 35.7447 6.21094 35.7447Z" fill="#555555"/>
  <path d="M58.0786 39.9732C56.8752 39.0526 55.3309 38.8279 53.9477 39.3721C53.9377 39.3761 53.9277 39.3802 53.9177 39.3845L42.8434 44.1178C42.8739 43.883 42.8906 43.6449 42.8906 43.4043C42.8906 40.5886 40.7878 38.2979 38.2031 38.2979H30.6141C30.4129 38.2979 30.2141 38.2413 30.0389 38.1337L23.8475 34.3402C22.6233 33.5886 21.2323 33.1915 19.8246 33.1915H12.0703V31.9149C12.0703 31.2098 11.5457 30.6383 10.8984 30.6383H1.17188C0.524648 30.6383 0 31.2098 0 31.9149V54.8936C0 55.5987 0.524648 56.1702 1.17188 56.1702H10.8984C11.5457 56.1702 12.0703 55.5987 12.0703 54.8936V53.617H12.9519L24.1325 58.5474C26.3202 59.5112 28.6252 60 30.9832 60C33.6107 60 36.1547 59.3991 38.5444 58.2143C38.5504 58.2114 38.5562 58.2084 38.5621 58.2054L57.1966 48.5538C58.901 47.7921 60 46.0094 60 44.0004C60 42.3988 59.2818 40.8933 58.0786 39.9732ZM9.72656 53.617H2.34375V33.1915H9.72656V53.617ZM56.289 46.1995C56.2662 46.2095 56.2436 46.2202 56.2214 46.2317L37.5652 55.8945C35.4848 56.9246 33.2704 57.4468 30.9832 57.4468C28.9276 57.4468 26.9184 57.0207 25.0116 56.1806L13.6198 51.1572C13.4801 51.0956 13.3308 51.064 13.1801 51.064H12.0703V35.7447H19.8246C20.83 35.7447 21.8232 36.0282 22.6978 36.565L28.8893 40.3587C29.4142 40.6808 30.0107 40.8511 30.6141 40.8511H38.2031C39.4955 40.8511 40.5469 41.9964 40.5469 43.4043C40.5469 44.2883 40.1217 45.1116 39.4304 45.5764L39.4219 45.5801C39.3332 45.6181 39.252 45.6677 39.1773 45.7249C38.8743 45.8768 38.5417 45.9575 38.2031 45.9575H26.2898C24.3513 45.9575 22.7742 47.6755 22.7742 49.7872C22.7742 50.4923 23.2989 51.0638 23.9461 51.0638C24.5933 51.0638 25.118 50.4923 25.118 49.7872C25.118 49.0833 25.6437 48.5106 26.2898 48.5106H38.2031C38.9893 48.5106 39.7617 48.293 40.4428 47.8864L54.7573 41.7682C55.4289 41.5092 56.1479 41.6161 56.7319 42.0627C57.3193 42.5121 57.6562 43.2183 57.6562 44.0004C57.6562 44.9741 57.1195 45.8373 56.289 46.1995Z" fill="#555555"/>
  <path d="M6.21094 40.8511C5.56371 40.8511 5.03906 41.4226 5.03906 42.1277V49.7872C5.03906 50.4923 5.56371 51.0638 6.21094 51.0638C6.85816 51.0638 7.38281 50.4923 7.38281 49.7872V42.1277C7.38281 41.4226 6.85816 40.8511 6.21094 40.8511Z" fill="#555555"/>
  <path d="M46.4062 20.4256C42.5292 20.4256 39.375 23.8616 39.375 28.0851C39.375 32.3086 42.5292 35.7447 46.4062 35.7447C50.2833 35.7447 53.4375 32.3086 53.4375 28.0851C53.4375 23.8616 50.2833 20.4256 46.4062 20.4256ZM46.4062 33.1915C43.8216 33.1915 41.7188 30.9008 41.7188 28.0851C41.7188 25.2695 43.8216 22.9787 46.4062 22.9787C48.9909 22.9787 51.0938 25.2695 51.0938 28.0851C51.0938 30.9008 48.9909 33.1915 46.4062 33.1915Z" fill="#555555"/>
  <path d="M41.7188 0C37.8417 0 34.6875 3.43609 34.6875 7.65957C34.6875 11.8831 37.8417 15.3191 41.7188 15.3191C45.5958 15.3191 48.75 11.8831 48.75 7.65957C48.75 3.43609 45.5958 0 41.7188 0ZM41.7188 12.766C39.1341 12.766 37.0312 10.4752 37.0312 7.65957C37.0312 4.84391 39.1341 2.55319 41.7188 2.55319C44.3034 2.55319 46.4062 4.84391 46.4062 7.65957C46.4062 10.4752 44.3034 12.766 41.7188 12.766Z" fill="#555555"/>
  <path d="M27.6562 15.3192C23.7792 15.3192 20.625 18.7552 20.625 22.9787C20.625 27.2022 23.7792 30.6383 27.6562 30.6383C31.5333 30.6383 34.6875 27.2022 34.6875 22.9787C34.6875 18.7552 31.5333 15.3192 27.6562 15.3192ZM27.6562 28.0851C25.0716 28.0851 22.9688 25.7944 22.9688 22.9787C22.9688 20.1631 25.0716 17.8723 27.6562 17.8723C30.2409 17.8723 32.3438 20.1631 32.3438 22.9787C32.3438 25.7944 30.2409 28.0851 27.6562 28.0851Z" fill="#555555"/>
</svg>
