<svg width="65" height="65" viewBox="0 0 65 65" fill="none" xmlns="http://www.w3.org/2000/svg">
    <path d="M65 32.5C65 50.4493 50.4493 65 32.5 65C14.5507 65 0 50.4493 0 32.5C0 14.5507 14.5507 0 32.5 0C50.4493 0 65 14.5507 65 32.5ZM16.25 32.5C16.25 41.4746 23.5254 48.75 32.5 48.75C41.4746 48.75 48.75 41.4746 48.75 32.5C48.75 23.5254 41.4746 16.25 32.5 16.25C23.5254 16.25 16.25 23.5254 16.25 32.5Z" fill="#008EC5"/>
    <path d="M65 32.5C65 38.1522 63.5259 43.7066 60.7233 48.615C57.9207 53.5234 53.8865 57.616 49.0189 60.4889C44.1513 63.3617 38.6186 64.9154 32.967 64.9966C27.3155 65.0779 21.7404 63.6838 16.7922 60.952C11.8441 58.2202 7.69391 54.2452 4.75142 49.4194C1.80892 44.5936 0.175851 39.0838 0.0134227 33.434C-0.149006 27.7841 1.16482 22.1896 3.82521 17.2027C6.4856 12.2158 10.4006 8.00896 15.1836 4.99742L23.8418 18.7487C21.4503 20.2545 19.4928 22.3579 18.1626 24.8514C16.8324 27.3448 16.1755 30.1421 16.2567 32.967C16.3379 35.7919 17.1545 38.5468 18.6257 40.9597C20.097 43.3726 22.172 45.3601 24.6461 46.726C27.1202 48.0919 29.9077 48.7889 32.7335 48.7483C35.5593 48.7077 38.3256 47.9308 40.7594 46.4944C43.1933 45.058 45.2104 43.0117 46.6117 40.5575C48.013 38.1033 48.75 35.3261 48.75 32.5H65Z" fill="#F4B459"/>
    <path d="M65 32.5C65 36.768 64.1594 40.9941 62.5261 44.9372C60.8928 48.8803 58.4989 52.4631 55.481 55.481C52.4631 58.4989 48.8803 60.8928 44.9372 62.5261C40.9941 64.1594 36.768 65 32.5 65V48.75C34.634 48.75 36.7471 48.3297 38.7186 47.513C40.6901 46.6964 42.4815 45.4994 43.9905 43.9905C45.4994 42.4815 46.6964 40.6901 47.513 38.7186C48.3297 36.7471 48.75 34.634 48.75 32.5H65Z" fill="#99C9D9"/>
</svg>
