<svg width="57" height="65" viewBox="0 0 57 65" fill="none" xmlns="http://www.w3.org/2000/svg">
    <path d="M52.9109 22.572L46.5394 20.2529C48.8431 18.3494 49.8267 15.3301 49.1215 12.4609C47.7355 6.82383 40.8624 4.68391 36.5201 8.52259L32.1209 12.4114L31.2507 6.57919C30.3902 0.837232 23.7425 -1.92527 19.066 1.49612C16.7276 3.20681 15.4837 6.15581 16.0353 9.15012L10.0282 6.96374C7.07271 5.88781 3.79237 7.41734 2.71644 10.3732L0.115175 17.5203C-0.243976 18.5071 0.264852 19.5984 1.25179 19.9574C1.65207 20.103 30.5452 30.6193 30.9695 30.7737C29.767 30.7737 3.43297 30.7737 2.27439 30.7737C1.22424 30.7737 0.372889 31.625 0.372889 32.6752V59.2957C0.372889 62.4411 2.93188 65.0001 6.07727 65.0001H21.2891H28.8949H44.1067C47.2521 65.0001 49.8111 62.4411 49.8111 59.2957V37.6315L51.2821 38.167C52.2643 38.5248 53.3584 38.0214 53.7192 37.0306L56.3206 29.8835C57.3962 26.9276 55.8668 23.6478 52.9109 22.572ZM19.3874 61.1972H6.07715C5.02864 61.1972 4.17564 60.3442 4.17564 59.2957V34.5767H19.3874V61.1972ZM26.9933 61.1972H23.1904V34.5767H26.9933V61.1972ZM39.0387 11.3719C41.2446 9.4218 44.7269 10.5158 45.4284 13.369C46.1766 16.4112 43.2361 19.049 40.293 17.9796C37.7898 17.0684 36.6167 16.6415 34.11 15.7291L39.0387 11.3719ZM21.3113 4.56559C23.6878 2.8271 27.0542 4.2378 27.4898 7.14312L28.4648 13.6742C27.763 13.4188 22.9726 11.6751 22.2823 11.424C19.3391 10.3521 18.7831 6.41479 21.3113 4.56559ZM22.2071 23.5375L4.33916 17.034L6.29017 11.6738C6.64882 10.6885 7.74226 10.179 8.72742 10.5373C10.7269 11.265 24.1917 16.1658 24.8083 16.3903L22.2071 23.5375ZM29.3543 26.139L25.7807 24.8382L28.382 17.6911L31.9557 18.9919L29.3543 26.139ZM46.008 59.2957C46.008 60.3442 45.155 61.1972 44.1065 61.1972H30.7963V34.5767H41.418L46.0081 36.2474V59.2957H46.008ZM52.7466 28.5826L50.7957 33.9429L32.9279 27.4395L35.5293 20.2924L51.6103 26.1453C52.5956 26.504 53.1053 27.5974 52.7466 28.5826Z" fill="#772583"/>
</svg>
