<svg width="43" height="60" viewBox="0 0 43 60" fill="none" xmlns="http://www.w3.org/2000/svg">
  <path d="M10.6787 37.7861C12.4159 36.0489 12.4159 33.2217 10.6787 31.4845C9.83688 30.6432 8.71811 30.1794 7.52792 30.1794C6.83991 30.1794 6.17615 30.3351 5.57602 30.6285C3.45978 27.6009 2.34512 24.0578 2.34512 20.3311C2.34512 10.7936 9.79569 2.8926 19.3066 2.34329C19.9535 2.30575 20.4469 1.7514 20.4099 1.10504C20.3723 0.458217 19.818 -0.0338792 19.1716 0.0018263C8.42102 0.623012 0 9.55261 0 20.3311C0 24.6313 1.31424 28.716 3.80585 32.1854C2.66739 33.9139 2.85782 36.2668 4.37714 37.7861C5.21896 38.6275 6.33774 39.0912 7.52792 39.0912C8.71811 39.0912 9.83688 38.6275 10.6787 37.7861ZM6.03516 33.143C6.44669 32.7315 6.98731 32.5255 7.52792 32.5255C8.06809 32.5255 8.6087 32.7315 9.02023 33.143C9.84329 33.9656 9.84329 35.305 9.02023 36.1276C8.19718 36.9507 6.85822 36.9507 6.03516 36.1276C5.21256 35.305 5.21256 33.9661 6.03516 33.143Z" fill="#00ADEF"/>
  <path d="M38.4426 40.6252C37.7014 40.6252 37.0047 40.8183 36.4 41.1571C35.864 39.4574 34.2728 38.2214 32.3982 38.2214C31.2122 38.2214 30.1396 38.7163 29.3761 39.51C29.1641 39.2903 28.9284 39.0939 28.6734 38.9241C31.3761 37.7142 33.8082 35.9171 35.7761 33.6406C38.9685 29.9464 40.7268 25.2196 40.7268 20.3311C40.7268 16.0332 39.4126 11.9463 36.9214 8.47642C38.0599 6.7479 37.8694 4.39545 36.3497 2.87568C34.6124 1.13847 31.7858 1.13847 30.0481 2.87568C28.3109 4.61289 28.3109 7.44004 30.0481 9.17725C30.9169 10.0461 32.0577 10.4805 33.1989 10.4805C33.8677 10.4805 34.5355 10.3299 35.1494 10.0314C37.2666 13.06 38.3817 16.6058 38.3817 20.3311C38.3817 28.8135 32.6235 35.9834 24.5041 37.8722V31.5605C29.1541 29.8439 32.331 25.3491 32.331 20.3311C32.331 13.7325 26.9623 8.36381 20.3632 8.36381C13.7645 8.36381 8.39586 13.732 8.39586 20.3311C8.39586 22.9353 9.21846 25.4118 10.7739 27.4919C12.1308 29.306 14.008 30.715 16.1142 31.5189V48.7669L14.6411 46.3504C13.4033 44.3184 10.8193 43.6592 8.75887 44.8485C6.79918 45.9801 6.03472 48.463 7.02394 50.511L11.3979 59.3472C11.6025 59.7606 12.0181 60 12.4498 60C12.6247 60 12.8018 59.9611 12.9689 59.8782C13.5494 59.5908 13.7869 58.8872 13.4999 58.3072L9.13057 49.4811C8.67784 48.5431 9.02941 47.4005 9.93166 46.8796C10.8641 46.3413 12.0786 46.6512 12.6389 47.5708L16.2854 53.5542C16.5592 54.0028 17.0979 54.2148 17.6038 54.0729C18.1096 53.931 18.4593 53.4696 18.4593 52.9436V26.0399C18.4593 25.02 19.2893 24.1905 20.3092 24.1905C21.3291 24.1905 22.159 25.02 22.159 26.0399V30.678C22.1585 30.6862 22.159 30.6944 22.159 30.7031V48.3096C22.159 48.9574 22.6836 49.482 23.3313 49.482C23.9791 49.482 24.5041 48.9574 24.5041 48.3096V42.4164C24.5041 41.3965 25.3336 40.5666 26.3535 40.5666C27.3734 40.5666 28.2033 41.3965 28.2033 42.4164V48.7363C28.2033 49.384 28.7284 49.9091 29.3756 49.9091C30.0234 49.9091 30.5484 49.384 30.5484 48.7363V42.4164C30.5484 41.3965 31.3783 40.5666 32.3982 40.5666C33.4181 40.5666 34.2476 41.3965 34.2476 42.4164V48.8155C34.2476 49.4632 34.7727 49.9883 35.4204 49.9883C36.0681 49.9883 36.5927 49.4632 36.5927 48.8155V44.8201C36.5927 43.8002 37.4227 42.9703 38.4426 42.9703C39.4625 42.9703 40.2924 43.8002 40.2924 44.8201V58.8268C40.2924 59.4745 40.817 59.9995 41.4647 59.9995C42.1124 59.9995 42.6375 59.4745 42.6375 58.8268V44.8201C42.6375 42.507 40.7556 40.6252 38.4426 40.6252ZM31.7066 7.51923C30.8835 6.69617 30.8835 5.35722 31.7066 4.53416C32.1181 4.12263 32.6583 3.91709 33.1989 3.91709C33.7395 3.91709 34.2801 4.12263 34.6916 4.53416C35.5142 5.35722 35.5142 6.69617 34.6916 7.51923C33.8686 8.34184 32.5292 8.34184 31.7066 7.51923ZM10.741 20.3311C10.741 15.0252 15.0577 10.7085 20.3636 10.7085C25.6691 10.7085 29.9858 15.0252 29.9858 20.3311C29.9858 24.0674 27.7963 27.4434 24.5041 29.0186V26.0399C24.5041 25.3816 24.3512 24.7582 24.0793 24.2029C25.1193 23.2004 25.7341 21.8028 25.7341 20.3311C25.7341 17.3694 23.3249 14.9602 20.3636 14.9602C17.4019 14.9602 14.9927 17.3694 14.9927 20.3311C14.9927 21.7598 15.5745 23.1326 16.5747 24.1333C16.2813 24.7055 16.1142 25.3537 16.1142 26.0399V28.9691C12.849 27.3734 10.741 24.0642 10.741 20.3311ZM18.1815 22.4268C17.6409 21.8674 17.3378 21.1263 17.3378 20.3311C17.3378 18.6626 18.6951 17.3053 20.3632 17.3053C22.0317 17.3053 23.389 18.6626 23.389 20.3311C23.389 21.1377 23.0612 21.9058 22.5037 22.467C21.8646 22.0729 21.113 21.8454 20.3092 21.8454C19.5328 21.8454 18.8059 22.0578 18.1815 22.4268Z" fill="#00ADEF"/>
</svg>
