<svg width="383" height="133" viewBox="0 0 383 133" fill="none" xmlns="http://www.w3.org/2000/svg">
  <path d="M0 20C0 8.95431 8.95431 0 20 0H340C351.046 0 360 8.9543 360 20V113C360 124.046 351.046 133 340 133H20C8.95432 133 0 124.046 0 113V20Z" fill="#F5FCFF"/>
  <path d="M277.635 67.2431C278.335 68.5182 278.348 70.0309 277.673 71.3185C277.56 71.531 277.885 71.7186 277.998 71.506C278.735 70.0934 278.723 68.4432 277.96 67.0555C277.835 66.8305 277.523 67.0305 277.635 67.2431Z" fill="white"/>
  <path d="M278.098 67.3056C278.523 67.093 279.023 66.8305 279.51 66.943C280.235 67.093 280.26 67.6806 280.31 68.2807C280.36 69.0808 280.323 69.9308 279.798 70.5809C279.648 70.7684 279.91 71.031 280.06 70.8434C280.785 69.9558 280.873 68.5682 280.598 67.4806C280.248 66.1679 278.823 66.5305 277.923 66.9805C277.698 67.0805 277.885 67.4056 278.098 67.3056Z" fill="white"/>
  <path d="M278.098 71.5811C278.798 71.6686 279.498 71.3936 279.96 70.856C280.11 70.6685 279.848 70.406 279.698 70.5935C279.298 71.0685 278.723 71.2936 278.098 71.2185C277.86 71.181 277.86 71.5561 278.098 71.5811Z" fill="white"/>
  <path d="M277.985 50.7788C278.148 50.4663 278.598 49.6162 279.098 50.4038C279.185 50.5288 279.185 50.8788 279.21 51.0038C279.26 51.2664 279.348 51.5414 279.535 51.7414C280.16 52.3915 280.598 51.3289 281.248 51.6789C282.073 52.1165 280.998 53.0416 281.673 53.5541C281.836 53.6791 282.023 53.6791 282.211 53.6041C282.336 53.5541 282.436 53.4416 282.561 53.3791C283.023 53.1791 283.186 53.5916 283.223 53.9542C283.236 54.0667 283.298 54.1292 283.411 54.1417C283.548 54.1542 283.673 54.1667 283.811 54.1792C284.048 54.2042 284.048 53.8291 283.811 53.8041C283.673 53.7916 283.548 53.7791 283.411 53.7666C283.473 53.8291 283.536 53.8917 283.598 53.9542C283.561 53.6166 283.498 53.1791 283.186 52.979C282.848 52.754 282.623 52.954 282.311 53.1041C282.161 53.1791 282.036 53.4291 281.823 53.1291C281.748 53.0166 281.911 52.6665 281.936 52.5415C281.986 52.3415 282.011 52.1665 281.948 51.9664C281.848 51.6539 281.573 51.3914 281.26 51.2914C280.873 51.1538 280.685 51.3164 280.335 51.4164C280.023 51.5039 279.71 51.4789 279.598 51.1413C279.56 51.0163 279.548 50.8663 279.535 50.7413C279.498 50.5413 279.473 50.3288 279.373 50.1412C278.86 49.2036 277.973 49.9912 277.66 50.6288C277.548 50.8038 277.873 50.9913 277.985 50.7788Z" fill="white"/>
  <path d="M280.41 49.6161C280.71 49.3286 280.985 49.2035 281.311 49.4786C281.573 49.7036 281.523 49.7786 281.598 50.0786C281.648 50.2537 281.698 50.4162 281.848 50.5412C282.036 50.7037 282.248 50.7037 282.486 50.6787C282.711 50.6537 282.973 50.5037 283.161 50.7412C283.248 50.8537 283.236 51.1038 283.236 51.2413C283.248 51.6163 283.248 52.0664 283.673 52.2039C283.798 52.2414 283.936 52.1789 284.048 52.2164C284.198 52.1539 284.261 52.1914 284.273 52.3539C284.323 52.4539 284.348 52.5539 284.336 52.6789C284.398 52.9665 284.511 53.179 284.736 53.379C284.911 53.5415 285.173 53.279 284.998 53.1165C284.623 52.7664 284.886 52.2789 284.573 51.9664C284.248 51.6413 283.736 52.1164 283.623 51.5163C283.536 51.0538 283.711 50.4287 283.098 50.2662C282.661 50.1537 282.198 50.5912 281.961 49.9911C281.861 49.7411 281.898 49.4661 281.723 49.2285C281.311 48.691 280.548 48.966 280.135 49.3536C279.96 49.5161 280.235 49.7911 280.41 49.6161Z" fill="white"/>
  <path d="M326.465 72.8563C326.09 72.8188 326.653 72.0812 326.765 72.0187C327.065 71.8562 327.416 71.9437 327.641 72.1812C328.128 72.7063 327.716 73.4814 327.053 73.5564C326.815 73.5814 326.815 73.9564 327.053 73.9314C327.603 73.8689 328.091 73.5064 328.216 72.9563C328.341 72.4187 328.016 71.8437 327.516 71.6311C327.028 71.4311 326.49 71.6186 326.203 72.0562C325.953 72.4312 325.89 73.1813 326.478 73.2313C326.703 73.2563 326.703 72.8813 326.465 72.8563Z" fill="white"/>
  <path d="M323.94 72.0936C323.678 71.8561 323.99 71.381 324.29 71.6436C324.603 71.9061 324.178 72.2687 323.89 72.0561C323.703 71.9061 323.515 72.2311 323.703 72.3812C323.965 72.5812 324.365 72.5187 324.603 72.2812C324.878 72.0061 324.815 71.5811 324.528 71.3435C324.24 71.106 323.828 71.1185 323.603 71.4311C323.403 71.7061 323.428 72.1061 323.678 72.3437C323.853 72.5187 324.128 72.2562 323.94 72.0936Z" fill="white"/>
  <path d="M367.308 56.0294C367.433 58.3547 366.27 60.5924 364.307 61.8426C364.107 61.9676 364.295 62.2926 364.495 62.1676C366.57 60.8549 367.808 58.4922 367.683 56.0294C367.67 55.7919 367.295 55.7919 367.308 56.0294Z" fill="white"/>
  <path d="M367.558 56.3043C368.758 57.1794 368.27 58.7671 367.608 59.8047C366.982 60.7923 365.97 61.9675 364.67 61.7674C364.432 61.7299 364.332 62.0925 364.57 62.13C366.132 62.355 367.32 61.0424 368.045 59.8172C368.77 58.6046 369.045 56.9294 367.745 55.9793C367.545 55.8418 367.358 56.1668 367.558 56.3043Z" fill="white"/>
  <path d="M262.321 45.1781C263.108 46.4782 263.584 47.9159 263.696 49.4286C263.721 49.6661 264.096 49.6661 264.071 49.4286C263.946 47.8409 263.471 46.3532 262.646 44.9906C262.508 44.7781 262.183 44.9656 262.321 45.1781Z" fill="#E8E8E8"/>
  <path d="M263.846 44.7657C264.496 45.9408 264.859 47.216 264.946 48.5536C264.959 48.7911 265.334 48.7911 265.321 48.5536C265.234 47.1535 264.846 45.8158 264.171 44.5782C264.059 44.3656 263.734 44.5532 263.846 44.7657Z" fill="#E8E8E8"/>
  <path d="M262.221 47.5784C263.308 46.8658 264.534 46.4908 265.846 46.4658C266.084 46.4658 266.084 46.0908 265.846 46.0908C264.484 46.1158 263.183 46.5158 262.033 47.2659C261.833 47.3909 262.021 47.7159 262.221 47.5784Z" fill="#E8E8E8"/>
  <path d="M262.183 49.1035C263.546 48.2784 265.034 47.7534 266.609 47.5158C266.846 47.4783 266.746 47.1158 266.509 47.1533C264.896 47.3908 263.383 47.9409 261.996 48.7785C261.796 48.9035 261.983 49.2285 262.183 49.1035Z" fill="#E8E8E8"/>
  <path d="M335.591 55.2667C335.016 55.5542 334.791 56.3043 335.279 56.7919C335.541 57.0544 335.766 56.9794 336.079 57.0794C336.279 57.1419 336.504 57.2669 336.467 57.467C336.442 57.6045 336.304 57.717 336.229 57.8295C336.104 57.992 335.954 58.1795 335.904 58.3796C335.854 58.6171 335.916 58.8546 336.104 59.0171C336.379 59.2547 336.742 59.1046 337.042 59.2547C337.667 59.5547 336.529 60.8673 337.492 61.1174C337.729 61.1799 337.829 60.8173 337.592 60.7548C337.192 60.6548 337.692 59.8922 337.729 59.6547C337.754 59.4422 337.717 59.2297 337.554 59.0796C337.129 58.6671 335.879 59.1046 336.517 58.0545C336.717 57.7295 337.079 57.3294 336.842 56.9044C336.767 56.7669 336.642 56.6919 336.492 56.6544C336.342 56.6294 336.104 56.6544 335.954 56.6419C335.291 56.6044 335.216 55.8668 335.779 55.5792C335.992 55.4917 335.804 55.1667 335.591 55.2667Z" fill="#E8E8E8"/>
  <path d="M338.367 57.367C337.954 57.5295 337.942 57.9796 338.192 58.3171C338.354 58.5546 338.617 58.6046 338.829 58.7671C339.354 59.1547 338.892 59.4797 338.804 59.9298C338.654 60.7049 339.479 60.4423 339.717 60.9424C339.917 61.3549 339.842 61.8175 340.354 62.005C340.58 62.0925 340.68 61.73 340.454 61.6425C340.092 61.5175 340.142 60.8299 339.942 60.5548C339.879 60.4548 339.792 60.3923 339.704 60.3173C339.654 60.2798 339.579 60.2923 339.542 60.2673C339.454 60.2548 339.392 60.1923 339.367 60.0673C339.192 59.9548 339.167 59.8423 339.317 59.7173C339.429 59.3672 339.654 59.1547 339.417 58.7921C339.329 58.6546 339.167 58.5546 339.029 58.4671C338.917 58.3921 338.104 57.8921 338.479 57.742C338.692 57.642 338.592 57.2795 338.367 57.367Z" fill="#E8E8E8"/>
  <path d="M362.519 82.6073C361.607 81.9572 361.757 80.5946 362.745 80.0945C363.495 79.7195 364.52 80.0695 364.907 80.8071C365.295 81.5447 364.957 82.5823 364.22 82.9699C363.445 83.3699 362.482 83.0199 362.044 82.3073C361.919 82.1073 361.594 82.2948 361.719 82.4948C362.282 83.4324 363.582 83.845 364.545 83.2199C365.457 82.6198 365.745 81.2322 365.07 80.3571C364.407 79.507 363.082 79.3069 362.244 79.9945C361.269 80.7821 361.344 82.2198 362.344 82.9448C362.532 83.0699 362.72 82.7448 362.519 82.6073Z" fill="#E8E8E8"/>
  <path d="M276.235 86.2077C276.372 85.7576 276.572 85.6326 276.81 85.8451C276.872 85.8701 276.935 85.9076 276.985 85.9327C277.072 85.9577 277.185 85.9827 277.272 85.9702C277.46 85.9452 277.61 85.8326 277.698 85.6826C278.01 85.1826 277.66 84.695 277.347 84.3075C277.185 84.1199 276.885 83.8699 276.922 83.5824C276.972 83.0323 277.297 83.2574 277.573 83.2198C277.773 83.1948 277.948 83.1198 278.048 82.9323C278.148 82.7698 278.123 82.5573 278.098 82.3823C278.085 82.2822 278.048 82.1697 278.048 82.0697C277.96 81.8072 278.085 81.6447 278.423 81.5822C278.585 81.6947 278.723 81.8322 278.835 82.0072C278.973 82.2072 279.298 82.0197 279.16 81.8197C278.823 81.3446 277.823 80.6946 277.66 81.6822C277.585 82.1822 278.048 82.7073 277.31 82.8323C276.947 82.8948 276.697 82.8948 276.585 83.3199C276.485 83.6699 276.622 84.0074 276.835 84.2825C276.935 84.4075 277.047 84.52 277.147 84.6325C277.272 84.7575 277.36 84.895 277.422 85.0576C277.272 85.2076 277.135 85.3576 276.985 85.5076C276.872 85.5326 276.585 85.2951 276.422 85.2826C275.697 85.2326 275.31 86.2077 276.035 86.5202C276.272 86.6202 276.46 86.2952 276.235 86.2077Z" fill="#E8E8E8"/>
  <path d="M279.285 85.6701C279.085 85.3451 278.773 84.8451 278.91 84.4325C279.01 84.12 279.435 83.9825 279.623 83.7324C279.91 83.3449 279.873 82.8323 279.61 82.4448C279.56 82.5448 279.498 82.6323 279.448 82.7323C280.16 82.7823 280.76 82.3573 280.973 81.6697C281.048 81.4322 280.685 81.3447 280.61 81.5697C280.448 82.0947 279.998 82.3948 279.448 82.3573C279.31 82.3448 279.21 82.5198 279.285 82.6448C279.448 82.8823 279.51 83.2199 279.348 83.4824C279.198 83.7074 278.998 83.7199 278.835 83.8824C278.685 84.0325 278.585 84.1825 278.548 84.4075C278.448 84.9201 278.723 85.4326 278.973 85.8577C279.085 86.0702 279.41 85.8827 279.285 85.6701Z" fill="#E8E8E8"/>
  <path d="M317.464 21.0755C318.127 21.838 318.54 22.7256 318.715 23.7132C318.752 23.9508 319.115 23.8508 319.077 23.6132C318.89 22.5631 318.427 21.613 317.727 20.8004C317.564 20.6254 317.302 20.8879 317.464 21.0755Z" fill="#E8E8E8"/>
  <path d="M317.789 21.1129C318.215 20.7254 319.915 19.2002 320.54 19.6377C320.852 19.8628 321.127 20.3753 321.327 20.7129C321.577 21.1379 321.777 21.588 321.94 22.0505C322.015 22.2755 322.377 22.1755 322.302 21.9505C322.09 21.3629 321.827 20.7879 321.49 20.2628C321.277 19.9253 320.952 19.3502 320.565 19.1877C320.127 19.0002 319.59 19.3877 319.227 19.6002C318.615 19.9503 318.052 20.3753 317.527 20.8504C317.352 21.0129 317.614 21.2754 317.789 21.1129Z" fill="#E8E8E8"/>
  <path d="M319.115 23.9508C320.09 23.1257 321.152 22.4506 322.328 21.9381C322.553 21.8381 322.353 21.513 322.14 21.613C320.94 22.1381 319.852 22.8382 318.852 23.6883C318.665 23.8383 318.927 24.1008 319.115 23.9508Z" fill="#E8E8E8"/>
  <path d="M321.29 20.4255C321.765 20.0254 322.828 19.0128 323.415 19.6754C323.84 20.1504 324.115 20.9255 324.365 21.5006C324.465 21.7256 324.79 21.5256 324.69 21.3131C324.453 20.7755 324.203 20.263 323.903 19.7629C323.753 19.5004 323.565 19.1003 323.253 18.9878C322.89 18.8628 322.503 19.1253 322.215 19.3003C321.79 19.5504 321.402 19.8379 321.027 20.1504C320.84 20.3255 321.115 20.588 321.29 20.4255Z" fill="#E8E8E8"/>
  <path d="M320.365 22.7132C320.952 22.9757 321.452 23.3257 321.915 23.7758C322.002 23.8633 322.14 23.8383 322.215 23.7383C322.765 22.9507 323.49 22.3506 324.365 21.9381C324.59 21.8381 324.39 21.513 324.178 21.613C323.24 22.0506 322.478 22.7007 321.89 23.5382C321.99 23.5257 322.09 23.5132 322.19 23.5007C321.715 23.0257 321.177 22.6631 320.565 22.3881C320.327 22.3006 320.14 22.6131 320.365 22.7132Z" fill="#E8E8E8"/>
  <path d="M323.09 36.6146C323.065 36.4771 323.028 36.3396 323.003 36.2021C323.115 36.0896 323.228 35.9896 323.365 35.9146C323.44 35.8646 323.528 35.8145 323.603 35.752C323.753 35.627 323.853 35.502 323.928 35.327C324.015 35.102 323.99 34.8894 323.965 34.6519C323.953 34.5769 323.94 34.4894 323.928 34.4144C323.915 34.3269 323.965 33.3143 324.365 33.6393C324.553 33.7893 324.815 33.5268 324.628 33.3768C324.353 33.1518 324.065 33.1893 323.815 33.4268C323.39 33.8393 323.59 34.3269 323.615 34.8269C323.653 35.577 322.678 35.6145 322.59 36.3021C322.553 36.6146 322.678 36.9022 323.003 36.9647C323.228 37.0147 323.328 36.6521 323.09 36.6146Z" fill="#EC615B"/>
  <path d="M324.465 35.5771C324.765 35.8146 325.19 35.6396 325.253 35.252C325.315 34.9145 325.09 34.602 325.115 34.2644C325.153 33.8019 325.465 33.4018 325.89 33.2393C326.115 33.1518 326.015 32.7893 325.79 32.8768C325.378 33.0268 325.053 33.3018 324.878 33.7144C324.79 33.9019 324.74 34.1144 324.74 34.3269C324.74 34.4269 324.753 34.527 324.765 34.6145C324.765 34.6145 324.953 35.4771 324.74 35.302C324.54 35.1645 324.278 35.4271 324.465 35.5771Z" fill="#EC615B"/>
  <path d="M292.212 76.8316C291.987 76.7066 291.962 76.4191 292.124 76.2316C292.287 76.044 292.587 75.969 292.824 76.0065C293.024 76.0441 293.249 76.1441 293.337 76.3441C293.437 76.5691 293.287 76.9567 292.987 76.9191C292.749 76.8816 292.649 77.2442 292.887 77.2817C293.312 77.3442 293.687 77.0567 293.749 76.6191C293.824 76.1566 293.449 75.7815 293.024 75.669C292.587 75.544 292.037 75.6815 291.774 76.0816C291.537 76.4441 291.637 76.9567 292.037 77.1567C292.237 77.2692 292.424 76.9441 292.212 76.8316Z" fill="#EC615B"/>
  <path d="M272.459 32.5893C272.534 32.3392 272.609 32.0767 272.672 31.8267C272.747 31.8517 272.822 31.8767 272.897 31.9017C272.997 31.9142 273.097 31.9767 273.197 32.0017C273.335 32.0392 273.497 32.0517 273.635 32.0142C273.96 31.9017 274.06 31.5891 274.06 31.2766C274.06 30.9641 273.947 30.6265 274.197 30.3765C274.397 30.1765 274.735 30.1015 274.997 30.164C275.86 30.364 275.772 31.4516 275.397 32.0392C275.272 32.2392 275.597 32.4267 275.722 32.2267C276.135 31.5641 276.235 30.564 275.56 30.0265C275.06 29.6264 274.21 29.7014 273.822 30.2265C273.56 30.5765 273.735 30.8891 273.66 31.2891C273.535 31.9517 272.597 31.3391 272.172 31.4891C271.372 31.7767 271.609 32.7893 272.322 32.9768C272.584 33.0143 272.684 32.6518 272.459 32.5893Z" fill="#EC615B"/>
  <path d="M353.769 87.4204C354.031 87.2203 354.319 87.2078 354.631 87.3703C354.769 87.4454 354.956 87.3203 354.906 87.1578C354.794 86.9328 354.819 86.7328 355.006 86.5578C355.094 86.1702 355.294 86.1452 355.594 86.4702C355.681 86.6453 355.931 86.5453 355.944 86.3702C355.944 86.2077 355.956 86.0327 355.981 85.8702C356.019 85.4701 356.281 85.3701 356.744 85.5576C356.844 85.7827 357.156 85.5826 357.069 85.3701C356.919 85.0201 356.519 84.9076 356.169 85.0451C355.644 85.2576 355.581 85.8827 355.569 86.3702C355.681 86.3327 355.806 86.3077 355.919 86.2702C355.744 85.8952 355.294 85.7577 354.919 85.9452C354.444 86.1952 354.419 86.7828 354.544 87.2453C354.631 87.1703 354.731 87.1078 354.819 87.0328C354.394 86.8203 353.994 86.8328 353.581 87.0828C353.381 87.2203 353.568 87.5454 353.769 87.4204Z" fill="#EC615B"/>
  <path d="M344.055 35.6271C343.38 35.8271 342.905 36.4022 342.817 37.1147C342.73 37.7898 343.13 38.6274 343.88 38.7024C344.43 38.7524 344.98 38.1274 344.643 37.6148C344.28 37.0522 343.58 37.4648 343.292 37.8648C342.48 39.0275 343.205 41.3027 344.88 40.7652C345.343 40.6151 345.918 40.0526 345.655 39.515C345.33 38.8524 344.605 39.565 344.417 39.9401C344.03 40.7151 343.93 41.8278 344.73 42.3778C345.355 42.8029 346.218 42.5278 346.418 41.7903C346.468 41.6277 346.23 41.4527 346.105 41.6027C345.243 42.6904 345.905 44.1905 347.305 44.2405C347.543 44.253 347.543 43.878 347.305 43.8655C346.255 43.828 345.705 42.7029 346.368 41.8778C346.268 41.8153 346.155 41.7528 346.055 41.6903C345.868 42.4028 344.993 42.2903 344.655 41.7653C344.355 41.2777 344.455 40.6151 344.73 40.1276C344.793 40.0026 345.13 39.415 345.33 39.79C345.43 39.9901 345.055 40.2776 344.93 40.3526C344.542 40.5651 344.03 40.5026 343.73 40.1776C343.417 39.8526 343.317 39.3525 343.355 38.9149C343.38 38.6774 343.43 38.4024 343.542 38.2024C343.592 38.1274 343.655 38.0523 343.705 37.9773C344.017 37.6773 344.005 37.7648 343.655 38.2524C343.405 38.2774 343.192 37.5898 343.18 37.4273C343.167 37.2648 343.192 37.1022 343.23 36.9522C343.355 36.4897 343.692 36.1396 344.155 36.0021C344.392 35.9271 344.292 35.5646 344.055 35.6271Z" fill="#EC615B"/>
  <path d="M276.798 43.2655C276.698 42.9655 276.748 42.6779 276.973 42.4404C277.223 42.1779 277.523 42.2154 277.835 42.2654C278.06 42.3029 278.235 42.3279 278.448 42.2029C278.61 42.1029 278.723 41.9154 278.798 41.7528C278.848 41.6278 278.885 41.5028 278.91 41.3778C278.923 41.2903 278.948 41.2028 278.96 41.1278C278.985 40.8277 279.198 40.7027 279.585 40.7527C279.573 40.9777 279.885 40.9902 279.948 40.8027C280.048 40.5152 280.173 40.2152 280.435 40.0401C280.823 39.7776 281.373 39.8276 281.448 40.3652C281.486 40.6027 281.836 40.5027 281.811 40.2652C281.736 39.7526 281.248 39.4276 280.735 39.5026C280.11 39.5901 279.773 40.1777 279.598 40.7152C279.723 40.7277 279.848 40.7527 279.96 40.7652C279.985 40.3902 279.635 40.1527 279.273 40.2027C278.685 40.2777 278.66 40.9402 278.535 41.3778C278.448 41.6903 278.373 41.9279 277.935 41.9153C277.81 41.9153 277.66 41.8278 277.523 41.8278C277.285 41.8278 277.048 41.9154 276.86 42.0529C276.447 42.3654 276.272 42.8905 276.435 43.378C276.51 43.5905 276.873 43.503 276.798 43.2655Z" fill="#5222D0"/>
  <path d="M346.78 55.3917C347.678 55.3917 348.405 54.6137 348.405 53.654C348.405 52.6943 347.678 51.9164 346.78 51.9164C345.883 51.9164 345.155 52.6943 345.155 53.654C345.155 54.6137 345.883 55.3917 346.78 55.3917Z" fill="#5222D0"/>
  <path d="M258.87 55.7794C259.464 55.7794 259.946 55.3036 259.946 54.7167C259.946 54.1299 259.464 53.6541 258.87 53.6541C258.277 53.6541 257.795 54.1299 257.795 54.7167C257.795 55.3036 258.277 55.7794 258.87 55.7794Z" fill="#5222D0"/>
  <path d="M274.785 101.034C275.282 101.034 275.685 100.598 275.685 100.059C275.685 99.5208 275.282 99.0842 274.785 99.0842C274.288 99.0842 273.885 99.5208 273.885 100.059C273.885 100.598 274.288 101.034 274.785 101.034Z" fill="#5222D0"/>
  <path d="M344.893 57.5545C345.935 57.5545 346.78 56.7541 346.78 55.7668C346.78 54.7795 345.935 53.9791 344.893 53.9791C343.85 53.9791 343.005 54.7795 343.005 55.7668C343.005 56.7541 343.85 57.5545 344.893 57.5545Z" fill="#EC615B"/>
  <path d="M307.526 19.1502C308.058 19.1502 308.489 18.6689 308.489 18.0751C308.489 17.4813 308.058 17 307.526 17C306.994 17 306.563 17.4813 306.563 18.0751C306.563 18.6689 306.994 19.1502 307.526 19.1502Z" fill="#EC615B"/>
  <path d="M360.357 76.4566C361.102 76.4566 361.707 75.785 361.707 74.9564C361.707 74.1279 361.102 73.4563 360.357 73.4563C359.611 73.4563 359.007 74.1279 359.007 74.9564C359.007 75.785 359.611 76.4566 360.357 76.4566Z" fill="#EC615B"/>
  <path d="M255.095 68.7058C256.586 68.7058 257.795 67.4688 257.795 65.943C257.795 64.4171 256.586 63.1802 255.095 63.1802C253.604 63.1802 252.395 64.4171 252.395 65.943C252.395 67.4688 253.604 68.7058 255.095 68.7058Z" fill="#EC615B"/>
  <path d="M270.447 115.648C268.021 111.998 264.771 108.023 265.196 103.372C265.134 103.435 265.071 103.497 265.009 103.56C265.384 103.547 265.709 103.61 266.059 103.76C266.196 103.822 266.396 103.722 266.334 103.547C266.209 103.197 265.984 102.997 265.734 102.735C265.271 102.247 265.234 101.747 265.259 101.109C265.296 100.097 265.121 99.1717 264.696 98.2466C264.658 98.3341 264.621 98.4341 264.583 98.5216C264.909 98.4091 265.234 98.2966 265.559 98.1841C265.646 98.1465 265.721 98.059 265.684 97.959C264.884 95.6338 265.284 93.021 265.459 90.6332C265.646 88.0829 265.896 85.5451 266.196 83.0074C266.096 83.0574 266.009 83.1199 265.909 83.1699C267.584 84.245 268.484 86.0827 269.184 87.8704C269.984 89.9081 270.672 91.9834 271.247 94.0961C272.447 98.4466 273.172 102.935 273.422 107.448C273.559 109.96 273.547 112.486 273.384 114.998C273.372 115.236 273.747 115.236 273.76 114.998C274.347 105.747 272.934 96.3088 269.509 87.6829C268.771 85.8202 267.821 83.9575 266.096 82.8448C265.959 82.7573 265.834 82.8698 265.809 83.0074C265.496 85.6326 265.246 88.2579 265.059 90.8832C264.884 93.246 264.533 95.7713 265.309 98.059C265.346 97.984 265.396 97.909 265.434 97.834C265.109 97.9465 264.784 98.059 264.458 98.1715C264.333 98.2091 264.296 98.3341 264.346 98.4466C264.596 98.9966 264.784 99.5717 264.846 100.184C264.896 100.697 264.821 101.197 264.859 101.709C264.884 102.059 264.946 102.385 265.159 102.685C265.409 103.035 265.809 103.26 265.959 103.672C266.046 103.597 266.146 103.535 266.234 103.46C265.834 103.285 265.434 103.197 264.996 103.21C264.884 103.21 264.821 103.297 264.809 103.397C264.383 108.123 267.659 112.161 270.122 115.861C270.259 116.036 270.584 115.849 270.447 115.648Z" fill="#E8E8E8"/>
  <path d="M266.209 83.8825C269.059 91.5333 270.772 99.5967 271.259 107.748C271.397 110.048 271.434 112.361 271.384 114.673C271.384 114.911 271.759 114.911 271.759 114.673C271.947 106.522 270.934 98.3466 268.746 90.4832C268.121 88.2204 267.384 85.9827 266.571 83.7825C266.496 83.5574 266.134 83.6574 266.209 83.8825Z" fill="#E8E8E8"/>
  <path d="M265.196 91.7834C267.046 92.9335 268.559 94.5212 269.622 96.4339C269.734 96.6464 270.059 96.4589 269.947 96.2464C268.859 94.2836 267.296 92.646 265.384 91.4583C265.184 91.3333 264.996 91.6584 265.196 91.7834Z" fill="#E8E8E8"/>
  <path d="M265.571 87.1703C266.621 87.9579 267.471 88.933 268.134 90.0582C268.259 90.2707 268.584 90.0832 268.459 89.8706C267.759 88.683 266.859 87.6704 265.759 86.8453C265.571 86.7078 265.384 87.0328 265.571 87.1703Z" fill="#E8E8E8"/>
  <path d="M271.072 102.059C271.297 100.509 271.734 98.9966 272.384 97.5715C272.484 97.359 272.159 97.1589 272.059 97.384C271.397 98.8466 270.947 100.372 270.709 101.972C270.672 102.197 271.034 102.297 271.072 102.059Z" fill="#E8E8E8"/>
  <path d="M271.972 94.9587C273.122 91.1457 275.11 87.6953 277.097 84.27C276.985 84.2575 276.872 84.245 276.76 84.22C277.785 89.2205 278.635 94.2461 279.285 99.3091C279.348 99.2466 279.41 99.1841 279.473 99.1216C279.035 99.0966 278.598 99.0716 278.16 99.0466C278.01 99.0341 277.897 99.2716 278.022 99.3717C278.773 99.9467 278.698 100.947 278.61 101.797C278.498 102.922 278.373 104.035 278.248 105.16C278.323 105.097 278.41 105.035 278.485 104.985C278.147 104.91 277.822 104.885 277.472 104.885C277.335 104.885 277.235 105.047 277.31 105.172C278.273 106.822 276.772 108.548 276.072 109.973C275.372 111.41 274.922 112.961 274.697 114.548C274.66 114.786 275.022 114.886 275.06 114.648C275.322 112.723 275.947 110.898 276.91 109.21C277.635 107.935 278.473 106.422 277.635 104.985C277.585 105.085 277.522 105.172 277.472 105.272C277.785 105.26 278.085 105.285 278.385 105.36C278.51 105.385 278.61 105.31 278.623 105.185C278.76 103.897 278.96 102.61 279.023 101.322C279.06 100.522 278.948 99.6592 278.285 99.1341C278.235 99.2466 278.197 99.3466 278.147 99.4592C278.585 99.4842 279.023 99.5092 279.46 99.5342C279.548 99.5342 279.66 99.4467 279.648 99.3466C278.985 94.2586 278.135 89.183 277.097 84.1575C277.06 83.9949 276.835 83.9824 276.76 84.1074C274.76 87.5578 272.759 91.0457 271.597 94.8836C271.547 95.0837 271.909 95.1837 271.972 94.9587Z" fill="#E8E8E8"/>
  <path d="M276.747 84.6826C275.485 92.1334 274.622 99.6592 274.16 107.21C274.147 107.448 274.522 107.448 274.535 107.21C274.985 99.6967 275.847 92.2084 277.097 84.7826C277.148 84.5451 276.785 84.445 276.747 84.6826Z" fill="#E8E8E8"/>
  <path d="M272.959 92.2459C273.472 93.9836 274.072 95.6838 274.747 97.3589C274.835 97.584 275.197 97.484 275.11 97.2589C274.435 95.5837 273.847 93.871 273.322 92.1459C273.247 91.9083 272.884 92.0083 272.959 92.2459Z" fill="#E8E8E8"/>
  <path d="M230.23 99.6217C234.518 98.209 239.218 97.2839 243.744 97.5215C246.094 97.6465 248.332 98.3716 250.557 99.0466C252.72 99.6967 254.882 100.372 257.058 100.997C259.508 101.697 261.983 102.26 264.521 102.435C264.759 102.447 264.759 102.072 264.521 102.059C259.846 101.759 255.333 100.109 250.882 98.7591C248.769 98.1215 246.669 97.409 244.456 97.1964C242.181 96.9839 239.868 97.1964 237.618 97.509C235.068 97.8715 232.555 98.4591 230.117 99.2592C229.905 99.3342 230.005 99.6967 230.23 99.6217Z" fill="#E8E8E8"/>
  <path d="M243.569 97.3715C247.219 96.5714 250.882 95.7713 254.482 94.7337C258.02 93.7086 261.471 92.0959 265.159 91.6458C265.396 91.6208 265.396 91.2458 265.159 91.2708C261.521 91.7208 258.12 93.2835 254.62 94.3086C250.957 95.3838 247.219 96.1963 243.481 97.0214C243.231 97.0589 243.331 97.4215 243.569 97.3715Z" fill="#E8E8E8"/>
  <path d="M270.572 90.7958C271.572 90.7333 272.584 90.7208 273.585 90.7583C273.822 90.7708 273.822 90.3958 273.585 90.3832C272.572 90.3457 271.572 90.3582 270.572 90.4208C270.334 90.4458 270.334 90.8208 270.572 90.7958Z" fill="#E8E8E8"/>
  <path d="M235.03 114.411C239.231 113.811 243.394 114.873 247.519 115.524C249.482 115.836 251.457 116.024 253.445 115.974C255.67 115.911 257.895 115.686 260.096 116.074C260.333 116.111 260.433 115.749 260.196 115.711C258.033 115.336 255.87 115.523 253.682 115.599C251.482 115.674 249.319 115.448 247.157 115.098C243.106 114.436 239.043 113.473 234.93 114.061C234.693 114.086 234.793 114.448 235.03 114.411Z" fill="#E8E8E8"/>
  <path d="M260.008 119.311C260.058 118.924 261.546 119.099 261.808 119.099C262.133 119.099 263.333 118.911 263.496 119.261C263.521 119.174 263.546 119.086 263.558 118.999C262.946 119.411 262.271 119.586 261.533 119.536C261.296 119.524 261.296 119.899 261.533 119.912C262.333 119.962 263.071 119.762 263.746 119.324C263.833 119.261 263.858 119.161 263.808 119.061C263.696 118.824 263.508 118.761 263.258 118.724C262.671 118.636 262.021 118.711 261.433 118.711C260.871 118.711 259.708 118.499 259.62 119.299C259.595 119.549 259.983 119.549 260.008 119.311Z" fill="#E8E8E8"/>
  <path d="M260.283 113.123C260.046 113.248 259.796 113.211 259.545 113.011C259.533 113.111 259.52 113.211 259.508 113.311C259.821 113.073 260.183 112.923 260.583 112.936C260.908 112.948 261.196 113.123 261.521 113.136C261.821 113.148 262.096 113.023 262.396 112.986C262.871 112.911 263.308 113.011 263.733 113.248C263.946 113.361 264.133 113.048 263.921 112.923C263.608 112.748 263.296 112.623 262.933 112.598C262.421 112.548 261.946 112.823 261.458 112.761C261.058 112.711 260.733 112.548 260.308 112.586C259.933 112.623 259.608 112.773 259.308 112.998C259.22 113.061 259.17 113.211 259.27 113.298C259.608 113.573 259.958 113.661 260.371 113.511C260.608 113.411 260.508 113.048 260.283 113.123Z" fill="#E8E8E8"/>
  <path d="M241.331 118.424C241.969 119.211 242.819 118.474 243.531 118.324C244.119 118.199 244.581 118.549 245.156 118.549C245.769 118.549 246.432 118.261 246.969 118.649C247.169 118.786 247.357 118.461 247.157 118.324C246.832 118.086 246.482 118.049 246.081 118.074C245.481 118.124 245.006 118.199 244.406 118.011C243.994 117.874 243.644 117.874 243.231 118.024C242.731 118.211 242.019 118.711 241.568 118.161C241.443 117.974 241.168 118.249 241.331 118.424Z" fill="#E8E8E8"/>
  <path d="M281.71 115.924C282.535 115.599 283.198 115.699 284.061 115.799C284.598 115.861 284.973 115.674 285.448 115.461C285.948 115.236 286.286 115.348 286.736 115.599C286.923 115.699 287.098 115.786 287.311 115.824C287.949 115.949 288.811 115.524 289.349 115.986C289.536 116.149 289.799 115.874 289.611 115.724C289.136 115.323 288.624 115.411 288.036 115.461C287.549 115.499 287.173 115.411 286.761 115.173C286.511 115.036 286.273 114.911 285.986 114.911C285.723 114.911 285.486 115.023 285.248 115.123C284.686 115.374 284.348 115.449 283.723 115.348C282.986 115.236 282.31 115.274 281.61 115.549C281.385 115.649 281.485 116.011 281.71 115.924Z" fill="#E8E8E8"/>
  <path d="M363.982 95.8464C368.42 93.8086 372.883 91.7584 377.559 90.3332C382.272 88.9081 387.172 88.208 392.098 88.3205C394.898 88.383 397.698 88.7081 400.449 89.2706C400.686 89.3206 400.786 88.9581 400.549 88.9081C395.648 87.8955 390.61 87.6704 385.647 88.258C380.721 88.8331 376.008 90.2832 371.42 92.1459C368.845 93.1961 366.307 94.3587 363.782 95.5213C363.582 95.6213 363.77 95.9464 363.982 95.8464Z" fill="#E8E8E8"/>
  <path d="M363.995 88.233C367.42 87.4829 371.008 87.883 374.171 89.3956C374.383 89.4956 374.583 89.1706 374.358 89.0706C371.095 87.5204 367.42 87.0954 363.895 87.8705C363.657 87.9205 363.757 88.283 363.995 88.233Z" fill="#E8E8E8"/>
  <path d="M371.633 105.435C372.171 104.797 373.021 105.522 373.583 105.747C374.046 105.935 374.408 105.885 374.858 105.685C375.583 105.36 376.171 105.647 376.896 105.622C377.646 105.597 378.259 104.885 378.946 105.51C379.121 105.672 379.396 105.41 379.209 105.247C378.759 104.847 378.271 104.772 377.709 104.972C377.421 105.085 377.209 105.222 376.884 105.247C376.634 105.26 376.384 105.197 376.134 105.172C375.833 105.135 375.533 105.085 375.246 105.135C374.771 105.222 374.396 105.597 373.871 105.46C373.496 105.36 373.183 105.097 372.821 104.947C372.308 104.747 371.721 104.71 371.345 105.16C371.208 105.36 371.47 105.622 371.633 105.435Z" fill="#E8E8E8"/>
  <path d="M246.031 61.0675C244.219 60.5674 242.906 58.8047 242.931 56.917C242.956 54.8043 244.856 52.554 247.069 52.604C249.394 52.6665 250.644 55.4919 250.419 57.5296C250.157 59.9549 247.744 61.48 245.431 60.8425C245.194 60.7799 245.094 61.1425 245.331 61.205C247.194 61.7175 249.207 60.9925 250.207 59.3173C251.207 57.6296 250.869 55.3918 249.807 53.8042C248.732 52.204 246.707 51.8039 245.044 52.7665C243.456 53.7042 242.369 55.6419 242.594 57.4921C242.819 59.3173 244.156 60.93 245.931 61.4175C246.169 61.4925 246.269 61.13 246.031 61.0675Z" fill="#E8E8E8"/>
  <path d="M242.256 70.556C242.644 71.006 243.156 71.3061 243.756 71.3686C244.069 71.4061 244.381 71.3686 244.681 71.2561C245.156 71.0935 245.544 70.7435 246.094 70.8435C246.782 70.956 247.294 71.4311 248.019 71.3436C248.807 71.2561 249.494 70.6935 250.319 70.756C251.07 70.8185 251.707 71.3311 252.445 71.4811C253.095 71.6186 253.507 71.3811 254.057 71.0935C255.47 70.3435 257.083 71.2936 258.558 70.7935C258.783 70.7185 258.683 70.356 258.458 70.431C257.133 70.8685 255.745 70.1434 254.407 70.531C253.67 70.7435 253.207 71.2936 252.37 71.081C251.732 70.9185 251.182 70.531 250.532 70.4185C249.919 70.306 249.382 70.5185 248.819 70.731C248.494 70.856 248.144 70.9935 247.782 70.9935C247.332 70.9935 246.957 70.7435 246.557 70.5935C245.982 70.381 245.556 70.456 245.006 70.706C244.106 71.1185 243.194 71.106 242.519 70.2935C242.369 70.1059 242.094 70.3685 242.256 70.556Z" fill="#E8E8E8"/>
  <path d="M251.92 67.2931C252.907 67.8432 254.045 67.0306 255.02 67.5431C255.408 67.7432 255.658 68.0682 256.133 68.0057C256.52 67.9557 256.82 67.6557 257.12 67.4306C257.795 66.9056 258.345 67.0306 259.083 67.3306C259.633 67.5556 260.158 67.6932 260.746 67.6807C262.071 67.6557 263.383 67.0806 264.696 67.5181C264.921 67.5931 265.021 67.2306 264.796 67.1556C263.671 66.7806 262.546 67.1056 261.408 67.2431C260.733 67.3306 260.096 67.3181 259.458 67.0681C258.933 66.8681 258.408 66.568 257.82 66.643C257.433 66.693 257.145 66.9181 256.845 67.1556C256.595 67.3556 256.358 67.6056 256.02 67.6056C255.683 67.6181 255.483 67.3556 255.195 67.2056C254.22 66.668 253.057 67.4931 252.095 66.9556C251.895 66.8431 251.707 67.1681 251.92 67.2931Z" fill="#E8E8E8"/>
  <path d="M362.845 59.4923C363.595 59.2922 364.132 59.2922 364.795 59.7298C365.12 59.9423 365.457 60.1048 365.845 60.1798C366.532 60.3049 367.245 60.1423 367.908 59.9673C368.72 59.7423 369.545 59.4423 370.395 59.4423C371.295 59.4423 372.033 60.0673 372.946 59.9923C374.646 59.8423 375.708 58.1546 377.534 58.3546C379.121 58.5296 380.697 59.5298 382.259 58.7672C382.472 58.6672 382.284 58.3421 382.072 58.4421C380.446 59.2297 378.684 57.9046 377.009 57.9671C376.246 57.9921 375.596 58.3171 374.946 58.6922C374.158 59.1672 373.296 59.8173 372.308 59.5798C371.858 59.4798 371.47 59.2297 371.02 59.1297C370.67 59.0547 370.32 59.0547 369.97 59.0922C369.195 59.1672 368.458 59.4298 367.72 59.6298C366.857 59.8548 365.957 60.0173 365.145 59.5298C364.807 59.3172 364.507 59.0672 364.107 58.9922C363.645 58.9047 363.182 59.0297 362.744 59.1422C362.519 59.1922 362.607 59.5548 362.845 59.4923Z" fill="#E8E8E8"/>
  <path d="M376.458 62.7926C377.171 62.3801 377.996 62.3051 378.746 62.6551C379.196 62.8551 379.546 63.1177 380.059 63.0802C381.221 62.9926 382.022 61.9675 383.234 62.5176C383.597 62.6801 383.947 62.8551 384.359 62.7926C384.872 62.7051 385.234 62.2926 385.697 62.1176C386.835 61.68 388.122 62.3176 389.31 62.055C389.547 62.005 389.447 61.6425 389.21 61.6925C388.035 61.9425 386.822 61.3425 385.659 61.73C385.122 61.905 384.709 62.4176 384.122 62.4176C383.534 62.4176 383.072 61.9425 382.459 61.955C381.334 61.98 380.434 63.1052 379.284 62.5551C378.259 62.055 377.284 61.905 376.246 62.5051C376.058 62.5801 376.246 62.9051 376.458 62.7926Z" fill="#E8E8E8"/>
  <path d="M366.72 81.4697C367.52 81.2197 368.083 81.4197 368.808 81.7322C369.208 81.8948 369.583 81.9323 370.008 81.8573C370.533 81.7447 371.008 81.4947 371.521 81.3572C372.296 81.1572 372.733 81.5822 373.408 81.8448C374.408 82.2323 375.221 81.5197 376.146 81.2947C377.321 81.0072 378.396 81.8448 379.584 81.6697C379.821 81.6322 379.721 81.2697 379.484 81.3072C378.334 81.4822 377.296 80.6571 376.134 80.9197C375.583 81.0447 375.108 81.3447 374.571 81.5072C373.783 81.7447 373.333 81.3197 372.646 81.0447C371.708 80.6821 370.883 81.2822 369.983 81.4822C369.333 81.6322 368.895 81.3072 368.308 81.1072C367.745 80.9197 367.17 80.9447 366.62 81.1197C366.382 81.1822 366.482 81.5447 366.72 81.4697Z" fill="#E8E8E8"/>
  <path opacity="0.22" d="M390.735 119.411C373.996 122.612 357.244 125.8 340.505 129C320.465 122.749 300.438 116.499 280.398 110.248C307.113 110.348 333.829 110.435 360.532 110.535C370.608 113.498 380.672 116.461 390.735 119.411Z" fill="#28AFE2"/>
  <path opacity="0.19" d="M371.283 114.686C357.169 118.074 343.042 121.462 328.928 124.85C313.001 119.986 297.062 115.123 281.135 110.248C302.738 108.435 324.353 106.622 345.955 104.81C354.394 108.11 362.832 111.398 371.283 114.686Z" fill="#28AFE2"/>
  <path d="M280.335 72.4437C280.523 84.9076 280.723 97.3714 280.91 109.848C296.737 113.423 312.551 116.986 328.378 120.562C328.353 106.135 328.316 91.7083 328.291 77.2817C312.301 75.6565 296.312 74.0438 280.335 72.4437Z" fill="#8CB1BF" stroke="#3894B4" stroke-width="2" stroke-miterlimit="10"/>
  <path d="M363.22 69.1558C363.157 82.9073 363.095 96.6589 363.032 110.41C351.518 113.798 339.992 117.174 328.478 120.562C328.441 105.972 328.403 91.3958 328.366 76.8066C339.979 74.2689 351.606 71.7186 363.22 69.1558Z" fill="#8CB1BF" stroke="#3894B4" stroke-width="2" stroke-miterlimit="10"/>
  <path d="M327.966 77.1568C312.151 75.5191 296.35 73.8814 280.548 72.2437C290.961 69.5934 301.375 66.9431 311.789 64.2928C328.816 65.9305 345.855 67.5682 362.882 69.2184C351.243 71.8562 339.604 74.5065 327.966 77.1568Z" fill="#8CB1BF" stroke="#3894B4" stroke-width="2" stroke-miterlimit="10"/>
  <path d="M339.542 66.9806C335.479 66.7055 331.428 66.4305 327.366 66.1555C319.365 69.0808 311.364 72.0061 303.375 74.9315C303.3 88.1954 303.225 101.459 303.138 114.723C306.726 115.586 310.314 116.436 313.902 117.299C313.752 103.56 313.589 89.8331 313.439 76.0941C322.14 73.0688 330.841 70.0184 339.542 66.9806Z" fill="white" stroke="#3894B4" stroke-width="2" stroke-miterlimit="10"/>
  <path d="M343.042 116.136C346.355 115.123 349.681 114.111 352.993 113.098C352.881 99.3592 352.756 85.6327 352.643 71.8936C336.417 69.9809 320.177 68.0682 303.95 66.1555C301.138 66.8556 298.337 67.5556 295.524 68.2682C311.401 70.731 327.278 73.1813 343.167 75.644C343.13 89.1455 343.092 102.635 343.042 116.136Z" fill="white" stroke="#3894B4" stroke-width="2" stroke-miterlimit="10"/>
  <path d="M343.88 48.3535C345.03 48.8285 345.218 51.8039 344.592 54.1291C342.192 63.0426 326.653 66.6555 325.915 65.2929C325.603 64.7053 328.278 63.5927 333.904 58.0171C340.104 51.8664 342.367 47.7409 343.88 48.3535Z" fill="#8CB1BF" stroke="#3894B4" stroke-width="2" stroke-miterlimit="10"/>
  <path d="M311.901 54.2167C312.201 55.6293 312.939 57.267 317.677 61.8175C320.852 64.8679 322.453 66.393 322.903 66.093C323.815 65.4679 320.79 59.4547 317.915 55.1668C316.439 52.9665 313.852 49.1286 312.539 49.6286C311.601 49.9787 311.526 52.454 311.901 54.2167Z" fill="#8CB1BF" stroke="#3894B4" stroke-width="2" stroke-miterlimit="10"/>
  <path d="M323.828 71.3186C325.664 71.3186 327.153 69.7458 327.153 67.8057C327.153 65.8656 325.664 64.2928 323.828 64.2928C321.991 64.2928 320.502 65.8656 320.502 67.8057C320.502 69.7458 321.991 71.3186 323.828 71.3186Z" fill="white" stroke="#3894B4" stroke-width="2" stroke-miterlimit="10"/>
  <path d="M323.89 66.3806C325.778 64.5429 327.691 62.5927 329.603 60.5549C333.829 56.0544 337.592 51.6164 340.93 47.316C341.655 47.2284 343.08 47.1409 343.68 47.9535C344.555 49.1162 343.167 51.4164 342.517 52.504C339.204 58.0172 328.666 63.8803 323.89 66.3806Z" fill="white" stroke="#3894B4" stroke-width="2" stroke-miterlimit="10"/>
  <path d="M312.664 49.4411C313.126 49.0161 314.564 49.8787 315.414 50.3912C322.465 54.6292 323.327 64.6553 323.465 66.4805C317.714 59.0547 311.501 50.5287 312.664 49.4411Z" fill="white" stroke="#3894B4" stroke-width="2" stroke-miterlimit="10"/>
  <path d="M282.948 79.1945C288.649 79.2945 294.374 79.2695 300.063 79.532C305.813 79.7945 311.514 80.5946 317.189 81.5822C320.39 82.1448 323.59 82.7574 326.79 83.3824C327.028 83.4324 327.128 83.0699 326.891 83.0199C321.29 81.9323 315.677 80.8572 310.014 80.0946C304.288 79.332 298.562 79.082 292.787 78.9819C289.511 78.9319 286.223 78.8694 282.948 78.8194C282.711 78.8194 282.711 79.1945 282.948 79.1945Z" fill="white"/>
  <path d="M331.516 83.1949C341.092 80.3196 350.856 78.0818 360.744 76.5066C360.982 76.4691 360.882 76.1066 360.644 76.1441C350.768 77.7193 341.005 79.957 331.416 82.8324C331.191 82.8949 331.291 83.2574 331.516 83.1949Z" fill="white"/>
  <path d="M314.314 100.409C314.314 104.197 314.314 107.973 314.314 111.761C314.314 111.998 314.689 111.998 314.689 111.761C314.689 107.973 314.689 104.197 314.689 100.409C314.689 100.172 314.314 100.172 314.314 100.409Z" fill="white"/>
  <path d="M315.552 109.498C315.552 111.386 315.552 113.286 315.552 115.173C315.552 115.411 315.927 115.411 315.927 115.173C315.927 113.286 315.927 111.386 315.927 109.498C315.927 109.248 315.552 109.248 315.552 109.498Z" fill="white"/>
  <path d="M341.43 90.7707C341.43 93.7961 341.43 96.8214 341.43 99.8468C341.43 100.084 341.805 100.084 341.805 99.8468C341.805 96.8214 341.805 93.7961 341.805 90.7707C341.805 90.5332 341.43 90.5332 341.43 90.7707Z" fill="white"/>
  <path d="M342.105 103.36C342.105 105.397 342.105 107.448 342.105 109.485C342.105 109.723 342.48 109.723 342.48 109.485C342.48 107.448 342.48 105.397 342.48 103.36C342.48 103.122 342.105 103.122 342.105 103.36Z" fill="white"/>
  <path d="M296.412 90.2832C296.412 91.9209 296.412 93.5586 296.412 95.1963C296.412 95.4338 296.787 95.4338 296.787 95.1963C296.787 93.5586 296.787 91.9209 296.787 90.2832C296.787 90.0457 296.412 90.0457 296.412 90.2832Z" fill="white"/>
  <path d="M295.349 96.5214C295.349 97.8465 295.349 99.1717 295.349 100.497C295.349 100.734 295.725 100.734 295.725 100.497C295.725 99.1717 295.725 97.8465 295.725 96.5214C295.725 96.2838 295.349 96.2838 295.349 96.5214Z" fill="white"/>
  <path opacity="0.21" d="M362.419 110.36C351.118 113.798 339.817 117.249 328.516 120.687C328.516 106.335 328.516 91.9834 328.516 77.6318C339.879 75.0315 351.243 72.4312 362.607 69.8434C362.557 83.3449 362.494 96.8464 362.419 110.36Z" fill="#666666"/>
  <path opacity="0.21" d="M363.17 110.523C351.656 113.673 340.154 116.824 328.641 119.974C328.566 107.41 328.491 94.8587 328.403 82.2948C333.491 86.9578 338.592 91.6208 343.68 96.2964C350.131 94.1586 356.594 92.0209 363.045 89.8831C363.095 96.7589 363.132 103.647 363.17 110.523Z" fill="#666666"/>
  <path opacity="0.14" d="M344.442 49.0036C343.83 48.8786 343.18 53.0916 341.042 56.5545C339.104 59.6923 335.241 63.3677 326.728 65.493C327.828 65.393 329.503 65.1679 331.466 64.5929C333.504 64.0053 342.105 61.505 344.367 54.7918C345.292 52.0165 344.942 49.1036 344.442 49.0036Z" fill="#666666"/>
  <path opacity="0.2" d="M313.577 75.7816C317.189 78.2319 320.815 80.6822 324.428 83.1325C321.102 82.5574 317.79 81.9948 314.464 81.4198C314.602 88.0955 315.152 95.5839 316.427 103.71C317.264 109.048 318.302 114.011 319.452 118.561C317.689 118.074 315.914 117.586 314.152 117.086C313.964 103.322 313.777 89.5457 313.577 75.7816Z" fill="#666666"/>
  <path opacity="0.13" d="M314.452 75.8941C319.765 75.1315 325.09 74.369 330.403 73.6064C328.066 73.2938 325.728 72.9813 323.39 72.6813C321.777 73.2813 320.452 73.6939 319.527 73.9689C318.577 74.2439 317.864 74.419 316.802 74.8315C315.789 75.2191 314.977 75.6191 314.452 75.8941Z" fill="#666666"/>
</svg>
