<svg width="20" height="27" viewBox="0 0 20 27" fill="none" xmlns="http://www.w3.org/2000/svg">
    <path d="M8.51056 15.6028C8.51056 15.8639 8.29886 16.0756 8.03775 16.0756C7.77664 16.0756 7.56494 15.8639 7.56494 15.6028C7.56494 15.3417 7.77664 15.13 8.03775 15.13C8.29886 15.13 8.51056 15.3417 8.51056 15.6028Z" fill="#FFC066"/>
    <path d="M9.92897 11.8203C6.79545 11.8203 4.25525 14.3605 4.25525 17.494C4.25525 20.6275 6.79545 23.1677 9.92897 23.1677C13.0625 23.1677 15.6027 20.6275 15.6027 17.494C15.5992 14.3619 13.0611 11.8237 9.92897 11.8203ZM8.03773 14.1843C8.82105 14.1843 9.45616 14.8194 9.45616 15.6028C9.45616 16.3861 8.82105 17.0212 8.03773 17.0212C7.25441 17.0212 6.6193 16.3861 6.6193 15.6028C6.6193 14.8194 7.25441 14.1843 8.03773 14.1843ZM7.4264 20.6652L6.75782 19.9966L12.4315 14.3229L13.1001 14.9914L7.4264 20.6652ZM11.8202 20.8037C11.0369 20.8037 10.4018 20.1686 10.4018 19.3852C10.4018 18.6019 11.0369 17.9668 11.8202 17.9668C12.6035 17.9668 13.2386 18.6019 13.2386 19.3852C13.2386 20.1686 12.6035 20.8037 11.8202 20.8037Z" fill="#FFC066"/>
    <path d="M12.293 19.3852C12.293 19.6463 12.0813 19.8581 11.8202 19.8581C11.5591 19.8581 11.3474 19.6463 11.3474 19.3852C11.3474 19.1241 11.5591 18.9124 11.8202 18.9124C12.0813 18.9124 12.293 19.1241 12.293 19.3852Z" fill="#FFC066"/>
    <path d="M12.2953 4.95539e-05C11.962 -0.00295168 11.6415 0.130488 11.4088 0.369433C10.5738 1.13775 9.28903 1.13775 8.45376 0.369433C8.21897 0.133027 7.89945 4.95539e-05 7.56632 4.95539e-05C7.23318 4.95539e-05 6.91366 0.133027 6.67887 0.369433C6.4524 0.568899 6.19198 0.726118 5.9101 0.833701L7.85721 4.72815H12.0008L13.9479 0.833239C13.6664 0.725887 13.4065 0.568669 13.1805 0.369433C12.9482 0.130488 12.6285 -0.00272082 12.2953 4.95539e-05Z" fill="#FFC066"/>
    <path d="M19.858 16.5484C19.8525 11.5894 15.8338 7.57054 10.8746 7.565H8.9834C4.0242 7.57054 0.00554075 11.5894 0 16.5484V25.059C0 25.8423 0.635108 26.4774 1.41843 26.4774H18.4396C19.2229 26.4774 19.858 25.8423 19.858 25.059V16.5484ZM9.92902 24.1134C6.27328 24.1134 3.30967 21.1498 3.30967 17.494C3.30967 13.8383 6.27328 10.8747 9.92902 10.8747C13.5848 10.8747 16.5484 13.8383 16.5484 17.494C16.5444 21.1481 13.5831 24.1094 9.92902 24.1134Z" fill="#FFC066"/>
    <path d="M12.7659 6.14658C12.7659 5.88547 12.5542 5.67377 12.2931 5.67377H7.56497C7.30387 5.67377 7.09216 5.88547 7.09216 6.14658C7.09216 6.40769 7.30387 6.61939 7.56497 6.61939H12.2931C12.5542 6.61939 12.7659 6.40769 12.7659 6.14658Z" fill="#FFC066"/>
    <path d="M20 6.38299C19.4819 6.47972 18.9467 6.36382 18.5153 6.06162C18.274 5.87624 17.966 5.80075 17.6664 5.85384C17.3669 5.90694 17.1035 6.08355 16.9408 6.34051C16.6381 6.77176 16.1745 7.06334 15.6546 7.14899C15.5316 7.17254 15.4067 7.18524 15.2811 7.18686C14.8847 7.17647 14.4994 7.05365 14.1702 6.83225C14.0083 6.72051 13.8246 6.64479 13.6311 6.60993C13.6842 6.46125 13.7112 6.30449 13.7114 6.14658C13.7098 5.90002 13.6466 5.65784 13.527 5.44221C13.8031 5.34548 14.0961 5.3067 14.3876 5.32863C14.6891 5.36741 14.9934 5.27784 15.2261 5.08206C15.4586 4.88606 15.5988 4.60187 15.6121 4.29805C15.6629 3.77445 15.9178 3.29217 16.3214 2.95511C16.7228 2.61435 17.2434 2.44767 17.7682 2.49177C18.069 2.52663 18.371 2.43797 18.6051 2.2459L19.215 2.96942C18.8165 3.31595 18.2941 3.48494 17.7682 3.43739C17.4664 3.39468 17.161 3.48217 16.9274 3.67772C16.694 3.87349 16.5543 4.15907 16.5437 4.46335C16.4938 4.98718 16.2389 5.46992 15.8345 5.80629C15.6177 5.99837 15.3584 6.13619 15.0779 6.20799C15.2121 6.24447 15.3529 6.24931 15.4893 6.2223C15.789 6.16782 16.0526 5.99144 16.2175 5.73518C16.8519 4.84266 18.0849 4.62403 18.9881 5.24367C19.23 5.42928 19.5387 5.50455 19.839 5.45168L20 6.38299Z" fill="#FFC066"/>
</svg>
