<svg width="25" height="23" viewBox="0 0 25 23" fill="none" xmlns="http://www.w3.org/2000/svg">
  <path d="M7.26355 12.8828C7.96611 12.8828 8.64521 12.8374 9.28782 12.753V5.70934C8.64527 5.62492 7.96611 5.57954 7.26355 5.57954C3.25204 5.57954 6.10352e-05 7.05445 6.10352e-05 8.87392V9.58837C6.10352e-05 11.4078 3.25204 12.8828 7.26355 12.8828Z" fill="#95E283"/>
  <path d="M7.26355 16.5607C7.96611 16.5607 8.64521 16.5153 9.28782 16.431V14.3664C8.64508 14.4508 7.9663 14.4968 7.26355 14.4968C3.76194 14.4968 0.839327 13.3729 0.152825 11.8772C0.0528498 12.095 6.10352e-05 12.3206 6.10352e-05 12.5519V13.2663C6.10352e-05 15.0858 3.25204 16.5607 7.26355 16.5607Z" fill="#95E283"/>
  <path d="M9.28776 18.2049V18.0444C8.64502 18.1288 7.96624 18.1748 7.26349 18.1748C3.76188 18.1748 0.839266 17.0509 0.152764 15.5552C0.0527887 15.773 0 15.9986 0 16.2299V16.9443C0 18.7638 3.25198 20.2387 7.26349 20.2387C8.06572 20.2387 8.83732 20.1796 9.55887 20.0707C9.38002 19.7048 9.28776 19.319 9.28776 18.9193V18.2049Z" fill="#95E283"/>
  <path d="M17.7365 0C13.725 0 10.473 1.47491 10.473 3.29438V4.00883C10.473 5.8283 13.725 7.30321 17.7365 7.30321C21.748 7.30321 25 5.8283 25 4.00883V3.29438C25 1.47491 21.748 0 17.7365 0Z" fill="#95E283"/>
  <path d="M17.7365 8.91725C14.2349 8.91725 11.3123 7.79343 10.6258 6.29761C10.5258 6.51542 10.473 6.74102 10.473 6.97234V7.6868C10.473 9.50626 13.725 10.9812 17.7365 10.9812C21.748 10.9812 25 9.50626 25 7.6868V6.97234C25 6.74102 24.9472 6.51542 24.8472 6.29761C24.1607 7.79343 21.2381 8.91725 17.7365 8.91725Z" fill="#95E283"/>
  <path d="M17.7365 12.5953C14.2349 12.5953 11.3123 11.4714 10.6258 9.97563C10.5258 10.1934 10.473 10.419 10.473 10.6504V11.3648C10.473 13.1844 13.725 14.6593 17.7365 14.6593C21.748 14.6593 25 13.1844 25 11.3648V10.6504C25 10.419 24.9472 10.1934 24.8472 9.97563C24.1607 11.4715 21.2381 12.5953 17.7365 12.5953Z" fill="#95E283"/>
  <path d="M17.7365 16.4718C14.2349 16.4718 11.3123 15.348 10.6258 13.8522C10.5258 14.0701 10.473 14.2956 10.473 14.5269V15.2414C10.473 17.0608 13.725 18.5358 17.7365 18.5358C21.748 18.5358 25 17.0608 25 15.2414V14.5269C25 14.2956 24.9472 14.0699 24.8472 13.8522C24.1607 15.3479 21.2381 16.4718 17.7365 16.4718Z" fill="#95E283"/>
  <path d="M17.7365 20.1498C14.2349 20.1498 11.3123 19.026 10.6258 17.5302C10.5258 17.7481 10.473 17.9738 10.473 18.2049V18.9193C10.473 20.7388 13.725 22.2137 17.7365 22.2137C21.748 22.2137 25 20.7388 25 18.9193V18.2048C25 17.9736 24.9472 17.7479 24.8472 17.5302C24.1607 19.0259 21.2381 20.1498 17.7365 20.1498Z" fill="#95E283"/>
</svg>
