<svg width="20" height="27" viewBox="0 0 20 27" fill="none" xmlns="http://www.w3.org/2000/svg">
    <path d="M17.5 8.74996H16.25V6.24995C16.25 2.80001 13.45 0 10 0C6.55001 0 3.74999 2.80001 3.74999 6.25001V8.75002H2.50001C1.11879 8.75002 0 9.86875 0 11.25V23.75C0 25.1312 1.11879 26.25 2.50001 26.25H17.5C18.8812 26.25 20 25.1312 20 23.7499V11.25C20 9.86875 18.8812 8.74996 17.5 8.74996ZM10 19.9999C8.61877 19.9999 7.49999 18.8812 7.49999 17.4999C7.49999 16.1187 8.61877 15 10 15C11.3812 15 12.5 16.1187 12.5 17.5C12.5 18.8812 11.3812 19.9999 10 19.9999ZM13.875 8.74996H6.12503V6.24995C6.12503 4.11245 7.8625 2.37498 10 2.37498C12.1375 2.37498 13.875 4.11245 13.875 6.24995V8.74996Z" fill="#66D5FF"/>
</svg>
