<svg width="70" height="70" viewBox="0 0 70 70" fill="none" xmlns="http://www.w3.org/2000/svg">
    <circle cx="35" cy="35" r="35" fill="#B6CBD3"/>
    <circle cx="35" cy="35" r="30" fill="white"/>
    <path d="M36.3794 31.8595C38.6956 31.8595 40.7012 31.0288 42.3399 29.3898C43.9787 27.7511 44.8094 25.746 44.8094 23.4295C44.8094 21.1138 43.9787 19.1085 42.3397 17.4692C40.7007 15.8307 38.6953 15 36.3794 15C34.0629 15 32.0578 15.8307 30.4191 17.4695C28.7803 19.1082 27.9493 21.1136 27.9493 23.4295C27.9493 25.746 28.7803 27.7513 30.4193 29.3901C32.0583 31.0285 34.0637 31.8595 36.3794 31.8595Z" fill="#059FD5"/>
    <path d="M51.1297 41.9131C51.0824 41.2311 50.9868 40.4872 50.8461 39.7016C50.704 38.9101 50.5211 38.1619 50.3022 37.478C50.076 36.7712 49.7684 36.0732 49.3881 35.4043C48.9935 34.71 48.5299 34.1055 48.0097 33.608C47.4658 33.0876 46.7998 32.6691 46.0297 32.3639C45.2623 32.0603 44.4118 31.9065 43.5021 31.9065C43.1448 31.9065 42.7992 32.0531 42.1319 32.4876C41.7213 32.7554 41.2409 33.0651 40.7047 33.4077C40.2462 33.6999 39.6251 33.9736 38.8579 34.2214C38.1095 34.4636 37.3495 34.5864 36.5994 34.5864C35.8493 34.5864 35.0897 34.4636 34.3404 34.2214C33.574 33.9738 32.9529 33.7001 32.495 33.408C31.9638 33.0686 31.4832 32.7589 31.0664 32.4873C30.3999 32.0528 30.0541 31.9062 29.6968 31.9062C28.7868 31.9062 27.9365 32.0603 27.1694 32.3642C26.3998 32.6689 25.7336 33.0873 25.1891 33.6083C24.6692 34.106 24.2054 34.7103 23.8112 35.4043C23.4313 36.0732 23.1236 36.7709 22.8972 37.4783C22.6785 38.1622 22.4956 38.9101 22.3535 39.7016C22.2128 40.4861 22.1172 41.2303 22.07 41.9139C22.0235 42.5836 22 43.2787 22 43.9807C22 45.8077 22.5808 47.2867 23.7261 48.3775C24.8572 49.4539 26.3539 50 28.1739 50H45.0265C46.8466 50 48.3427 49.4542 49.4741 48.3775C50.6197 47.2875 51.2004 45.8082 51.2004 43.9804C51.2002 43.2752 51.1764 42.5796 51.1297 41.9131Z" fill="#059FD5"/>
</svg>
