<svg width="25" height="25" viewBox="0 0 25 25" fill="none" xmlns="http://www.w3.org/2000/svg">
  <path d="M13.2339 0C11.6179 0 10.2551 1.36274 10.2551 2.97852C10.2551 4.59429 11.6179 5.95703 13.2339 5.95703C14.8498 5.95703 16.1638 4.59429 16.1638 2.97852C16.1638 1.36274 14.8498 0 13.2339 0Z" fill="#FFC066"/>
  <path d="M16.4858 5.95703C15.6808 6.84956 14.5278 7.42188 13.2339 7.42188C11.9401 7.42188 10.7382 6.84956 9.93324 5.95703C9.23044 6.73628 8.79016 7.75713 8.79016 8.88672V9.61914C8.79016 10.024 9.11778 10.3516 9.52265 10.3516H16.8964C17.3013 10.3516 17.6289 10.024 17.6289 9.61914V8.88672C17.6289 7.75713 17.1886 6.73628 16.4858 5.95703Z" fill="#FFC066"/>
  <path d="M7.0769 22.4806L3.34409 14.9975C2.98365 14.2749 2.10642 13.9802 1.38287 14.3387L0.407244 14.8219C0.043978 15.002 -0.103838 15.4435 0.0774772 15.8061L4.47242 24.5952C4.65315 24.9576 5.09279 25.1018 5.45312 24.9242L6.4162 24.4471C7.14258 24.0873 7.43866 23.206 7.0769 22.4806Z" fill="#FFC066"/>
  <path d="M24.402 12.0947C23.8013 11.6553 22.9662 11.7432 22.4682 12.2852L18.4639 17.207C18.1856 17.5 17.6582 17.6758 17.3798 17.6758H13.9664C13.5561 17.6758 13.2339 17.3536 13.2339 16.9434C13.2339 16.5332 13.5561 16.2109 13.9664 16.2109C14.9474 16.2109 16.0336 16.2109 16.8963 16.2109C17.7021 16.2109 18.3613 15.5518 18.3613 14.7461C18.3613 13.9404 17.7021 13.2813 16.8963 13.2813C13.4563 13.2813 16.7376 13.2813 13.0581 13.2813C12.693 13.2813 12.511 13.0498 12.223 12.7978C11.0897 11.778 9.39324 11.2867 7.6758 11.6848C6.72219 11.9058 6.07912 12.291 5.42691 12.8075L5.40518 12.7899L4.3457 13.7222L8.50937 22.0703H9.7423H16.8963C18.2734 22.0703 19.5919 21.4111 20.4123 20.3125L24.7096 14.1602C25.193 13.5156 25.0611 12.5782 24.402 12.0947Z" fill="#FFC066"/>
</svg>
