<svg width="25" height="25" viewBox="0 0 25 25" fill="none" xmlns="http://www.w3.org/2000/svg">
    <path d="M9.25938 6.2824C6.31362 9.33725 6.95644 14.4069 10.3308 16.6527C10.4419 16.7267 10.5899 16.712 10.6854 16.6185C11.3957 15.9228 11.9967 15.2489 12.5229 14.3919C12.6034 14.2607 12.5533 14.0906 12.4183 14.0172C11.9036 13.7378 11.3914 13.2137 11.1031 12.6601L11.1028 12.6603C10.7574 11.971 10.6398 11.1983 10.8227 10.4003C10.8229 10.4004 10.8231 10.4004 10.8233 10.4004C11.0337 9.37877 12.128 8.4284 12.9637 7.54947C12.962 7.54888 12.9603 7.54824 12.9585 7.54766L16.0899 4.3442C17.3379 3.06759 19.3906 3.05706 20.6514 4.32084C21.925 5.57161 21.9461 7.63941 20.6982 8.91598L18.8015 10.871C18.7137 10.9615 18.6852 11.0935 18.7263 11.2128C19.163 12.4822 19.2704 14.272 18.9778 15.6243C18.9696 15.6621 19.0162 15.6869 19.0432 15.6592L23.0801 11.5295C25.6589 8.89135 25.637 4.59611 23.0315 1.98452C20.3724 -0.680681 16.0435 -0.6585 13.4118 2.03373L9.27555 6.26507C9.27008 6.27085 9.2649 6.27672 9.25938 6.2824Z" fill="#772583"/>
    <path d="M16.8063 17.2344C16.8062 17.2346 16.8061 17.2347 16.8061 17.2348C16.8087 17.2338 16.8111 17.2327 16.8137 17.2316C17.6375 15.7216 17.7997 13.9899 17.4136 12.3017L17.4118 12.3035L17.4099 12.3027C17.0433 10.7991 16.0373 9.30597 14.6711 8.38669C14.5536 8.30762 14.3658 8.31677 14.2558 8.40598C13.5637 8.96685 12.8863 9.68607 12.4393 10.6039C12.3691 10.748 12.4217 10.9211 12.56 11.0016C13.0788 11.3034 13.5472 11.7454 13.8609 12.3321L13.8614 12.3317C14.1058 12.7462 14.3467 13.5327 14.1907 14.3777C14.1906 14.3777 14.1905 14.3777 14.1904 14.3777C14.0448 15.498 12.9161 16.5256 12.0188 17.4516L12.0192 17.4521C11.3362 18.1521 9.59991 19.9263 8.90468 20.6382C7.6568 21.9147 5.59376 21.9358 4.32014 20.6851C3.04652 19.4343 3.02546 17.3665 4.27334 16.0899L6.17571 14.1291C6.26193 14.0402 6.29124 13.911 6.25289 13.7932C5.83049 12.4942 5.71476 10.7447 5.98139 9.39391C5.98881 9.35626 5.9426 9.33222 5.91578 9.35964L1.93962 13.4272C-0.665651 16.0924 -0.643571 20.4317 1.98877 23.0701C4.64768 25.6813 8.95465 25.6372 11.5598 22.9721C12.4649 21.9574 16.3391 18.3621 16.8063 17.2344Z" fill="#772583"/>
</svg>
