<svg width="25" height="29" viewBox="0 0 25 29" fill="none" xmlns="http://www.w3.org/2000/svg">
    <path d="M12.5014 0C11.1227 0 10.0011 1.1216 10.0011 2.50033V12.5572C10.0011 13.9359 11.1227 15.0575 12.5014 15.0575C13.8802 15.0575 15.0018 13.9359 15.0018 12.5572V2.50033C15.0018 1.1216 13.8802 0 12.5014 0Z" fill="#DEE7EB"/>
    <path d="M20.8684 6.60907C19.8161 5.65997 18.2848 5.76792 17.3659 6.71313C16.4419 7.66367 16.3705 9.27357 17.5411 10.3408C19.399 12.0295 20.3381 14.5887 19.8932 17.1705C19.2894 20.6743 16.2421 23.4356 12.5012 23.4438C8.66934 23.4522 5.73378 20.6231 5.12825 17.2981C4.65618 14.701 5.5271 12.1005 7.46013 10.3424C8.6274 9.27979 8.56645 7.66278 7.6398 6.71119C6.71937 5.76598 5.17886 5.66386 4.11743 6.62451C1.17792 9.28702 -0.356481 13.2231 0.070426 17.2127C0.749232 23.5562 6.10524 28.4456 12.5307 28.4456C18.8824 28.4456 24.083 23.5445 24.885 17.6261C25.4441 13.502 23.9425 9.38363 20.8684 6.60907Z" fill="#DEE7EB"/>
</svg>
