<svg width="25" height="25" viewBox="0 0 25 25" fill="none" xmlns="http://www.w3.org/2000/svg">
    <path d="M21.327 3.67303C16.4305 -1.22351 8.57119 -1.22517 3.67303 3.67303C-1.22351 8.56953 -1.22517 16.4288 3.67303 21.327C8.56953 26.2235 16.4288 26.2252 21.327 21.327C26.2235 16.4305 26.2252 8.57119 21.327 3.67303ZM11.7677 6.64178C11.7677 6.23737 12.0956 5.9095 12.5 5.9095C12.9044 5.9095 13.2323 6.23737 13.2323 6.64178V10.5473C13.2323 10.9517 12.9044 11.2795 12.5 11.2795C12.0956 11.2795 11.7677 10.9517 11.7677 10.5473V6.64178ZM12.5 17.9189C9.51201 17.9189 7.08115 15.488 7.08115 12.5C7.08115 10.9365 7.75665 9.44919 8.93454 8.41931C9.23902 8.1531 9.70163 8.1841 9.96783 8.48854C10.234 8.79297 10.203 9.25562 9.89861 9.52183C9.03887 10.2736 8.54575 11.3591 8.54575 12.5C8.54575 14.6804 10.3196 16.4543 12.5 16.4543C14.6805 16.4543 16.4543 14.6804 16.4543 12.5C16.4543 11.3702 15.9693 10.2918 15.1236 9.54126C14.8211 9.2728 14.7935 8.81001 15.0619 8.50748C15.3303 8.20495 15.7931 8.17741 16.0957 8.44582C17.2544 9.47413 17.9189 10.9518 17.9189 12.5C17.9189 15.488 15.488 17.9189 12.5 17.9189Z" fill="#DEE7EB"/>
</svg>
