<svg width="25" height="17" viewBox="0 0 25 17" fill="none" xmlns="http://www.w3.org/2000/svg">
  <path d="M12.5001 5.94243C9.53542 5.94243 6.82358 7.45011 5.24642 9.97492C4.86454 10.5867 5.05052 11.3922 5.66226 11.7746C6.27348 12.156 7.07956 11.9705 7.46197 11.3583C8.55851 9.60244 10.4423 8.55449 12.5001 8.55449C14.5579 8.55449 16.4412 9.60244 17.5382 11.3583C17.7859 11.7553 18.2116 11.9731 18.6468 11.9731C18.8834 11.9731 19.1222 11.9089 19.3374 11.7746C19.9492 11.3927 20.1351 10.5872 19.7533 9.97492C18.1766 7.45011 15.4653 5.94243 12.5001 5.94243Z" fill="#B2B2B2"/>
  <path d="M24.8019 6.83001C22.1318 2.55302 17.533 0 12.5001 0C7.46722 0 2.86895 2.55302 0.198385 6.83001C-0.183498 7.44175 0.00248059 8.24731 0.614224 8.62919C1.22649 9.01055 2.03205 8.8251 2.41393 8.21335C4.60388 4.70588 8.37465 2.61206 12.5001 2.61206C16.6256 2.61206 20.3964 4.70588 22.5863 8.21335C22.834 8.60986 23.2597 8.82771 23.6949 8.82771C23.931 8.82771 24.1703 8.76398 24.3855 8.62919C24.9978 8.24679 25.1838 7.44175 24.8019 6.83001Z" fill="#B2B2B2"/>
  <path d="M12.5002 16.6456C13.6871 16.6456 14.6494 15.6834 14.6494 14.4964C14.6494 13.3094 13.6871 12.3472 12.5002 12.3472C11.3132 12.3472 10.351 13.3094 10.351 14.4964C10.351 15.6834 11.3132 16.6456 12.5002 16.6456Z" fill="#B2B2B2"/>
</svg>
