<svg width="70" height="70" viewBox="0 0 70 70" fill="none" xmlns="http://www.w3.org/2000/svg">
    <circle cx="35" cy="35" r="35" fill="#B6CBD3"/>
    <circle cx="35" cy="35" r="30" fill="white"/>
    <path d="M65 35C65.0054 39.0611 64.1833 43.0807 62.584 46.8136L62.4846 47.0426C59.7793 53.1969 55.0885 58.2664 49.1622 61.4403C43.2358 64.6141 36.4164 65.7091 29.7944 64.55C29.6142 64.518 29.4343 64.4849 29.2547 64.4506C27.3991 64.0908 25.582 63.555 23.8281 62.8503C23.5432 62.7358 23.2604 62.6171 22.9796 62.4944C22.7879 62.4109 22.5962 62.3248 22.4062 62.2361C17.2103 59.8279 12.8111 55.9846 9.72716 51.159C6.64321 46.3334 5.00305 40.7268 5 35C5 18.4317 18.4317 5 35 5C51.5683 5 65 18.4317 65 35Z" fill="#059FD5"/>
    <path opacity="0.2" d="M29.7944 64.55C29.6142 64.5181 29.4344 64.4849 29.2548 64.4506C29.1376 61.0503 28.7355 54.0713 27.3642 46.7621C26.6142 42.7618 25.5731 38.6612 24.129 34.9956C23.6343 33.7272 23.0692 32.4874 22.4364 31.282C20.9773 28.526 19.2074 26.2059 17.0613 24.634L17.3773 24.2027C19.1622 25.511 20.7663 27.3476 22.1897 29.7127C22.6166 30.421 23.0267 31.1766 23.4199 31.9796C23.8415 32.8388 24.2435 33.7509 24.6261 34.716C24.8702 35.3302 25.106 35.9657 25.3335 36.6225C26.324 39.4743 27.166 42.7281 27.8595 46.384C28.0131 47.1917 28.1592 48.0192 28.298 48.8666C29.3728 55.432 29.6968 61.5021 29.7944 64.55Z" fill="black"/>
    <path opacity="0.2" d="M22.9796 62.4944C22.7878 62.411 22.5961 62.3249 22.4062 62.2361C22.2207 60.2213 21.8799 57.7219 21.2568 55.3494C20.9839 54.2839 20.6335 53.2397 20.2086 52.2252C19.4976 50.561 18.5772 49.1462 17.387 48.2737L17.7029 47.8432C18.9491 48.7556 19.9103 50.1979 20.6532 51.8852C21.4902 53.7864 22.0485 55.9991 22.4204 58.1133C22.6964 59.6834 22.8704 61.2003 22.9796 62.4944Z" fill="black"/>
    <path opacity="0.2" d="M14.0765 24.6216C15.5514 24.6216 16.7471 23.426 16.7471 21.951C16.7471 20.4761 15.5514 19.2805 14.0765 19.2805C12.6015 19.2805 11.4059 20.4761 11.4059 21.951C11.4059 23.426 12.6015 24.6216 14.0765 24.6216Z" fill="black"/>
    <path opacity="0.2" d="M14.9365 47.6106C16.4114 47.6106 17.6071 46.4149 17.6071 44.94C17.6071 43.4651 16.4114 42.2694 14.9365 42.2694C13.4616 42.2694 12.2659 43.4651 12.2659 44.94C12.2659 46.4149 13.4616 47.6106 14.9365 47.6106Z" fill="black"/>
    <path opacity="0.2" d="M24.6788 26.4368C24.1125 29.6319 25.3627 32.5249 25.3627 32.5249C25.3627 32.5249 27.531 30.2378 28.0973 27.0428C28.6636 23.8477 27.4135 20.9547 27.4135 20.9547C27.4135 20.9547 25.2451 23.2418 24.6788 26.4368Z" fill="black"/>
    <path opacity="0.2" d="M15.8033 34.0211C18.8508 35.1354 21.9131 34.4203 21.9131 34.4203C21.9131 34.4203 20.0344 31.8985 16.987 30.7841C13.9395 29.6698 10.8772 30.3849 10.8772 30.3849C10.8772 30.3849 12.7558 32.9068 15.8033 34.0211Z" fill="black"/>
    <path opacity="0.2" d="M15.2866 54.3787C17.4226 55.1597 19.5721 54.6502 19.5721 54.6502C19.5721 54.6502 18.2583 52.8743 16.1223 52.0932C13.9862 51.3121 11.8368 51.8217 11.8368 51.8217C11.8368 51.8217 13.1505 53.5976 15.2866 54.3787Z" fill="black"/>
    <path d="M34.9384 41.6434C41.3977 41.6434 46.634 36.4071 46.634 29.9478C46.634 23.4885 41.3977 18.2523 34.9384 18.2523C28.4791 18.2523 23.2429 23.4885 23.2429 29.9478C23.2429 36.4071 28.4791 41.6434 34.9384 41.6434Z" fill="#D0CDE1"/>
    <path d="M30.3698 38.9022C30.3698 38.9022 31.8318 45.8465 31.8318 46.5775C31.8318 47.3084 38.776 50.5978 38.776 50.5978L44.9893 49.5013L47.1822 42.9226C47.1822 42.9226 43.5273 37.4403 43.5273 35.2474L30.3698 38.9022Z" fill="#D0CDE1"/>
    <path d="M62.584 46.8136L62.4846 47.0426C59.7793 53.197 55.0885 58.2664 49.1622 61.4403C43.2358 64.6141 36.4164 65.7091 29.7944 64.55C29.6142 64.518 29.4343 64.4849 29.2547 64.4506C27.3991 64.0908 25.582 63.555 23.8281 62.8503C23.5432 62.7358 23.2603 62.6171 22.9796 62.4944C22.7879 62.4109 22.5961 62.3248 22.4062 62.2361C20.6846 61.4385 19.0426 60.4791 17.5024 59.371L16.116 55.3494L16.8953 54.7547L18.4982 53.5308L20.2086 52.2251L20.6532 51.8852L27.3642 46.7621L27.8595 46.384L31.3476 43.7213L31.3485 43.7204C31.3485 43.7204 35.1207 49.8669 40.6032 48.0394C46.0858 46.2118 45.966 40.9716 45.966 40.9716L62.584 46.8136Z" fill="#2F2E41"/>
    <path d="M24.796 20.5251C24.796 20.5251 28.5093 12.4796 35.6265 14.3362C42.7437 16.1929 46.7664 18.9779 47.0759 21.7628C47.3853 24.5478 46.9211 28.7253 46.9211 28.7253C46.9211 28.7253 46.1475 23.0006 41.1965 24.2384C36.2454 25.4761 28.5093 24.5478 28.5093 24.5478L27.2716 35.6877C27.2716 35.6877 25.8791 33.6763 24.3319 34.9141C22.7847 36.1519 19.845 23.0006 24.796 20.5251Z" fill="#2F2E41"/>
    <path d="M23.8281 62.8503C23.5432 62.7358 23.2604 62.6172 22.9796 62.4944C22.7879 62.411 22.5962 62.3249 22.4062 62.2361C19.5588 60.9157 16.9356 59.1578 14.632 57.0261C15.4476 55.9148 16.116 55.3494 16.116 55.3494H21.5985L22.4204 58.1133L23.8281 62.8503Z" fill="#2F2E41"/>
    <path d="M57.7813 46.2119L62.4846 47.0426C61.2259 49.9099 59.5261 52.5625 57.4467 54.9039L57.7813 46.2119Z" fill="#2F2E41"/>
</svg>
