<svg width="70" height="70" viewBox="0 0 70 70" fill="none" xmlns="http://www.w3.org/2000/svg">
    <circle cx="35" cy="35" r="35" fill="#B6CBD3"/>
    <path d="M65 35C65.0047 38.8539 64.2648 42.6724 62.821 46.2456C62.8175 46.2536 62.8148 46.2607 62.8113 46.2686V46.2695C61.8408 48.6621 60.5642 50.9188 59.0133 52.9831C58.7142 53.3825 58.4057 53.7737 58.0876 54.1565C57.9713 54.2967 57.8533 54.4361 57.7352 54.5737C57.1273 55.2793 56.4876 55.9553 55.8163 56.6018C55.6601 56.7527 55.5021 56.9018 55.3423 57.0491C55.3051 57.0837 55.2678 57.1175 55.2305 57.1521C54.4486 57.8665 53.6294 58.5391 52.7764 59.1669C52.2039 59.5902 51.6163 59.9923 51.0136 60.3731C50.8814 60.4574 50.7483 60.5402 50.6142 60.6216C50.3817 60.7636 50.1471 60.9024 49.9104 61.0379C49.6015 61.2154 49.2888 61.3873 48.9722 61.5535C48.8444 61.6219 48.7157 61.6876 48.587 61.7533C48.3989 61.85 48.2098 61.9432 48.019 62.0346C47.9861 62.0506 47.9533 62.0666 47.9205 62.0817C47.7962 62.142 47.6702 62.2006 47.5441 62.2592C45.9027 63.0162 44.1956 63.622 42.4441 64.0689C42.4344 64.0716 42.4255 64.0734 42.4157 64.076C42.3012 64.1053 42.1858 64.1337 42.0704 64.1612C41.9844 64.1825 41.8974 64.203 41.8104 64.2225C41.7997 64.226 41.7887 64.2287 41.7775 64.2305C41.5991 64.2722 41.4207 64.3121 41.2406 64.3485C41.1394 64.3698 41.0382 64.3911 40.937 64.4115C40.8758 64.4249 40.8136 64.4364 40.7524 64.4479C40.6752 64.463 40.5989 64.4772 40.5216 64.4923C40.479 64.5012 40.4364 64.5083 40.3929 64.5154C40.2953 64.5331 40.1977 64.5509 40.1009 64.5678C39.9358 64.5962 39.769 64.6237 39.603 64.6485C39.4823 64.6672 39.3625 64.6849 39.2418 64.7018C39.0997 64.7222 38.9577 64.7408 38.8148 64.7586C38.7758 64.7648 38.7367 64.7692 38.6977 64.7737C38.6471 64.7799 38.5965 64.7861 38.5459 64.7923C38.4438 64.8047 38.3418 64.8163 38.2388 64.8269C38.1855 64.8331 38.1332 64.8385 38.0799 64.8438C37.9787 64.8544 37.8776 64.8642 37.7764 64.8731C37.6459 64.8855 37.5154 64.8962 37.3841 64.9068C37.2243 64.9192 37.0654 64.9308 36.9048 64.9405C36.8018 64.9467 36.6989 64.953 36.595 64.9583C36.3305 64.9725 36.066 64.9823 35.7997 64.9893C35.6675 64.9929 35.5344 64.9956 35.4012 64.9973H35.3986C35.2663 64.9991 35.1332 65 35 65C33.6508 65.0006 32.3031 64.9104 30.966 64.7302C29.9852 64.5988 29.0202 64.4207 28.0707 64.1959C28.0326 64.187 27.9944 64.1781 27.9571 64.1683C27.8613 64.1462 27.7663 64.1222 27.6713 64.0982C27.587 64.0769 27.5036 64.0547 27.4193 64.0325C25.2462 63.467 23.144 62.6575 21.153 61.6192C21.1432 61.6139 21.1326 61.6086 21.1228 61.6033C21.0651 61.5731 21.0083 61.5438 20.9515 61.5127C20.8264 61.447 20.7018 61.3802 20.5778 61.3121C19.8722 60.9243 19.1847 60.5095 18.5151 60.0677C18.3429 59.955 18.1725 59.8405 18.0039 59.7243C17.9497 59.687 17.8965 59.6497 17.8432 59.6124C17.7873 59.5734 17.7314 59.5343 17.6764 59.4953C17.5299 59.3914 17.3844 59.2864 17.2397 59.1802C16.6406 58.7399 16.0592 58.2781 15.4956 57.7947C13.4979 56.0838 11.7326 54.1189 10.2447 51.95C9.72548 51.1938 9.24087 50.4133 8.79087 49.6086C6.29705 45.1441 4.99174 40.1138 5.00004 35C5.00004 18.4317 18.4317 5 35 5C51.5684 5 65 18.4317 65 35Z" fill="#059FD5"/>
    <path opacity="0.2" d="M39.8242 64.1683C39.9201 64.1462 40.0151 64.1222 40.1101 64.0982C40.1944 64.0769 40.2778 64.0547 40.3621 64.0325C40.3666 63.8559 40.3728 63.6615 40.379 63.4512C40.4313 61.8038 40.5547 59.1518 40.8458 55.9565C40.8618 55.7852 40.8778 55.6127 40.8938 55.4391C40.9976 54.3562 41.1192 53.2175 41.2648 52.037C41.2692 51.9979 41.2745 51.9598 41.279 51.9207C41.397 50.9639 41.5311 49.9814 41.6819 48.9802C41.7876 48.2799 41.9018 47.5719 42.0245 46.8562C42.0334 46.8065 42.0423 46.7559 42.0512 46.7062C42.0867 46.4994 42.1231 46.2935 42.1603 46.0858C42.2642 45.508 42.3751 44.9266 42.4914 44.3453C42.9006 42.3003 43.3879 40.2429 43.9692 38.2414C44.5598 36.1657 45.2871 34.1314 46.1464 32.1518C46.8129 30.614 47.6068 29.1345 48.5198 27.729C48.5331 27.7086 48.5464 27.6891 48.5598 27.6686C49.7269 25.9104 51.0609 24.4183 52.584 23.3027L52.268 22.8713C50.8089 23.9408 49.4704 25.3639 48.2527 27.1405C48.2464 27.1494 48.2411 27.1574 48.2349 27.1663C47.3192 28.5242 46.5199 29.9571 45.8456 31.4497C44.9426 33.4462 44.181 35.5036 43.5663 37.6068C42.984 39.5612 42.4618 41.6787 41.9997 43.9592C41.8373 44.7624 41.6822 45.5855 41.5346 46.4284C41.5098 46.5722 41.4849 46.716 41.4601 46.8607C41.4601 46.8624 41.4592 46.8651 41.4592 46.8669C41.421 47.0888 41.3846 47.3107 41.3473 47.5352C41.255 48.1006 41.168 48.6615 41.0864 49.2181C40.9603 50.0754 40.8464 50.918 40.7447 51.7459C40.7109 52.0192 40.6784 52.2905 40.647 52.5598C40.6027 52.9396 40.5606 53.3145 40.521 53.6843C40.4651 54.1991 40.4139 54.703 40.3674 55.1959L40.3541 55.3317C40.347 55.4098 40.3399 55.4879 40.3328 55.5651C39.9725 59.4518 39.8598 62.5911 39.8242 64.1683Z" fill="black"/>
    <path opacity="0.2" d="M46.6284 61.6192C46.6382 61.6139 46.6488 61.6086 46.6586 61.6032C46.8414 61.5083 47.0225 61.4115 47.2035 61.3121C47.263 60.6038 47.3429 59.8254 47.4476 59.0071C47.4698 58.8385 47.492 58.6672 47.5169 58.495C47.5293 58.4027 47.5426 58.3095 47.5559 58.2154C47.6606 57.4947 47.7849 56.7509 47.934 56.0035C48.5402 52.9538 49.5467 49.8367 51.218 47.9124C51.3077 47.8086 51.3991 47.7092 51.4941 47.6124C51.7294 47.3679 51.9851 47.1437 52.2583 46.9423L51.9423 46.5118C51.5609 46.7939 51.2099 47.1149 50.895 47.4695C50.784 47.5929 50.6757 47.7213 50.5701 47.8547C49.0319 49.7905 48.0716 52.6565 47.4734 55.4941C47.3172 56.2343 47.1858 56.9737 47.074 57.6935C47.0456 57.8816 47.0184 58.068 46.9923 58.2527C46.8192 59.4722 46.7047 60.6242 46.6284 61.6192Z" fill="black"/>
    <path opacity="0.2" d="M55.5688 23.2903C57.0437 23.2903 58.2394 22.0946 58.2394 20.6197C58.2394 19.1448 57.0437 17.9491 55.5688 17.9491C54.0939 17.9491 52.8982 19.1448 52.8982 20.6197C52.8982 22.0946 54.0939 23.2903 55.5688 23.2903Z" fill="black"/>
    <path opacity="0.2" d="M54.7088 46.2792C56.1837 46.2792 57.3793 45.0836 57.3793 43.6087C57.3793 42.1337 56.1837 40.9381 54.7088 40.9381C53.2338 40.9381 52.0382 42.1337 52.0382 43.6087C52.0382 45.0836 53.2338 46.2792 54.7088 46.2792Z" fill="black"/>
    <path opacity="0.2" d="M44.9664 25.1055C45.5328 28.3005 44.2826 31.1935 44.2826 31.1935C44.2826 31.1935 42.1143 28.9064 41.548 25.7114C40.9816 22.5164 42.2318 19.6233 42.2318 19.6233C42.2318 19.6233 44.4001 21.9104 44.9664 25.1055Z" fill="black"/>
    <path opacity="0.2" d="M53.8419 32.6898C50.7945 33.8041 47.7322 33.089 47.7322 33.089C47.7322 33.089 49.6108 30.5671 52.6583 29.4528C55.7058 28.3384 58.768 29.0536 58.768 29.0536C58.768 29.0536 56.8894 31.5754 53.8419 32.6898Z" fill="black"/>
    <path opacity="0.2" d="M54.3587 53.0473C52.2227 53.8284 50.0732 53.3188 50.0732 53.3188C50.0732 53.3188 51.387 51.543 53.523 50.7619C55.659 49.9808 57.8085 50.4903 57.8085 50.4903C57.8085 50.4903 56.4947 52.2662 54.3587 53.0473Z" fill="black"/>
    <path d="M44.05 52.5979L44.1583 52.6539C44.1476 52.7692 44.1219 52.8402 44.05 52.5979Z" fill="#2F2E41"/>
    <path d="M44.1929 52.6352C44.1938 52.6476 44.1955 52.6609 44.1964 52.6734L44.1583 52.6538C44.1592 52.6423 44.1601 52.6299 44.1618 52.6174C44.1707 52.4621 44.1601 52.2784 44.1929 52.6352Z" fill="#2F2E41"/>
    <path d="M32.6645 48.389C40.7139 48.389 47.2392 41.8637 47.2392 33.8143C47.2392 25.7649 40.7139 19.2395 32.6645 19.2395C24.615 19.2395 18.0897 25.7649 18.0897 33.8143C18.0897 41.8637 24.615 48.389 32.6645 48.389Z" fill="#2F2E41"/>
    <path d="M33.8642 47.795C38.7389 47.795 42.6906 43.8433 42.6906 38.9686C42.6906 34.0939 38.7389 30.1422 33.8642 30.1422C28.9895 30.1422 25.0378 34.0939 25.0378 38.9686C25.0378 43.8433 28.9895 47.795 33.8642 47.795Z" fill="#D0CDE1"/>
    <path d="M54.0183 55.8855L54.0076 55.8882L51.9547 56.3808L47.6801 57.4068L47.097 57.547L40.5964 59.1065L40.0443 59.2396L24.273 63.0243C23.2069 62.6164 22.1652 62.1473 21.1532 61.6192C21.1434 61.6139 21.1328 61.6086 21.123 61.6033C21.0653 61.5731 21.0085 61.5438 20.9517 61.5127C20.8266 61.447 20.702 61.3802 20.5781 61.3121C19.8724 60.9243 19.1849 60.5095 18.5153 60.0678C18.3432 59.955 18.1727 59.8405 18.0041 59.7243C17.95 59.687 17.8967 59.6497 17.8435 59.6124C17.7875 59.5734 17.7316 59.5343 17.6766 59.4953C17.5301 59.3914 17.3846 59.2864 17.2399 59.1802C18.7719 56.3959 22.4198 54.5453 26.0677 53.5325C28.821 52.7675 29.4263 50.253 29.3739 48.0154C29.3606 47.505 29.3173 46.9958 29.2443 46.4905C29.1331 45.6863 28.9562 44.8925 28.7153 44.1172L37.5423 44.4118L38.4529 46.5101C38.428 46.7405 38.42 46.9725 38.4289 47.2041C38.4982 48.9251 39.5606 50.0382 40.8715 50.7562C41.042 50.8494 41.2168 50.9364 41.3943 51.0172C43.544 51.9944 46.0745 52.0609 46.0745 52.0609C46.8451 51.9758 47.6234 51.9904 48.3902 52.1044C48.5766 52.1328 48.7576 52.1669 48.9334 52.2065C49.9594 52.4358 50.9287 52.8696 51.7834 53.482C52.1098 53.7142 52.4186 53.9702 52.7073 54.2479C53.2205 54.7282 53.662 55.2797 54.0183 55.8855Z" fill="#D0CDE1"/>
    <path d="M55.3426 57.0491C55.3053 57.0837 55.268 57.1174 55.2308 57.1521C54.4489 57.8665 53.6297 58.5391 52.7766 59.1669C52.2041 59.5902 51.6166 59.9923 51.0139 60.3731C50.8816 60.4574 50.7485 60.5402 50.6145 60.6216C50.3819 60.7636 50.1473 60.9024 49.9106 61.0379C49.6018 61.2154 49.289 61.3873 48.9725 61.5535C48.8447 61.6219 48.716 61.6876 48.5873 61.7532C48.3991 61.85 48.21 61.9432 48.0192 62.0346C47.9864 62.0506 47.9535 62.0666 47.9207 62.0816L47.5453 61.7701L51.9547 56.3808L52.8414 55.297C52.8414 55.297 53.1956 55.297 54.0077 55.8882C54.4566 56.2222 54.8807 56.5883 55.2769 56.9834C55.2982 57.0056 55.3204 57.0269 55.3426 57.0491Z" fill="#D0CDE1"/>
    <path d="M55.2805 56.9888C55.2685 57.0445 55.2519 57.0991 55.2308 57.1521C54.4489 57.8665 53.6297 58.5391 52.7766 59.1669C52.0365 59.4337 51.2686 59.6162 50.4876 59.7109C50.4876 59.7109 50.5541 60.0447 50.6145 60.6216C50.382 60.7636 50.1473 60.9024 49.9107 61.0379C49.6018 61.2154 49.2891 61.3873 48.9725 61.5536C48.8447 61.6219 48.716 61.6876 48.5873 61.7533C48.3991 61.85 48.2101 61.9432 48.0192 62.0346C47.9864 62.0506 47.9536 62.0666 47.9207 62.0817C47.7965 62.142 47.6704 62.2006 47.5444 62.2592C45.903 63.0162 44.1959 63.622 42.4444 64.0689C42.4346 64.0716 42.4257 64.0734 42.416 64.076C42.3015 64.1053 42.1861 64.1337 42.0707 64.1613C41.9846 64.1826 41.8976 64.203 41.8107 64.2225C41.7999 64.226 41.7889 64.2287 41.7778 64.2305C41.5994 64.2722 41.421 64.3121 41.2408 64.3485C41.1397 64.3698 41.0385 64.3911 40.9373 64.4115C40.876 64.4249 40.8139 64.4364 40.7527 64.4479C40.6755 64.463 40.5991 64.4772 40.5219 64.4923C40.4793 64.5012 40.4367 64.5083 40.3932 64.5154C40.2956 64.5331 40.1979 64.5509 40.1012 64.5678C39.9361 64.5962 39.7692 64.6237 39.6033 64.6485C39.4825 64.6672 39.3627 64.6849 39.242 64.7018C39.1 64.7222 38.958 64.7408 38.8151 64.7586C38.776 64.7648 38.737 64.7692 38.6979 64.7737C38.6473 64.7799 38.5968 64.7861 38.5462 64.7923C38.4441 64.8047 38.342 64.8163 38.2391 64.8269C38.1858 64.8331 38.1334 64.8385 38.0802 64.8438C37.979 64.8544 37.8778 64.8642 37.7766 64.8731C37.6462 64.8855 37.5157 64.8962 37.3843 64.9068C37.2246 64.9192 37.0657 64.9308 36.905 64.9405C36.8021 64.9468 36.6991 64.953 36.5953 64.9583C36.3308 64.9725 36.0663 64.9823 35.8 64.9894C35.6678 64.9929 35.5346 64.9956 35.4015 64.9973H35.3988C35.2666 64.9991 35.1334 65 35.0003 65C33.6511 65.0006 32.3034 64.9104 30.9663 64.7302C29.9855 64.5988 29.0204 64.4207 28.071 64.1959C28.0328 64.187 27.9947 64.1781 27.9574 64.1684C27.8615 64.1462 27.7666 64.1222 27.6716 64.0982C27.5873 64.0769 27.5039 64.0547 27.4195 64.0326C25.2464 63.467 23.1443 62.6575 21.1533 61.6192C21.1435 61.6139 21.1328 61.6086 21.1231 61.6033C21.0654 61.5731 21.0086 61.5438 20.9518 61.5127C25.8237 60.3775 33.5225 58.5873 40.2033 57.0535C40.3905 57.0109 40.5766 56.9683 40.7615 56.9257C43.229 56.3595 45.5402 55.8322 47.4956 55.3911C47.6979 55.3459 47.8962 55.3015 48.0902 55.258C50.1911 54.7858 51.8225 54.4272 52.7074 54.2479C52.9459 54.1934 53.1871 54.1511 53.4299 54.121L55.2769 56.9834L55.2805 56.9888Z" fill="#2F2E41"/>
    <path d="M19.3301 27.6123C21.7278 27.6123 23.6715 25.6685 23.6715 23.2708C23.6715 20.8731 21.7278 18.9294 19.3301 18.9294C16.9324 18.9294 14.9887 20.8731 14.9887 23.2708C14.9887 25.6685 16.9324 27.6123 19.3301 27.6123Z" fill="#2F2E41"/>
    <path d="M45.9988 26.3719C48.3965 26.3719 50.3402 24.4281 50.3402 22.0304C50.3402 19.6327 48.3965 17.689 45.9988 17.689C43.6011 17.689 41.6574 19.6327 41.6574 22.0304C41.6574 24.4281 43.6011 26.3719 45.9988 26.3719Z" fill="#2F2E41"/>
    <path d="M41.3473 20.1698C41.3475 19.099 41.7433 18.0661 42.4588 17.2695C43.1743 16.4728 44.159 15.9687 45.2236 15.854C44.6173 15.7878 44.0038 15.8501 43.4232 16.0368C42.8426 16.2235 42.3078 16.5304 41.8538 16.9376C41.3997 17.3447 41.0365 17.843 40.7879 18.3999C40.5392 18.9568 40.4107 19.5599 40.4107 20.1698C40.4107 20.7797 40.5392 21.3827 40.7879 21.9397C41.0365 22.4966 41.3997 22.9948 41.8538 23.402C42.3078 23.8092 42.8426 24.1161 43.4232 24.3028C44.0038 24.4895 44.6173 24.5518 45.2236 24.4856C44.159 24.3708 43.1743 23.8668 42.4588 23.0701C41.7433 22.2735 41.3475 21.2406 41.3473 20.1698Z" fill="#2F2E41"/>
    <path d="M14.4792 26.7825C13.73 26.0176 13.2898 25.0028 13.2433 23.933C13.1969 22.8633 13.5474 21.8141 14.2276 20.9871C13.7482 21.3641 13.3536 21.8379 13.0695 22.3776C12.7854 22.9173 12.6183 23.5108 12.5789 24.1194C12.5395 24.728 12.6288 25.3381 12.841 25.9099C13.0532 26.4817 13.3834 27.0024 13.8103 27.438C14.2371 27.8736 14.7509 28.2145 15.3183 28.4382C15.8857 28.662 16.4938 28.7638 17.1031 28.7368C17.7124 28.7099 18.3092 28.5548 18.8546 28.2818C19.3999 28.0088 19.8817 27.624 20.2684 27.1524C19.4277 27.8155 18.3716 28.1446 17.303 28.0763C16.2344 28.008 15.2287 27.5473 14.4792 26.7825Z" fill="#2F2E41"/>
    <path d="M32.6644 26.9921C27.5265 26.9921 23.3614 29.4217 23.3614 32.4188C23.3614 33.7599 24.1986 34.9855 25.5806 35.9323L27.3716 34.6347L26.8845 36.6676C27.0866 36.7613 27.293 36.8519 27.5082 36.9357L30.1836 33.8143V37.6489C31.004 37.7804 31.8336 37.8461 32.6644 37.8456C37.8024 37.8456 41.9675 35.416 41.9675 32.4188C41.9675 29.4217 37.8024 26.9921 32.6644 26.9921Z" fill="#2F2E41"/>
    <path d="M41.6574 22.0304C41.6574 22.0304 40.9831 25.1314 45.1965 26.3718L41.6574 22.0304Z" fill="#2F2E41"/>
    <path d="M23.3614 22.5948C23.3614 22.5948 24.9119 26.0617 20.2604 27.6122L23.3614 22.5948Z" fill="#2F2E41"/>
    <path d="M25.6608 42.4338C26.052 42.3243 26.156 41.4744 25.8932 40.5356C25.6304 39.5967 25.1002 38.9244 24.709 39.0339C24.3178 39.1434 24.2138 39.9933 24.4766 40.9321C24.7394 41.871 25.2696 42.5433 25.6608 42.4338Z" fill="#D0CDE1"/>
    <path d="M43.5719 39.308C43.6318 38.3349 43.3517 37.5258 42.9463 37.5008C42.5408 37.4759 42.1635 38.2445 42.1036 39.2176C42.0437 40.1907 42.3238 40.9998 42.7292 41.0247C43.1347 41.0497 43.512 40.2811 43.5719 39.308Z" fill="#D0CDE1"/>
</svg>
