<svg width="22" height="25" viewBox="0 0 22 25" fill="none" xmlns="http://www.w3.org/2000/svg">
    <path d="M18.8571 8.33333C18.8571 12.9357 15.3394 16.6667 11 16.6667C6.66062 16.6667 3.14285 12.9357 3.14285 8.33333C3.14285 3.73096 6.66062 0 11 0C15.3394 0 18.8571 3.73096 18.8571 8.33333ZM5.5 8.33333C5.5 11.555 7.96243 14.1667 11 14.1667C14.0376 14.1667 16.5 11.555 16.5 8.33333C16.5 5.11167 14.0376 2.5 11 2.5C7.96243 2.5 5.5 5.11167 5.5 8.33333Z" fill="#B6CBD3"/>
    <rect x="1" y="9.33337" width="20" height="14.6667" rx="2" fill="white" stroke="#B6CBD3" stroke-width="2"/>
    <path d="M13.619 16.1458C13.619 17.584 12.4465 18.75 11 18.75C9.55354 18.75 8.38095 17.584 8.38095 16.1458C8.38095 14.7076 9.55354 13.5416 11 13.5416C12.4465 13.5416 13.619 14.7076 13.619 16.1458ZM9.69047 16.1458C9.69047 16.8649 10.2768 17.4479 11 17.4479C11.7232 17.4479 12.3095 16.8649 12.3095 16.1458C12.3095 15.4267 11.7232 14.8437 11 14.8437C10.2768 14.8437 9.69047 15.4267 9.69047 16.1458Z" fill="#B6CBD3"/>
</svg>
