<svg width="25" height="29" viewBox="0 0 25 29" fill="none" xmlns="http://www.w3.org/2000/svg">
  <path d="M12.5014 0C11.1227 0 10.0011 1.1216 10.0011 2.50033V12.5572C10.0011 13.9359 11.1227 15.0575 12.5014 15.0575C13.8801 15.0575 15.0017 13.9359 15.0017 12.5572V2.50033C15.0017 1.1216 13.8801 0 12.5014 0Z" fill="#D5E1E7"/>
  <path d="M20.8684 6.60904C19.8161 5.65994 18.2848 5.76789 17.3659 6.7131C16.4419 7.66364 16.3705 9.27354 17.5411 10.3408C19.399 12.0295 20.3381 14.5887 19.8932 17.1704C19.2894 20.6743 16.2421 23.4355 12.5012 23.4437C8.66934 23.4522 5.73378 20.6231 5.12825 17.2981C4.65618 14.7009 5.5271 12.1005 7.46013 10.3424C8.6274 9.27976 8.56645 7.66275 7.6398 6.71115C6.71937 5.76595 5.17886 5.66383 4.11743 6.62448C1.17792 9.28699 -0.356481 13.223 0.070426 17.2127C0.749232 23.5562 6.10524 28.4456 12.5307 28.4456C18.8824 28.4456 24.083 23.5445 24.885 17.6261C25.4441 13.502 23.9425 9.3836 20.8684 6.60904Z" fill="#D5E1E7"/>
</svg>
