<svg width="38" height="47" viewBox="0 0 38 47" fill="none" xmlns="http://www.w3.org/2000/svg">
    <path d="M2.47 37.9H4.24L6.68 45H5L4.45 43.41H2.24L1.7 45H0.02L2.47 37.9ZM4.18 42.28L3.35 39.55L2.5 42.28H4.18ZM8.57922 45V37.9H10.2192V43.56H13.6592V45H8.57922ZM20.6188 43.56V45H15.6288V37.9H20.5288V39.34H17.2688V40.72H20.0688V42.05H17.2688V43.56H20.6188ZM22.8152 45V37.9H26.0152C26.3485 37.9 26.6552 37.97 26.9352 38.11C27.2218 38.2433 27.4685 38.4267 27.6752 38.66C27.8818 38.8867 28.0418 39.1433 28.1552 39.43C28.2752 39.7167 28.3352 40.0067 28.3352 40.3C28.3352 40.74 28.2285 41.1467 28.0152 41.52C27.8085 41.8867 27.5285 42.1667 27.1752 42.36L28.7352 45H26.9252L25.5652 42.71H24.4552V45H22.8152ZM24.4552 41.28H25.9552C26.1485 41.28 26.3152 41.19 26.4552 41.01C26.5952 40.8233 26.6652 40.5867 26.6652 40.3C26.6652 40.0133 26.5852 39.7833 26.4252 39.61C26.2652 39.43 26.0918 39.34 25.9052 39.34H24.4552V41.28ZM33.7658 45.06C33.2391 45.06 32.7591 44.96 32.3258 44.76C31.8991 44.5533 31.5291 44.28 31.2158 43.94C30.9024 43.5933 30.6624 43.2067 30.4958 42.78C30.3291 42.3467 30.2458 41.9 30.2458 41.44C30.2458 40.9733 30.3324 40.5267 30.5058 40.1C30.6858 39.6667 30.9324 39.2833 31.2458 38.95C31.5658 38.61 31.9424 38.3433 32.3758 38.15C32.8091 37.9567 33.2824 37.86 33.7958 37.86C34.3224 37.86 34.7991 37.9633 35.2258 38.17C35.6591 38.37 36.0291 38.6433 36.3358 38.99C36.6491 39.3367 36.8891 39.7267 37.0558 40.16C37.2224 40.5867 37.3058 41.0233 37.3058 41.47C37.3058 41.9367 37.2158 42.3867 37.0358 42.82C36.8624 43.2467 36.6158 43.63 36.2958 43.97C35.9824 44.3033 35.6091 44.57 35.1758 44.77C34.7491 44.9633 34.2791 45.06 33.7658 45.06ZM31.9158 41.46C31.9158 41.8267 31.9858 42.1733 32.1258 42.5C32.2658 42.82 32.4758 43.0833 32.7558 43.29C33.0358 43.4967 33.3758 43.6 33.7758 43.6C34.1891 43.6 34.5324 43.4933 34.8058 43.28C35.0858 43.0667 35.2924 42.7967 35.4258 42.47C35.5658 42.1367 35.6358 41.7933 35.6358 41.44C35.6358 41.0733 35.5624 40.73 35.4158 40.41C35.2758 40.0833 35.0658 39.82 34.7858 39.62C34.5124 39.42 34.1758 39.32 33.7758 39.32C33.3624 39.32 33.0158 39.4267 32.7358 39.64C32.4624 39.8467 32.2558 40.1133 32.1158 40.44C31.9824 40.7667 31.9158 41.1067 31.9158 41.46Z" fill="#BCBDC0"/>
    <rect width="10" height="34" rx="3" fill="#BCBDC0"/>
    <rect x="14" y="11" width="10" height="23" rx="3" fill="#00ADEF"/>
    <rect x="28" y="6" width="10" height="28" rx="3" fill="black"/>
    <rect x="28" y="6" width="10" height="10" rx="3" fill="#00ADEF" fill-opacity="0.3"/>
    <rect y="24" width="10" height="10" rx="3" fill="#00ADEF" fill-opacity="0.3"/>
</svg>
