<svg width="22" height="25" viewBox="0 0 22 25" fill="none" xmlns="http://www.w3.org/2000/svg">
  <path d="M18.8571 8.33333C18.8571 12.9357 15.3393 16.6667 11 16.6667C6.66058 16.6667 3.14282 12.9357 3.14282 8.33333C3.14282 3.73096 6.66058 0 11 0C15.3393 0 18.8571 3.73096 18.8571 8.33333ZM5.49997 8.33333C5.49997 11.555 7.9624 14.1667 11 14.1667C14.0375 14.1667 16.5 11.555 16.5 8.33333C16.5 5.11167 14.0375 2.5 11 2.5C7.9624 2.5 5.49997 5.11167 5.49997 8.33333Z" fill="#B6CBD3"/>
  <rect x="1" y="9.33331" width="20" height="14.6667" rx="2" fill="white" stroke="#B6CBD3" stroke-width="2"/>
  <path d="M13.6191 16.1459C13.6191 17.5841 12.4465 18.75 11 18.75C9.55357 18.75 8.38098 17.5841 8.38098 16.1459C8.38098 14.7076 9.55357 13.5417 11 13.5417C12.4465 13.5417 13.6191 14.7076 13.6191 16.1459ZM9.69051 16.1459C9.69051 16.865 10.2768 17.4479 11 17.4479C11.7233 17.4479 12.3096 16.865 12.3096 16.1459C12.3096 15.4267 11.7233 14.8438 11 14.8438C10.2768 14.8438 9.69051 15.4267 9.69051 16.1459Z" fill="#B6CBD3"/>
</svg>
