<svg width="158" height="159" viewBox="0 0 158 159" fill="none" xmlns="http://www.w3.org/2000/svg">
  <circle cx="70.5" cy="71.5" r="3.5" fill="#00ADEF" fill-opacity="0.1"/>
  <circle cx="70.5" cy="127.5" r="3.5" fill="#00ADEF" fill-opacity="0.1"/>
  <circle cx="70.5" cy="99.5" r="3.5" fill="#00ADEF" fill-opacity="0.1"/>
  <circle cx="70.5" cy="155.5" r="3.5" fill="#00ADEF" fill-opacity="0.1"/>
  <circle cx="70.5" cy="85.5" r="3.5" fill="#00ADEF" fill-opacity="0.1"/>
  <circle cx="70.5" cy="141.5" r="3.5" fill="#00ADEF" fill-opacity="0.1"/>
  <circle cx="70.5" cy="113.5" r="3.5" fill="#00ADEF" fill-opacity="0.1"/>
  <circle cx="112.5" cy="71.5" r="3.5" fill="#00ADEF" fill-opacity="0.1"/>
  <circle cx="112.5" cy="127.5" r="3.5" fill="#00ADEF" fill-opacity="0.1"/>
  <circle cx="112.5" cy="99.5" r="3.5" fill="#00ADEF" fill-opacity="0.1"/>
  <circle cx="112.5" cy="155.5" r="3.5" fill="#00ADEF" fill-opacity="0.1"/>
  <circle cx="112.5" cy="85.5" r="3.5" fill="#00ADEF" fill-opacity="0.1"/>
  <circle cx="112.5" cy="141.5" r="3.5" fill="#00ADEF" fill-opacity="0.1"/>
  <circle cx="112.5" cy="113.5" r="3.5" fill="#00ADEF" fill-opacity="0.1"/>
  <circle cx="84.5" cy="71.5" r="3.5" fill="#00ADEF" fill-opacity="0.1"/>
  <circle cx="84.5" cy="127.5" r="3.5" fill="#00ADEF" fill-opacity="0.1"/>
  <circle cx="84.5" cy="99.5" r="3.5" fill="#00ADEF" fill-opacity="0.1"/>
  <circle cx="84.5" cy="155.5" r="3.5" fill="#00ADEF" fill-opacity="0.1"/>
  <circle cx="84.5" cy="85.5" r="3.5" fill="#00ADEF" fill-opacity="0.1"/>
  <circle cx="84.5" cy="141.5" r="3.5" fill="#00ADEF" fill-opacity="0.1"/>
  <circle cx="84.5" cy="113.5" r="3.5" fill="#00ADEF" fill-opacity="0.1"/>
  <circle cx="126.5" cy="71.5" r="3.5" fill="#00ADEF" fill-opacity="0.1"/>
  <circle cx="126.5" cy="127.5" r="3.5" fill="#00ADEF" fill-opacity="0.1"/>
  <circle cx="126.5" cy="99.5" r="3.5" fill="#00ADEF" fill-opacity="0.1"/>
  <circle cx="126.5" cy="155.5" r="3.5" fill="#00ADEF" fill-opacity="0.1"/>
  <circle cx="126.5" cy="85.5" r="3.5" fill="#00ADEF" fill-opacity="0.1"/>
  <circle cx="126.5" cy="141.5" r="3.5" fill="#00ADEF" fill-opacity="0.1"/>
  <circle cx="126.5" cy="113.5" r="3.5" fill="#00ADEF" fill-opacity="0.1"/>
  <circle cx="98.5" cy="71.5" r="3.5" fill="#00ADEF" fill-opacity="0.1"/>
  <circle cx="98.5" cy="127.5" r="3.5" fill="#00ADEF" fill-opacity="0.1"/>
  <circle cx="98.5" cy="99.5" r="3.5" fill="#00ADEF" fill-opacity="0.1"/>
  <circle cx="98.5" cy="155.5" r="3.5" fill="#00ADEF" fill-opacity="0.1"/>
  <circle cx="98.5" cy="85.5" r="3.5" fill="#00ADEF" fill-opacity="0.1"/>
  <circle cx="98.5" cy="141.5" r="3.5" fill="#00ADEF" fill-opacity="0.1"/>
  <circle cx="98.5" cy="113.5" r="3.5" fill="#00ADEF" fill-opacity="0.1"/>
  <circle cx="140.5" cy="71.5" r="3.5" fill="#00ADEF" fill-opacity="0.1"/>
  <circle cx="140.5" cy="127.5" r="3.5" fill="#00ADEF" fill-opacity="0.1"/>
  <circle cx="140.5" cy="99.5" r="3.5" fill="#00ADEF" fill-opacity="0.1"/>
  <circle cx="140.5" cy="155.5" r="3.5" fill="#00ADEF" fill-opacity="0.1"/>
  <circle cx="140.5" cy="85.5" r="3.5" fill="#00ADEF" fill-opacity="0.1"/>
  <circle cx="140.5" cy="141.5" r="3.5" fill="#00ADEF" fill-opacity="0.1"/>
  <circle cx="140.5" cy="113.5" r="3.5" fill="#00ADEF" fill-opacity="0.1"/>
  <circle cx="154.5" cy="71.5" r="3.5" fill="#00ADEF" fill-opacity="0.1"/>
  <circle cx="154.5" cy="127.5" r="3.5" fill="#00ADEF" fill-opacity="0.1"/>
  <circle cx="154.5" cy="99.5" r="3.5" fill="#00ADEF" fill-opacity="0.1"/>
  <circle cx="154.5" cy="155.5" r="3.5" fill="#00ADEF" fill-opacity="0.1"/>
  <circle cx="154.5" cy="85.5" r="3.5" fill="#00ADEF" fill-opacity="0.1"/>
  <circle cx="154.5" cy="141.5" r="3.5" fill="#00ADEF" fill-opacity="0.1"/>
  <circle cx="154.5" cy="113.5" r="3.5" fill="#00ADEF" fill-opacity="0.1"/>
  <path d="M0 20C0 8.9543 8.95431 0 20 0H130C141.046 0 150 8.95431 150 20V130C150 141.046 141.046 150 130 150H20C8.9543 150 0 141.046 0 130V20Z" fill="#CCF1FF"/>
  <path d="M81.8033 48.6111H79.4594V81.0588L60.2201 107.139L62.1046 108.531C67.8396 112.766 74.6513 115.005 81.8033 115.005C100.108 115.005 115 100.113 115 81.808C115 63.5033 100.108 48.6111 81.8033 48.6111Z" fill="#00ADEF"/>
  <path d="M44.5732 53.5466C42.6093 55.8236 40.7192 58.1094 39.2402 60.7455C37.1747 64.427 35.8226 68.4992 35.2752 72.685C34.0994 81.6774 36.7277 90.9277 42.4565 97.9554C44.7432 100.761 47.4877 102.971 50.3798 105.106L71.3673 76.6563L44.5732 53.5466Z" fill="#00ADEF"/>
  <path d="M72.4052 35C67.581 35 62.991 35.4735 58.5432 37.5122C54.0941 39.5515 50.7376 42.7206 47.5863 46.3752L72.4052 67.7808V35Z" fill="#00ADEF"/>
</svg>
