<svg width="150" height="150" viewBox="0 0 150 150" fill="none" xmlns="http://www.w3.org/2000/svg">
  <path d="M0 20C0 8.9543 8.95431 0 20 0H130C141.046 0 150 8.95431 150 20V130C150 141.046 141.046 150 130 150H20C8.9543 150 0 141.046 0 130V20Z" fill="#FFEACC"/>
  <path d="M31.011 101.937C30.7438 101.937 30.5926 101.934 30.5644 101.934C29.1086 101.894 27.9623 100.744 28.001 99.3674C28.0396 97.984 29.2598 96.8674 30.7086 96.9374C30.8563 96.9374 45.5023 97.2407 61.5408 91.564C82.7555 84.0574 96.3113 70.1507 101.825 50.234C102.194 48.9007 103.636 48.104 105.046 48.4507C106.453 48.8007 107.297 50.1674 106.927 51.504C93.3188 100.664 36.6479 101.937 31.011 101.937Z" fill="#ED8B00"/>
  <path d="M104.484 115.001C102.542 115.001 100.967 113.507 100.967 111.667V71.6674C100.967 69.8274 102.542 68.3341 104.484 68.3341C106.425 68.3341 108 69.8274 108 71.6674V111.667C108 113.507 106.425 115.001 104.484 115.001Z" fill="#ED8B00"/>
  <path d="M83.3849 115.001C81.4438 115.001 79.8685 113.507 79.8685 111.667V95.0008C79.8685 93.1608 81.4438 91.6674 83.3849 91.6674C85.326 91.6674 86.9014 93.1608 86.9014 95.0008V111.667C86.9014 113.507 85.326 115.001 83.3849 115.001Z" fill="#ED8B00"/>
  <path d="M62.2862 115.001C60.3452 115.001 58.7698 113.507 58.7698 111.667V105.001C58.7698 103.161 60.3452 101.667 62.2862 101.667C64.2273 101.667 65.8027 103.161 65.8027 105.001V111.667C65.8027 113.507 64.2273 115.001 62.2862 115.001Z" fill="#ED8B00"/>
  <path d="M80.2342 35.4907C79.8931 35.1707 79.3902 34.9873 78.9577 35.0007C69.0167 35.1773 57.4195 40.6773 50.0561 48.6673C42.0878 48.9373 35.4417 51.214 31.2959 55.144C30.8458 55.5707 30.6735 56.194 30.8458 56.774C31.0181 57.354 31.5068 57.8007 32.1293 57.944L39.6158 59.644L39.5701 59.6907C38.9441 60.3474 38.9723 61.3574 39.6333 61.984L52.282 73.974C52.6231 74.3007 53.0732 74.4607 53.5268 74.4607C53.9488 74.4607 54.3672 74.3207 54.7013 74.034L54.7505 73.9907L56.5439 81.0874C56.6916 81.674 57.1628 82.1407 57.7782 82.304C57.9364 82.3474 58.0947 82.3674 58.2564 82.3674C58.7171 82.3674 59.1637 82.1974 59.5012 81.8807C63.6506 77.9474 66.0489 71.6474 66.3337 64.094C74.7732 57.0907 80.5647 46.1107 80.7511 36.6973C80.7546 36.2473 80.5718 35.8107 80.2342 35.4907Z" fill="#ED8B00"/>
</svg>
