<svg width="91" height="91" viewBox="0 0 91 91" fill="none" xmlns="http://www.w3.org/2000/svg">
  <circle cx="3.5" cy="3.5" r="3.5" fill="#00ADEF" fill-opacity="0.1"/>
  <circle cx="3.5" cy="59.5" r="3.5" fill="#00ADEF" fill-opacity="0.1"/>
  <circle cx="3.5" cy="31.5" r="3.5" fill="#00ADEF" fill-opacity="0.1"/>
  <circle cx="3.5" cy="87.5" r="3.5" fill="#00ADEF" fill-opacity="0.1"/>
  <circle cx="3.5" cy="17.5" r="3.5" fill="#00ADEF" fill-opacity="0.1"/>
  <circle cx="3.5" cy="73.5" r="3.5" fill="#00ADEF" fill-opacity="0.1"/>
  <circle cx="3.5" cy="45.5" r="3.5" fill="#00ADEF" fill-opacity="0.1"/>
  <circle cx="45.5" cy="3.5" r="3.5" fill="#00ADEF" fill-opacity="0.1"/>
  <circle cx="45.5" cy="59.5" r="3.5" fill="#00ADEF" fill-opacity="0.1"/>
  <circle cx="45.5" cy="31.5" r="3.5" fill="#00ADEF" fill-opacity="0.1"/>
  <circle cx="45.5" cy="87.5" r="3.5" fill="#00ADEF" fill-opacity="0.1"/>
  <circle cx="45.5" cy="17.5" r="3.5" fill="#00ADEF" fill-opacity="0.1"/>
  <circle cx="45.5" cy="73.5" r="3.5" fill="#00ADEF" fill-opacity="0.1"/>
  <circle cx="45.5" cy="45.5" r="3.5" fill="#00ADEF" fill-opacity="0.1"/>
  <circle cx="17.5" cy="3.5" r="3.5" fill="#00ADEF" fill-opacity="0.1"/>
  <circle cx="17.5" cy="59.5" r="3.5" fill="#00ADEF" fill-opacity="0.1"/>
  <circle cx="17.5" cy="31.5" r="3.5" fill="#00ADEF" fill-opacity="0.1"/>
  <circle cx="17.5" cy="87.5" r="3.5" fill="#00ADEF" fill-opacity="0.1"/>
  <circle cx="17.5" cy="17.5" r="3.5" fill="#00ADEF" fill-opacity="0.1"/>
  <circle cx="17.5" cy="73.5" r="3.5" fill="#00ADEF" fill-opacity="0.1"/>
  <circle cx="17.5" cy="45.5" r="3.5" fill="#00ADEF" fill-opacity="0.1"/>
  <circle cx="59.5" cy="3.5" r="3.5" fill="#00ADEF" fill-opacity="0.1"/>
  <circle cx="59.5" cy="59.5" r="3.5" fill="#00ADEF" fill-opacity="0.1"/>
  <circle cx="59.5" cy="31.5" r="3.5" fill="#00ADEF" fill-opacity="0.1"/>
  <circle cx="59.5" cy="87.5" r="3.5" fill="#00ADEF" fill-opacity="0.1"/>
  <circle cx="59.5" cy="17.5" r="3.5" fill="#00ADEF" fill-opacity="0.1"/>
  <circle cx="59.5" cy="73.5" r="3.5" fill="#00ADEF" fill-opacity="0.1"/>
  <circle cx="59.5" cy="45.5" r="3.5" fill="#00ADEF" fill-opacity="0.1"/>
  <circle cx="31.5" cy="3.5" r="3.5" fill="#00ADEF" fill-opacity="0.1"/>
  <circle cx="31.5" cy="59.5" r="3.5" fill="#00ADEF" fill-opacity="0.1"/>
  <circle cx="31.5" cy="31.5" r="3.5" fill="#00ADEF" fill-opacity="0.1"/>
  <circle cx="31.5" cy="87.5" r="3.5" fill="#00ADEF" fill-opacity="0.1"/>
  <circle cx="31.5" cy="17.5" r="3.5" fill="#00ADEF" fill-opacity="0.1"/>
  <circle cx="31.5" cy="73.5" r="3.5" fill="#00ADEF" fill-opacity="0.1"/>
  <circle cx="31.5" cy="45.5" r="3.5" fill="#00ADEF" fill-opacity="0.1"/>
  <circle cx="73.5" cy="3.5" r="3.5" fill="#00ADEF" fill-opacity="0.1"/>
  <circle cx="73.5" cy="59.5" r="3.5" fill="#00ADEF" fill-opacity="0.1"/>
  <circle cx="73.5" cy="31.5" r="3.5" fill="#00ADEF" fill-opacity="0.1"/>
  <circle cx="73.5" cy="87.5" r="3.5" fill="#00ADEF" fill-opacity="0.1"/>
  <circle cx="73.5" cy="17.5" r="3.5" fill="#00ADEF" fill-opacity="0.1"/>
  <circle cx="73.5" cy="73.5" r="3.5" fill="#00ADEF" fill-opacity="0.1"/>
  <circle cx="73.5" cy="45.5" r="3.5" fill="#00ADEF" fill-opacity="0.1"/>
  <circle cx="87.5" cy="3.5" r="3.5" fill="#00ADEF" fill-opacity="0.1"/>
  <circle cx="87.5" cy="59.5" r="3.5" fill="#00ADEF" fill-opacity="0.1"/>
  <circle cx="87.5" cy="31.5" r="3.5" fill="#00ADEF" fill-opacity="0.1"/>
  <circle cx="87.5" cy="87.5" r="3.5" fill="#00ADEF" fill-opacity="0.1"/>
  <circle cx="87.5" cy="17.5" r="3.5" fill="#00ADEF" fill-opacity="0.1"/>
  <circle cx="87.5" cy="73.5" r="3.5" fill="#00ADEF" fill-opacity="0.1"/>
  <circle cx="87.5" cy="45.5" r="3.5" fill="#00ADEF" fill-opacity="0.1"/>
</svg>
