<svg width="20" height="24" viewBox="0 0 20 24" fill="none" xmlns="http://www.w3.org/2000/svg">
  <path d="M6.27799 4.3675H8.51119C9.4333 4.33076 9.4326 3.01391 8.51119 2.97754H6.27799C5.35588 3.01423 5.35658 4.33109 6.27799 4.3675Z" fill="#CAD5D9"/>
  <path d="M9.62782 19.3545H5.16141C4.23931 19.3912 4.24 20.7081 5.16141 20.7445H9.62782C10.5499 20.7078 10.5492 19.3909 9.62782 19.3545Z" fill="#CAD5D9"/>
  <path d="M8.8834 9.67725H7.39461C6.47251 9.71399 6.4732 11.0308 7.39461 11.0672H8.8834C9.8055 11.0305 9.8048 9.71362 8.8834 9.67725Z" fill="#CAD5D9"/>
  <path d="M8.8834 12.6548H7.39461C6.47251 12.6915 6.4732 14.0084 7.39461 14.0447H8.8834C9.8055 14.0081 9.8048 12.6912 8.8834 12.6548Z" fill="#CAD5D9"/>
  <path d="M19.305 6.69962H14.7892V3.67261C14.7892 1.64085 13.1451 0 11.1166 0H3.67256C1.64085 0 0 1.64419 0 3.67261V20.0495C0 22.0812 1.64414 23.7221 3.67261 23.7221H11.1166C13.1483 23.7221 14.7892 22.078 14.7892 20.0495V17.0224H19.305C19.6888 17.0224 20 16.7113 20 16.3274V7.39461C20 7.01079 19.6888 6.69962 19.305 6.69962ZM11.1166 22.3321H3.67256C2.40978 22.3321 1.38992 21.3102 1.38992 20.0494V3.67261C1.38996 2.40997 2.41163 1.38996 3.67256 1.38996H11.1166C12.3792 1.38996 13.3992 2.41163 13.3992 3.67261V6.78344C12.7891 6.93193 12.2542 7.27057 11.861 7.73385C11.3243 7.10142 10.5239 6.69962 9.62781 6.69962H4.41698C4.03316 6.69962 3.722 7.01079 3.722 7.39461V16.3274C3.722 16.7113 4.03316 17.0224 4.41698 17.0224H9.62777C10.476 17.0224 11.166 17.7125 11.166 18.5606C11.166 18.9445 11.4772 19.2556 11.861 19.2556C12.2448 19.2556 12.556 18.9445 12.556 18.5606C12.556 17.9625 12.8994 17.4433 13.3992 17.189V20.0494C13.3992 21.3123 12.3775 22.3321 11.1166 22.3321ZM11.166 9.62781V16.0699C10.7188 15.7927 10.1916 15.6325 9.62781 15.6325H5.11196V8.08959H9.62777C10.4781 8.08959 11.166 8.7772 11.166 9.62781ZM18.61 15.6325H14.0942C13.5305 15.6325 13.0033 15.7927 12.556 16.0699V9.62781C12.556 8.7772 13.244 8.08959 14.0942 8.08959H18.61V15.6325Z" fill="#CAD5D9"/>
  <path d="M14.8386 11.0672H16.3274C17.2495 11.0305 17.2488 9.71362 16.3274 9.67725H14.8386C13.9165 9.71394 13.9172 11.0308 14.8386 11.0672Z" fill="#CAD5D9"/>
  <path d="M14.8386 14.0447H16.3274C17.2495 14.008 17.2488 12.6912 16.3274 12.6548H14.8386C13.9165 12.6915 13.9172 14.0084 14.8386 14.0447Z" fill="#CAD5D9"/>
</svg>
