<svg width="45" height="45" viewBox="0 0 45 45" fill="none" xmlns="http://www.w3.org/2000/svg">
  <rect width="45" height="45" rx="5" fill="#EEFAFF"/>
  <path d="M22.3624 13.1803C22.2834 13.068 22.1467 13 21.9999 13C21.8531 13 21.7164 13.068 21.6374 13.1803L18.8102 17.1969C18.7255 17.3172 18.7199 17.4697 18.7954 17.5949C18.8709 17.72 19.0155 17.7979 19.1727 17.7979H20.2888V20.3018C20.2888 20.5175 20.4815 20.6924 20.7191 20.6924H23.2808C23.5185 20.6924 23.7111 20.5175 23.7111 20.3018V17.7979H24.8272C24.9844 17.7979 25.129 17.7201 25.2045 17.5949C25.2801 17.4698 25.2744 17.3172 25.1897 17.197L22.3624 13.1803ZM23.2808 17.0166C23.0432 17.0166 22.8506 17.1916 22.8506 17.4073V19.9111H21.1493V17.4073C21.1493 17.1916 20.9567 17.0166 20.719 17.0166H19.9582L21.9999 14.1161L24.0416 17.0167H23.2808V17.0166Z" fill="#059FD5"/>
  <path d="M30.6165 22.0133H13.3835C12.6206 22.0133 12 22.5768 12 23.2694V31.7439C12 32.4365 12.6206 33 13.3835 33H30.6165C31.3794 33 32 32.4365 32 31.7439V23.2694C32 22.5768 31.3794 22.0133 30.6165 22.0133ZM31.1395 31.744C31.1395 32.0058 30.9049 32.2188 30.6165 32.2188H13.3835C13.0951 32.2188 12.8605 32.0058 12.8605 31.744V23.2694C12.8605 23.0076 13.0951 22.7946 13.3835 22.7946H30.6165C30.9049 22.7946 31.1395 23.0076 31.1395 23.2694V31.744Z" fill="#059FD5"/>
  <path d="M29.4872 25.3195C28.8982 25.3195 28.4189 24.8886 28.4189 24.3588C28.4189 24.3404 28.4195 24.3222 28.4206 24.3041C28.4273 24.1969 28.3851 24.0918 28.3038 24.0136C28.2226 23.9355 28.1094 23.8913 27.991 23.8913H16.009C15.8906 23.8913 15.7776 23.9355 15.6963 24.0135C15.615 24.0916 15.5727 24.1966 15.5794 24.3038C15.5805 24.322 15.5811 24.3404 15.5811 24.3588C15.5811 24.8886 15.1018 25.3195 14.5127 25.3195C14.2751 25.3195 14.0825 25.4944 14.0825 25.7101V29.3801C14.0825 29.5958 14.2751 29.7708 14.5127 29.7708C15.1018 29.7708 15.5811 30.2017 15.5811 30.7315C15.5811 30.9472 15.7737 31.1221 16.0113 31.1221H27.9886C28.2262 31.1221 28.4188 30.9472 28.4188 30.7315C28.4188 30.2017 28.8981 29.7708 29.4872 29.7708C29.7248 29.7708 29.9174 29.5958 29.9174 29.3801V25.7101C29.9175 25.4944 29.7248 25.3195 29.4872 25.3195ZM29.057 29.0332C28.339 29.1815 27.7724 29.6927 27.6073 30.3408H16.3927C16.2277 29.6927 15.661 29.1815 14.9431 29.0332V26.0571C15.6892 25.9029 16.272 25.3569 16.4103 24.6726H27.5898C27.7281 25.357 28.3108 25.9029 29.057 26.0571V29.0332Z" fill="#059FD5"/>
  <path d="M22 25.1997C20.5989 25.1997 19.459 26.2346 19.459 27.5067C19.459 28.7788 20.5989 29.8138 22 29.8138C23.4011 29.8138 24.541 28.7789 24.541 27.5067C24.541 26.2346 23.4011 25.1997 22 25.1997ZM22 29.0325C21.0733 29.0325 20.3195 28.348 20.3195 27.5067C20.3195 26.6654 21.0733 25.9809 22 25.9809C22.9267 25.9809 23.6805 26.6653 23.6805 27.5067C23.6805 28.348 22.9267 29.0325 22 29.0325Z" fill="#059FD5"/>
</svg>
