<svg width="45" height="45" viewBox="0 0 45 45" fill="none" xmlns="http://www.w3.org/2000/svg">
    <rect width="45" height="45" rx="5" fill="#FFF8EE"/>
    <path d="M18.278 15.3676H20.5112C21.4333 15.3308 21.4326 14.014 20.5112 13.9776H18.278C17.3559 14.0143 17.3566 15.3312 18.278 15.3676Z" fill="#FEAE3C"/>
    <path d="M21.6278 30.3545H17.1614C16.2393 30.3912 16.24 31.708 17.1614 31.7444H21.6278C22.5499 31.7077 22.5492 30.3909 21.6278 30.3545Z" fill="#FEAE3C"/>
    <path d="M20.8834 20.6772H19.3946C18.4725 20.714 18.4732 22.0308 19.3946 22.0672H20.8834C21.8055 22.0305 21.8048 20.7136 20.8834 20.6772Z" fill="#FEAE3C"/>
    <path d="M20.8834 23.6548H19.3946C18.4725 23.6916 18.4732 25.0084 19.3946 25.0448H20.8834C21.8055 25.0081 21.8048 23.6912 20.8834 23.6548Z" fill="#FEAE3C"/>
    <path d="M31.305 17.6996H26.7892V14.6726C26.7892 12.6409 25.1451 11 23.1166 11H15.6726C13.6409 11 12 12.6442 12 14.6726V31.0495C12 33.0812 13.6441 34.7221 15.6726 34.7221H23.1166C25.1483 34.7221 26.7892 33.078 26.7892 31.0495V28.0224H31.305C31.6888 28.0224 32 27.7113 32 27.3274V18.3946C32 18.0108 31.6888 17.6996 31.305 17.6996ZM23.1166 33.3321H15.6726C14.4098 33.3321 13.3899 32.3102 13.3899 31.0494V14.6726C13.39 13.41 14.4116 12.39 15.6726 12.39H23.1166C24.3792 12.39 25.3992 13.4116 25.3992 14.6726V17.7834C24.7891 17.9319 24.2542 18.2706 23.861 18.7338C23.3243 18.1014 22.5239 17.6996 21.6278 17.6996H16.417C16.0332 17.6996 15.722 18.0108 15.722 18.3946V27.3274C15.722 27.7113 16.0332 28.0224 16.417 28.0224H21.6278C22.476 28.0224 23.166 28.7125 23.166 29.5606C23.166 29.9445 23.4772 30.2556 23.861 30.2556C24.2448 30.2556 24.556 29.9445 24.556 29.5606C24.556 28.9625 24.8994 28.4433 25.3992 28.189V31.0494C25.3992 32.3123 24.3775 33.3321 23.1166 33.3321ZM23.166 20.6278V27.0699C22.7188 26.7927 22.1916 26.6325 21.6278 26.6325H17.112V19.0896H21.6278C22.4781 19.0896 23.166 19.7772 23.166 20.6278ZM30.61 26.6325H26.0942C25.5305 26.6325 25.0033 26.7927 24.556 27.0699V20.6278C24.556 19.7772 25.244 19.0896 26.0942 19.0896H30.61V26.6325Z" fill="#FEAE3C"/>
    <path d="M26.8386 22.0672H28.3274C29.2495 22.0305 29.2488 20.7136 28.3274 20.6772H26.8386C25.9165 20.7139 25.9172 22.0308 26.8386 22.0672Z" fill="#FEAE3C"/>
    <path d="M26.8386 25.0448H28.3274C29.2495 25.0081 29.2488 23.6912 28.3274 23.6548H26.8386C25.9165 23.6916 25.9172 25.0084 26.8386 25.0448Z" fill="#FEAE3C"/>
</svg>
