<svg width="45" height="45" viewBox="0 0 45 45" fill="none" xmlns="http://www.w3.org/2000/svg">
    <rect width="45" height="45" rx="5" fill="#F9F8F4"/>
    <path d="M15.0703 26.9149C14.8547 26.9149 14.6797 27.1055 14.6797 27.3404C14.6797 27.5753 14.8547 27.766 15.0703 27.766C15.2859 27.766 15.4609 27.5753 15.4609 27.3404C15.4609 27.1055 15.2859 26.9149 15.0703 26.9149Z" fill="#B3A369"/>
    <path d="M32.3595 28.3244C31.9584 28.0175 31.4436 27.9426 30.9826 28.124C30.9792 28.1254 30.9759 28.1267 30.9726 28.1282L27.2811 29.7059C27.2913 29.6277 27.2969 29.5483 27.2969 29.4681C27.2969 28.5295 26.5959 27.766 25.7344 27.766H23.2047C23.1376 27.766 23.0714 27.7471 23.013 27.7112L20.9492 26.4467C20.5411 26.1962 20.0774 26.0638 19.6082 26.0638H17.0234V25.6383C17.0234 25.4033 16.8486 25.2128 16.6328 25.2128H13.3906C13.1749 25.2128 13 25.4033 13 25.6383V33.2979C13 33.5329 13.1749 33.7234 13.3906 33.7234H16.6328C16.8486 33.7234 17.0234 33.5329 17.0234 33.2979V32.8723H17.3173L21.0442 34.5158C21.7734 34.8371 22.5417 35 23.3277 35C24.2036 35 25.0516 34.7997 25.8481 34.4048C25.8501 34.4038 25.8521 34.4028 25.854 34.4018L32.0655 31.1846C32.6337 30.9307 33 30.3365 33 29.6668C33 29.1329 32.7606 28.6311 32.3595 28.3244ZM16.2422 32.8723H13.7812V26.0638H16.2422V32.8723ZM31.763 30.3998C31.7554 30.4032 31.7479 30.4067 31.7405 30.4106L25.5217 33.6315C24.8283 33.9749 24.0901 34.1489 23.3277 34.1489C22.6425 34.1489 21.9728 34.0069 21.3372 33.7269L17.5399 32.0524C17.4934 32.0319 17.4436 32.0213 17.3934 32.0213H17.0234V26.9149H19.6082C19.9433 26.9149 20.2744 27.0094 20.5659 27.1883L22.6298 28.4529C22.8047 28.5603 23.0036 28.617 23.2047 28.617H25.7344C26.1652 28.617 26.5156 28.9988 26.5156 29.4681C26.5156 29.7628 26.3739 30.0372 26.1435 30.1921L26.1406 30.1934C26.1111 30.206 26.084 30.2226 26.0591 30.2416C25.9581 30.2923 25.8472 30.3192 25.7344 30.3192H21.7633C21.1171 30.3192 20.5914 30.8918 20.5914 31.5957C20.5914 31.8308 20.7663 32.0213 20.982 32.0213C21.1978 32.0213 21.3727 31.8308 21.3727 31.5957C21.3727 31.3611 21.5479 31.1702 21.7633 31.1702H25.7344C25.9964 31.1702 26.2539 31.0977 26.4809 30.9621L31.2524 28.9227C31.4763 28.8364 31.716 28.872 31.9106 29.0209C32.1064 29.1707 32.2188 29.4061 32.2188 29.6668C32.2188 29.9914 32.0398 30.2791 31.763 30.3998Z" fill="#B3A369"/>
    <path d="M15.0703 28.617C14.8546 28.617 14.6797 28.8075 14.6797 29.0426V31.5957C14.6797 31.8308 14.8546 32.0213 15.0703 32.0213C15.2861 32.0213 15.4609 31.8308 15.4609 31.5957V29.0426C15.4609 28.8075 15.2861 28.617 15.0703 28.617Z" fill="#B3A369"/>
    <path d="M28.4688 21.8085C27.1764 21.8085 26.125 22.9539 26.125 24.3617C26.125 25.7695 27.1764 26.9149 28.4688 26.9149C29.7611 26.9149 30.8125 25.7695 30.8125 24.3617C30.8125 22.9539 29.7611 21.8085 28.4688 21.8085ZM28.4688 26.0638C27.6072 26.0638 26.9062 25.3003 26.9062 24.3617C26.9062 23.4232 27.6072 22.6596 28.4688 22.6596C29.3303 22.6596 30.0312 23.4232 30.0312 24.3617C30.0312 25.3003 29.3303 26.0638 28.4688 26.0638Z" fill="#B3A369"/>
    <path d="M26.9062 15C25.6139 15 24.5625 16.1454 24.5625 17.5532C24.5625 18.961 25.6139 20.1064 26.9062 20.1064C28.1986 20.1064 29.25 18.961 29.25 17.5532C29.25 16.1454 28.1986 15 26.9062 15ZM26.9062 19.2553C26.0447 19.2553 25.3438 18.4917 25.3438 17.5532C25.3438 16.6146 26.0447 15.8511 26.9062 15.8511C27.7678 15.8511 28.4688 16.6146 28.4688 17.5532C28.4688 18.4917 27.7678 19.2553 26.9062 19.2553Z" fill="#B3A369"/>
    <path d="M22.2188 20.1064C20.9264 20.1064 19.875 21.2517 19.875 22.6596C19.875 24.0674 20.9264 25.2128 22.2188 25.2128C23.5111 25.2128 24.5625 24.0674 24.5625 22.6596C24.5625 21.2517 23.5111 20.1064 22.2188 20.1064ZM22.2188 24.3617C21.3572 24.3617 20.6562 23.5981 20.6562 22.6596C20.6562 21.721 21.3572 20.9574 22.2188 20.9574C23.0803 20.9574 23.7812 21.721 23.7812 22.6596C23.7812 23.5981 23.0803 24.3617 22.2188 24.3617Z" fill="#B3A369"/>
</svg>
