<svg width="45" height="45" viewBox="0 0 45 45" fill="none" xmlns="http://www.w3.org/2000/svg">
  <rect width="45" height="45" rx="5" fill="#FAF5FB"/>
  <path d="M20.4075 20.0259C18.0509 22.4698 18.5652 26.5255 21.2646 28.3221C21.3536 28.3813 21.4719 28.3696 21.5483 28.2948C22.1166 27.7382 22.5974 27.1991 23.0183 26.5135C23.0827 26.4086 23.0427 26.2724 22.9346 26.2138C22.5229 25.9902 22.1132 25.5709 21.8825 25.1281L21.8822 25.1282C21.6059 24.5768 21.5119 23.9586 21.6582 23.3202C21.6583 23.3203 21.6585 23.3203 21.6586 23.3203C21.8269 22.503 22.7024 21.7427 23.371 21.0396C23.3696 21.0391 23.3682 21.0386 23.3668 21.0381L25.872 18.4753C26.8703 17.4541 28.5125 17.4456 29.5211 18.4567C30.54 19.4573 30.5569 21.1115 29.5586 22.1328L28.0412 23.6968C27.971 23.7691 27.9482 23.8747 27.981 23.9702C28.3304 24.9857 28.4164 26.4176 28.1822 27.4994C28.1757 27.5296 28.2129 27.5495 28.2346 27.5273L31.4641 24.2236C33.5271 22.1131 33.5096 18.6769 31.4252 16.5876C29.2979 14.4555 25.8348 14.4732 23.7294 16.627L20.4204 20.012C20.4161 20.0167 20.4119 20.0214 20.4075 20.0259Z" fill="#772583"/>
  <path d="M26.445 28.7875C26.445 28.7876 26.4449 28.7877 26.4449 28.7878C26.4469 28.787 26.4489 28.7862 26.4509 28.7853C27.11 27.5773 27.2398 26.1919 26.9309 24.8413L26.9295 24.8428L26.9279 24.8421C26.6346 23.6392 25.8299 22.4448 24.7369 21.7093C24.6428 21.6461 24.4927 21.6534 24.4046 21.7248C23.851 22.1735 23.309 22.7488 22.9515 23.4831C22.8953 23.5984 22.9374 23.7368 23.048 23.8012C23.463 24.0427 23.8378 24.3963 24.0887 24.8656L24.0891 24.8654C24.2847 25.1969 24.4774 25.8261 24.3526 26.5021C24.3525 26.5021 24.3524 26.5021 24.3523 26.5021C24.2358 27.3983 23.3328 28.2205 22.615 28.9612L22.6154 28.9616C22.069 29.5217 20.6799 30.9409 20.1237 31.5105C19.1254 32.5317 17.475 32.5486 16.4561 31.548C15.4372 30.5474 15.4204 28.8932 16.4187 27.8719L17.9406 26.3032C18.0095 26.2321 18.033 26.1288 18.0023 26.0345C17.6644 24.9953 17.5718 23.5957 17.7851 22.5151C17.791 22.485 17.7541 22.4657 17.7326 22.4877L14.5517 25.7418C12.4675 27.8739 12.4851 31.3453 14.591 33.456C16.7181 35.545 20.1637 35.5097 22.2479 33.3777C22.9719 32.5659 26.0713 29.6897 26.445 28.7875Z" fill="#772583"/>
</svg>
