<svg width="45" height="45" viewBox="0 0 45 45" fill="none" xmlns="http://www.w3.org/2000/svg">
    <rect width="45" height="45" rx="5" fill="#F7F7F8"/>
    <path d="M30.8571 18.3333C30.8571 22.9357 27.3394 26.6667 23 26.6667C18.6606 26.6667 15.1429 22.9357 15.1429 18.3333C15.1429 13.731 18.6606 10 23 10C27.3394 10 30.8571 13.731 30.8571 18.3333ZM17.5 18.3333C17.5 21.555 19.9624 24.1667 23 24.1667C26.0376 24.1667 28.5 21.555 28.5 18.3333C28.5 15.1117 26.0376 12.5 23 12.5C19.9624 12.5 17.5 15.1117 17.5 18.3333Z" fill="#BCCCD1"/>
    <rect x="13" y="19.3333" width="20" height="14.6667" rx="2" fill="#F7F7F8" stroke="#BCCCD1" stroke-width="2"/>
    <path d="M25.619 26.1458C25.619 27.5841 24.4465 28.75 23 28.75C21.5535 28.75 20.381 27.5841 20.381 26.1458C20.381 24.7076 21.5535 23.5417 23 23.5417C24.4465 23.5417 25.619 24.7076 25.619 26.1458ZM21.6905 26.1458C21.6905 26.865 22.2768 27.4479 23 27.4479C23.7232 27.4479 24.3095 26.865 24.3095 26.1458C24.3095 25.4267 23.7232 24.8438 23 24.8438C22.2768 24.8438 21.6905 25.4267 21.6905 26.1458Z" fill="#BCCCD1"/>
</svg>
