<svg width="45" height="45" viewBox="0 0 45 45" fill="none" xmlns="http://www.w3.org/2000/svg">
    <rect width="45" height="45" rx="5" fill="#F1FFEE"/>
    <path d="M28.8184 13H15.1816C13.4276 13 12 14.4272 12 16.1816V29.818C12 31.5728 13.4276 33 15.1816 33H28.8184C30.5728 33 32 31.5728 32 29.818V16.1816C32 14.4272 30.5728 13 28.8184 13ZM24.8192 16.4292C24.1252 16.628 23.6132 17.2604 23.6132 18.0188C23.6132 18.7768 24.124 19.4096 24.8192 19.608V23.0712C24.1252 23.27 23.6132 23.9024 23.6132 24.6612C23.6132 25.4196 24.124 26.052 24.8192 26.2508V26.3924C24.1252 26.5916 23.6132 27.2236 23.6132 27.9824C23.6132 28.7412 24.124 29.3732 24.8192 29.5716V31.1824H19.1808V29.5716C19.8752 29.3732 20.3868 28.7404 20.3868 27.9824C20.3868 27.224 19.8756 26.5908 19.1808 26.3924V26.2508C19.8752 26.052 20.3868 25.4196 20.3868 24.6612C20.3868 23.9028 19.8756 23.27 19.1808 23.0712V22.9296C19.8752 22.7308 20.3868 22.0984 20.3868 21.3404C20.3868 20.582 19.8756 19.9492 19.1808 19.7508V14.818H24.8192V16.4292ZM13.8184 29.818V16.1816C13.8184 15.4296 14.4296 14.818 15.1816 14.818H18.272V19.75C17.5772 19.9488 17.0656 20.5812 17.0656 21.3396C17.0656 22.098 17.5768 22.7304 18.272 22.9288V23.0704C17.5772 23.2692 17.0656 23.9016 17.0656 24.66C17.0656 25.4184 17.5768 26.0512 18.272 26.25V26.392C17.5772 26.5904 17.0656 27.2232 17.0656 27.9816C17.0656 28.74 17.5768 29.3728 18.272 29.5708V31.1816H15.1816C14.4296 31.1816 13.8184 30.57 13.8184 29.818ZM30.1816 29.818C30.1816 30.57 29.5704 31.1816 28.8184 31.1816H25.728V29.5708C26.4224 29.372 26.9344 28.74 26.9344 27.9816C26.9344 27.2232 26.4236 26.5904 25.728 26.392V26.25C26.4224 26.0512 26.9344 25.4188 26.9344 24.66C26.9344 23.9016 26.4236 23.2692 25.728 23.0704V19.608C26.4224 19.4092 26.9344 18.7768 26.9344 18.0188C26.9344 17.2604 26.4236 16.6276 25.728 16.4292V14.818H28.8184C29.5704 14.818 30.1816 15.4296 30.1816 16.1816V29.818Z" fill="#65B552"/>
</svg>
