<svg id="Layer_5" enable-background="new 0 0 64 64" height="512" viewBox="0 0 64 64" width="512" xmlns="http://www.w3.org/2000/svg"><g fill="#48cfad"><path d="m36 26v10c-2.07 0-4.08.24-6 .7v-10.7z"/><path d="m42 24h6v12h-6z"/><path d="m54 16h6v20h-6z"/></g><path d="m58.51 49.01c-2.27-3.96-5.56-7.25-9.52-9.52-3.82-2.23-8.26-3.49-12.99-3.49-2.07 0-4.08.24-6 .7-2.49.58-4.84 1.53-6.99 2.79-3.96 2.27-7.25 5.56-9.52 9.52-2.23 3.82-3.49 8.26-3.49 12.99h6c0-3.64.98-7.06 2.69-10 1.74-3.04 4.27-5.57 7.31-7.31 2.94-1.71 6.36-2.69 10-2.69 2.8 0 5.47.58 7.9 1.62l.39-.65c.36-.6 1.01-.97 1.71-.97.36 0 .72.1 1.03.29.09.05.17.11.25.17.75.62.95 1.71.44 2.57l-.32.53c2.42 1.67 4.45 3.88 5.92 6.44 1.71 2.94 2.68 6.36 2.68 10h6c0-4.73-1.26-9.17-3.49-12.99z" fill="#ff826e"/><path d="m16 62c0-11.046 8.954-20 20-20s20 8.954 20 20z" fill="#e6e9ed"/><path d="m47.28 42.46c.75.62.95 1.71.44 2.57l-.32.53-7.26 12.1c-.97-.93-2.26-1.54-3.69-1.64l7.45-12.4.39-.65c.36-.6 1.01-.97 1.71-.97.36 0 .72.1 1.03.29.09.05.17.11.25.17z" fill="#ffc729"/><path d="m42 62h-12c0-3.31 2.69-6 6-6 .15 0 .3.01.45.02 1.43.1 2.72.71 3.69 1.64 1.15 1.1 1.86 2.64 1.86 4.34z" fill="#ffc729"/><circle cx="12" cy="28" fill="#fcd770" r="10"/><path d="m52 1v2h7.586l-15.586 15.586-7-7-14.221 14.221c-1.019-5.018-5.465-8.807-10.779-8.807-6.065 0-11 4.935-11 11s4.935 11 11 11c5.918 0 10.746-4.701 10.978-10.564l14.022-14.022 7 7 17-17v7.586h2v-11zm-40 36c-4.963 0-9-4.037-9-9s4.037-9 9-9 9 4.037 9 9-4.037 9-9 9z"/><path d="m13 25c.552 0 1 .448 1 1h2c0-1.654-1.346-3-3-3v-2h-2v2h-3v3c0 1.654 1.346 3 3 3h2c.552 0 1 .448 1 1v1h-3c-.552 0-1-.448-1-1h-2c0 1.654 1.346 3 3 3v2h2v-2h3v-3c0-1.654-1.346-3-3-3h-2c-.552 0-1-.448-1-1v-1z"/><path d="m61 15h-8v20h-4v-12h-8v12h-4v-10h-8v10.926c-11.504 3.091-20 13.607-20 26.074v1h54v-1c0-11.286-6.964-20.972-16.817-25h16.817v-2h-2zm-6 2h4v18h-4zm-12 8h4v10h-4zm11.969 36h-12.049c-.188-1.306-.731-2.499-1.539-3.47l6.305-10.509c4.336 3.388 6.994 8.49 7.283 13.979zm-18.969-18c2.215 0 4.366.397 6.42 1.137l-6.521 10.868c-3.473.05-6.336 2.641-6.819 5.995h-12.029c.525-10.011 8.81-18 18.949-18zm-1-1.949c-3.092.147-6.009.953-8.612 2.3l-2.009-3.481c3.196-1.685 6.801-2.694 10.622-2.845v4.026zm11.516 2.092c.473.283.626.899.343 1.372l-6.994 11.655c-.555-.37-1.165-.663-1.815-.862l7.094-11.822c.272-.455.916-.619 1.372-.343zm-10.516 13.857c2.414 0 4.434 1.721 4.899 4h-9.798c.465-2.279 2.485-4 4.899-4zm10.886-15.855c-.286-.089-.582-.145-.884-.145-1.022 0-1.979.537-2.526 1.397-2.076-.792-4.245-1.243-6.476-1.347v-4.025c3.821.151 7.426 1.16 10.622 2.845zm-15.886-14.145h4v8.025c-1.361.05-2.697.201-4 .446zm-8.35 13.878 2.007 3.476c-2.524 1.628-4.675 3.779-6.303 6.303l-3.479-2.009c1.985-3.128 4.646-5.785 7.775-7.77zm-8.777 9.502 3.478 2.008c-1.347 2.603-2.153 5.521-2.3 8.612h-4.031c.151-3.822 1.167-7.423 2.853-10.62zm43.096 10.62c-.145-3.04-.944-5.974-2.308-8.619l3.466-2.001c1.686 3.197 2.702 6.798 2.854 10.62zm.156-12.351-3.469 2.003c-1.313-2.043-2.982-3.865-4.959-5.369.459-.966.362-2.071-.199-2.927l.853-1.477c3.128 1.984 5.789 4.641 7.774 7.77z"/><path d="m21.264 59.186c.12-.633.282-1.263.483-1.873l-1.9-.625c-.228.692-.412 1.408-.548 2.127z"/><path d="m36 47v-2c-6.558 0-12.416 3.664-15.291 9.562l1.799.877c2.536-5.206 7.706-8.439 13.492-8.439z"/></svg>