<svg id="Capa_1" enable-background="new 0 0 512 512" height="512" viewBox="0 0 512 512" width="512" xmlns="http://www.w3.org/2000/svg"><g><g><g><path d="m370 504.5h-228c-22.091 0-40-17.909-40-40v-417c0-22.091 17.909-40 40-40h228c22.091 0 40 17.909 40 40v417c0 22.091-17.909 40-40 40z" fill="#3d6d93"/><path d="m370 7.5h-30c22.091 0 40 17.909 40 40v417c0 22.091-17.909 40-40 40h30c22.091 0 40-17.909 40-40v-417c0-22.091-17.909-40-40-40z" fill="#335e80"/><path d="m329.453 45.5c0 7.466-6.053 13.519-13.519 13.519h-119.868c-7.466 0-13.519-6.053-13.519-13.519 0-4.418-3.582-8-8-8h-27.547c-8.284 0-15 6.716-15 15v407c0 8.284 6.716 15 15 15h218c8.284 0 15-6.716 15-15v-407c0-8.284-6.716-15-15-15h-27.547c-4.418 0-8 3.582-8 8z" fill="#f9f7f8"/></g><g><path d="m336.327 474.5h-160.654v-46.839c0-44.363 35.963-80.327 80.327-80.327 44.363 0 80.327 35.963 80.327 80.327z" fill="#ffe179"/><path d="m256 347.335c-5.129 0-10.138.501-15 1.42 37.191 7.028 65.327 39.673 65.327 78.907v46.838h30v-46.839c0-44.363-35.964-80.326-80.327-80.326z" fill="#fbd268"/><g><path d="m256 358.476c-23.674 0-42.866-19.192-42.866-42.866v-20.327l6.427-30.486c0-13.879 6.484-22.797 20.363-22.797l31.378-.664c13.879 0 22.407 8.697 22.407 22.576l5.158 31.372v20.327c-.001 23.674-19.193 42.865-42.867 42.865z" fill="#ffcebf"/><path d="m273.736 238.18h-30c13.879 0 25.13 11.251 25.13 25.129v52.301c0 18.396-11.591 34.08-27.866 40.162 4.669 1.745 9.722 2.704 15 2.704 23.674 0 42.866-19.192 42.866-42.866v-52.3c0-13.879-11.251-25.13-25.13-25.13z" fill="#ffb09e"/><path d="m273.736 238.18h-35.473c-13.879 0-25.13 11.251-25.13 25.129v31.974l36.325-11.967c13.395-4.413 28.078-2.388 39.779 5.487l9.628 6.48v-31.973c.001-13.879-11.25-25.13-25.129-25.13z" fill="#e19974"/><g><path d="m273.736 238.18h-30c13.879 0 25.13 11.251 25.13 25.129v18.02c7.202.813 14.203 3.322 20.372 7.474l9.628 6.48v-31.973c0-13.879-11.251-25.13-25.13-25.13z" fill="#dc8758"/></g></g></g><g><path d="m488.727 249.063h-128.113c-8.711 0-15.773-7.062-15.773-15.773v-128.114c0-8.711 7.062-15.773 15.773-15.773h128.113c8.711 0 15.773 7.062 15.773 15.773v128.113c0 8.712-7.062 15.774-15.773 15.774z" fill="#8fd8fa"/><path d="m488.727 89.403h-30c8.711 0 15.773 7.062 15.773 15.773v128.113c0 8.711-7.062 15.773-15.773 15.773h30c8.711 0 15.773-7.062 15.773-15.773v-128.113c0-8.711-7.062-15.773-15.773-15.773z" fill="#6bcdfe"/><g><path d="m472.627 249.063h-95.913v-8.172c0-26.486 21.471-47.956 47.956-47.956 26.486 0 47.956 21.471 47.956 47.956v8.172z" fill="#f58a97"/><path d="m424.67 192.934c-5.241 0-10.28.852-15 2.406 19.136 6.299 32.957 24.305 32.957 45.55v8.172h30v-8.172c0-26.485-21.471-47.956-47.957-47.956z" fill="#f07281"/><g><path d="m424.67 199.586c-14.134 0-25.592-11.458-25.592-25.592v-11.68c0-14.134 11.458-25.592 25.592-25.592 14.134 0 25.592 11.458 25.592 25.592v11.68c0 14.135-11.458 25.592-25.592 25.592z" fill="#ffcebf"/></g><path d="m424.67 136.723c-4.663 0-9.031 1.253-12.796 3.432 7.647 4.425 12.796 12.689 12.796 22.159v11.68c0 9.471-5.149 17.734-12.796 22.159 3.765 2.179 8.133 3.432 12.796 3.432 14.134 0 25.592-11.458 25.592-25.592v-11.68c0-14.132-11.458-25.59-25.592-25.59z" fill="#ffb09e"/></g></g><g><path d="m151.386 249.063h-128.113c-8.711 0-15.773-7.062-15.773-15.773v-128.114c0-8.711 7.062-15.773 15.773-15.773h128.113c8.711 0 15.773 7.062 15.773 15.773v128.113c.001 8.712-7.061 15.774-15.773 15.774z" fill="#8fd8fa"/><path d="m151.386 89.403h-30c8.711 0 15.773 7.062 15.773 15.773v128.113c0 8.711-7.062 15.773-15.773 15.773h30c8.711 0 15.773-7.062 15.773-15.773v-128.113c.001-8.711-7.061-15.773-15.773-15.773z" fill="#6bcdfe"/><g><path d="m135.286 249.063h-95.913v-8.172c0-26.486 21.471-47.956 47.956-47.956 26.486 0 47.956 21.471 47.956 47.956v8.172z" fill="#aee69c"/><path d="m87.33 192.934c-5.241 0-10.28.852-15 2.406 19.136 6.299 32.956 24.305 32.956 45.55v8.172h30v-8.172c0-26.485-21.471-47.956-47.956-47.956z" fill="#89daa4"/><g><path d="m87.33 199.586c-14.134 0-25.592-11.458-25.592-25.592v-11.68c0-14.134 11.458-25.592 25.592-25.592 14.134 0 25.592 11.458 25.592 25.592v11.68c-.001 14.135-11.458 25.592-25.592 25.592z" fill="#ffcebf"/></g><path d="m87.33 136.723c-4.663 0-9.031 1.253-12.796 3.432 7.647 4.425 12.796 12.689 12.796 22.159v11.68c0 9.471-5.149 17.734-12.796 22.159 3.765 2.179 8.133 3.432 12.796 3.432 14.134 0 25.592-11.458 25.592-25.592v-11.68c-.001-14.132-11.458-25.59-25.592-25.59z" fill="#ffb09e"/></g></g><g><path d="m304.003 195.058-30.378-25.825 30.378-25.825c2.813-2.392 7.137-.392 7.137 3.3v45.05c0 3.692-4.324 5.692-7.137 3.3z" fill="#b4e5f9"/><path d="m270.84 194.264h-62.4c-4.186 0-7.58-3.394-7.58-7.58v-34.901c0-4.186 3.394-7.58 7.58-7.58h62.4c4.186 0 7.58 3.394 7.58 7.58v34.901c.001 4.186-3.393 7.58-7.58 7.58z" fill="#8fd8fa"/><path d="m270.841 144.202h-30c4.186 0 7.58 3.394 7.58 7.58v34.901c0 4.186-3.394 7.58-7.58 7.58h30c4.186 0 7.58-3.394 7.58-7.58v-34.901c0-4.186-3.394-7.58-7.58-7.58z" fill="#6bcdfe"/></g></g><path d="m256 40.76c4.142 0 7.5-3.358 7.5-7.5s-3.358-7.5-7.5-7.5-7.5 3.358-7.5 7.5 3.358 7.5 7.5 7.5zm232.727 41.143h-71.227v-34.403c0-26.191-21.309-47.5-47.5-47.5h-228c-26.191 0-47.5 21.309-47.5 47.5v34.403h-71.227c-12.833 0-23.273 10.44-23.273 23.273v128.114c0 12.833 10.44 23.273 23.273 23.273h71.227v207.937c0 26.191 21.309 47.5 47.5 47.5h228c26.191 0 47.5-21.309 47.5-47.5v-207.938h71.227c12.833 0 23.273-10.44 23.273-23.273v-128.113c0-12.833-10.44-23.273-23.273-23.273zm-379.227-34.403c0-17.92 14.58-32.5 32.5-32.5h228c17.921 0 32.5 14.58 32.5 32.5v34.403h-15v-29.403c0-12.407-10.094-22.5-22.5-22.5h-27.55c-8.547 0-15.5 6.953-15.5 15.5 0 3.319-2.701 6.02-6.021 6.02h-119.859c-3.319 0-6.02-2.701-6.02-6.02 0-4.145-1.611-8.038-4.555-10.982-2.934-2.914-6.822-4.518-10.945-4.518h-27.55c-12.407 0-22.5 10.093-22.5 22.5v29.403h-15zm-77.63 194.062h-8.597c-4.562 0-8.273-3.711-8.273-8.273v-128.113c0-4.562 3.711-8.273 8.273-8.273h128.113c4.562 0 8.273 3.711 8.273 8.273v128.114c0 4.562-3.711 8.273-8.273 8.273h-8.596c.231-14.981-5.651-29.29-16.247-39.886-3.54-3.54-7.565-6.564-11.901-9.025 3.643-5.316 5.779-11.741 5.779-18.658v-11.68c0-18.247-14.845-33.092-33.092-33.092s-33.091 14.845-33.091 33.092v11.68c0 6.899 2.125 13.309 5.75 18.617-17.374 9.782-28.373 28.334-28.118 48.951zm73.551-79.248v11.68c0 9.976-8.116 18.092-18.092 18.092s-18.091-8.116-18.091-18.092v-11.68c0-9.976 8.116-18.092 18.091-18.092 9.977.001 18.092 8.116 18.092 18.092zm-58.551 79.248c-.228-16.911 9.799-31.941 25.27-38.183 4.553 2.363 9.715 3.707 15.189 3.707 5.465 0 10.62-1.34 15.167-3.695 4.997 2.025 9.6 5.052 13.441 8.892 7.83 7.83 12.005 18.232 11.853 29.279zm355.63 222.938c0 17.92-14.579 32.5-32.5 32.5h-228c-17.92 0-32.5-14.58-32.5-32.5v-207.938h15v202.938c0 12.407 10.093 22.5 22.5 22.5h218c12.406 0 22.5-10.093 22.5-22.5v-202.938h15zm62.63-222.938h-80.92c-.222-16.912 9.795-31.939 25.27-38.183 4.553 2.363 9.716 3.707 15.19 3.707 5.465 0 10.62-1.34 15.167-3.695 4.997 2.025 9.6 5.052 13.44 8.892 7.83 7.832 12.005 18.232 11.853 29.279zm-58.552-67.567v-11.68c0-9.976 8.116-18.092 18.092-18.092s18.092 8.116 18.092 18.092v11.68c0 9.976-8.116 18.092-18.092 18.092s-18.092-8.116-18.092-18.092zm90.422 59.295c0 4.562-3.712 8.273-8.273 8.273h-8.597c.234-14.979-5.653-29.292-16.246-39.886-3.54-3.54-7.565-6.564-11.901-9.024 3.643-5.316 5.779-11.741 5.779-18.658v-11.68c0-18.247-14.845-33.092-33.092-33.092s-33.092 14.845-33.092 33.092v11.68c0 6.899 2.125 13.309 5.75 18.617-17.375 9.783-28.373 28.332-28.118 48.951h-8.597c-4.562 0-8.272-3.711-8.272-8.273v-47.154c0-4.142-3.357-7.5-7.5-7.5s-7.5 3.358-7.5 7.5v47.154c0 12.833 10.44 23.273 23.272 23.273h11.887v202.937c0 4.136-3.364 7.5-7.5 7.5h-21.17v-39.34c0-23.458-9.137-45.513-25.727-62.104-6.995-6.995-15.156-12.765-24.019-17.043 7.642-8.834 12.281-20.333 12.281-32.903v-52.3c0-17.992-14.638-32.63-32.63-32.63h-35.473c-17.992 0-32.629 14.638-32.629 32.63v52.3c0 12.574 4.642 24.076 12.288 32.911-17.976 8.671-32.698 23.337-41.342 41.59-1.773 3.744-.175 8.215 3.568 9.988 1.037.491 2.129.724 3.205.724 2.808 0 5.501-1.585 6.783-4.292 8.19-17.296 22.948-30.718 40.798-37.263 7.387 4.258 15.942 6.708 25.064 6.708s17.678-2.45 25.066-6.708c9.863 3.62 18.948 9.412 26.43 16.895 13.758 13.757 21.334 32.046 21.334 51.497v39.34h-145.657v-39.34c0-4.142-3.358-7.5-7.5-7.5s-7.5 3.358-7.5 7.5v39.34h-21.17c-4.136 0-7.5-3.364-7.5-7.5v-202.938h11.886c12.833 0 23.273-10.44 23.273-23.273v-128.113c0-12.833-10.44-23.273-23.273-23.273h-11.886v-29.403c0-4.136 3.364-7.5 7.5-7.5h27.55c.141 0 .268.055.357.143.128.128.143.265.143.357 0 11.59 9.43 21.02 21.02 21.02h119.86c11.591 0 21.021-9.43 21.021-21.02 0-.276.225-.5.5-.5h27.549c4.136 0 7.5 3.364 7.5 7.5v29.403h-11.887c-12.832 0-23.272 10.44-23.272 23.273v45.959c0 4.142 3.357 7.5 7.5 7.5s7.5-3.358 7.5-7.5v-45.959c0-4.562 3.711-8.273 8.272-8.273h128.113c4.562 0 8.273 3.711 8.273 8.273v128.114zm-249.887 42.903-26.479 8.723v-21.606c0-9.721 7.909-17.63 17.629-17.63h35.473c9.721 0 17.63 7.909 17.63 17.63v17.969c-13.332-8.131-29.32-10.005-44.253-5.086zm44.253 23.084v16.333c0 19.501-15.865 35.366-35.366 35.366s-35.366-15.865-35.366-35.366v-14.9l31.172-10.27c11.278-3.716 23.394-2.044 33.245 4.586zm7.778-161.582-13.469 11.447c-1.254-7.059-7.42-12.441-14.834-12.441h-62.4c-8.315 0-15.081 6.765-15.081 15.081v34.901c0 8.315 6.765 15.08 15.081 15.08h62.4c7.414 0 13.58-5.382 14.834-12.441l13.477 11.459c7.432 6.42 19.585.832 19.488-9.022v-45.05c.095-9.965-12.103-15.409-19.496-9.014zm-28.223 48.989c0 .044-.036.08-.08.08h-62.4c-.044 0-.081-.036-.081-.08v-34.901c0-.044.036-.081.081-.081h62.4c.044 0 .08.036.08.081zm32.719-1.775-17.719-15.066v-1.225l17.719-15.059z"/></g></svg>